<svg width="256" height="256" viewBox="0 0 256 256" fill="none" xmlns="http://www.w3.org/2000/svg">
    <path fill-rule="evenodd" clip-rule="evenodd"
          d="M248 31.4375C248 18.5019 237.498 8 224.562 8H31.4375C18.5019 8 8 18.5019 8 31.4375V224.562C8 237.498 18.5019 248 31.4375 248H224.562C237.498 248 248 237.498 248 224.562V31.4375Z"
          fill="#891B26"/>
    <path fill-rule="evenodd" clip-rule="evenodd"
          d="M116.743 230L56.2754 125.307L25 179.456V220.618C25 225.796 29.2032 230 34.3822 230H116.743ZM160.837 230H125.973C125.973 230 80.8097 151.779 65.6786 125.61C62.7162 120.485 62.7139 114.148 65.6763 109.022C71.1484 99.5531 78.3235 87.1354 78.3235 87.1354L160.837 230ZM204.931 230H170.067L83.4484 78.2606L100.369 48.9672L204.931 230ZM230 197.063V220.618C230 225.796 225.797 230 220.618 230H214.161L104.983 40.978L114.213 25H130.62L230 197.063ZM220.618 25H139.847L230 181.085V34.3822C230 29.2039 225.797 25 220.618 25Z"
          fill="url(#paint0_radial_2902_19)"/>
    <defs>
        <radialGradient id="paint0_radial_2902_19" cx="0" cy="0" r="1" gradientUnits="userSpaceOnUse"
                        gradientTransform="translate(181.67 -13.5278) scale(243.528)">
            <stop stop-color="#FFAE71"/>
            <stop offset="1" stop-color="#FF9350"/>
        </radialGradient>
    </defs>
</svg>
