<svg width="256" height="256" viewBox="0 0 256 256" fill="none" xmlns="http://www.w3.org/2000/svg">
    <g clip-path="url(#clip0_2902_15)">
        <path fill-rule="evenodd" clip-rule="evenodd"
              d="M247.998 31.4375C247.998 18.5019 237.497 8 224.561 8H31.4377C18.5021 8 8.00024 18.5019 8.00024 31.4375V224.562C8.00024 237.498 18.5021 248 31.4377 248H224.561C237.497 248 247.999 237.498 247.999 224.562L247.998 31.4375Z"
              fill="#4E3188"/>
        <path fill-rule="evenodd" clip-rule="evenodd"
              d="M230.427 160.364V221.047C230.427 226.158 226.327 230.32 221.239 230.42L159.266 230.42L118.803 160.364H230.427ZM150.045 230.42H40.4093L95.2578 135.565L150.045 230.42ZM31.6062 229.804C28.2898 228.532 25.8781 225.432 25.6086 221.742L25.5828 179.915L70.1538 102.746H104.991L31.6062 229.804ZM136.852 102.602C139.887 102.615 142.791 104.398 144.359 107.04C144.376 107.067 144.406 107.121 144.406 107.121L153.617 123.07L153.697 123.203C155.202 125.836 155.26 129.153 153.755 131.834C150.669 137.234 147.533 142.609 144.42 147.996C142.892 150.616 140 152.326 136.925 152.364C131.059 152.389 119.295 152.375 119.279 152.375C116.244 152.363 113.293 150.744 111.723 148.102C111.687 148.045 111.622 147.928 111.622 147.928C111.622 147.928 102.406 131.976 102.387 131.939C100.88 129.306 100.883 125.905 102.387 123.224C102.409 123.185 102.455 123.106 102.455 123.106C102.455 123.106 108.622 112.41 111.709 107.061C113.237 104.441 116.136 102.639 119.209 102.6C119.26 102.6 119.363 102.598 119.363 102.598L136.747 102.602H136.852ZM224.073 26.0764L151.123 152.375H230.427V34.9531C230.427 30.8361 227.766 27.3352 224.073 26.0764ZM114.725 25.5781H215.138L160.834 119.599L110.628 32.6741L114.725 25.5781ZM137.267 94.7635H74.764L106.016 40.6569L137.267 94.7635Z"
              fill="url(#paint0_radial_2902_15)"/>
    </g>
    <defs>
        <radialGradient id="paint0_radial_2902_15" cx="0" cy="0" r="1" gradientUnits="userSpaceOnUse"
                        gradientTransform="translate(182.152 -12.9201) scale(243.34 243.34)">
            <stop stop-color="#F9A6FF"/>
            <stop offset="1" stop-color="#EA73FF"/>
        </radialGradient>
        <clipPath id="clip0_2902_15">
            <rect width="240" height="240" fill="white" transform="translate(8 8)"/>
        </clipPath>
    </defs>
</svg>
