<svg width="256" height="256" viewBox="0 0 256 256" fill="none" xmlns="http://www.w3.org/2000/svg">
    <path d="M96.218 207.495C86.0178 198.162 83.0401 178.552 87.2897 164.345C94.6585 173.302 104.868 176.139 115.444 177.741C131.77 180.213 147.804 179.288 162.97 171.819C164.705 170.964 166.308 169.827 168.204 168.675C169.628 172.807 169.998 176.98 169.501 181.226C168.292 191.568 163.151 199.556 154.973 205.611C151.703 208.033 148.242 210.198 144.865 212.482C134.49 219.502 131.683 227.732 135.581 239.705C135.674 239.997 135.757 240.288 135.966 241C130.668 238.627 126.799 235.172 123.851 230.629C120.737 225.834 119.255 220.53 119.177 214.791C119.138 211.998 119.138 209.18 118.762 206.427C117.846 199.714 114.699 196.708 108.767 196.535C102.68 196.357 97.8652 200.124 96.5884 206.056C96.491 206.511 96.3496 206.961 96.2083 207.489L96.218 207.495Z"
          fill="#FF5D01"/>
    <path d="M38 161.978C38 161.978 68.2045 147.25 98.4935 147.25L121.33 76.5069C122.185 73.0857 124.682 70.7607 127.5 70.7607C130.318 70.7607 132.815 73.0857 133.67 76.5069L156.507 147.25C192.379 147.25 217 161.978 217 161.978C217 161.978 165.695 22.0807 165.595 21.8C164.122 17.6638 161.637 15 158.285 15H96.7202C93.3688 15 90.9833 17.6638 89.4105 21.8C89.2997 22.0754 38 161.978 38 161.978Z"
          fill="#f8f8f8"/>
</svg>
