<svg width="256" height="256" viewBox="0 0 256 256" fill="none" xmlns="http://www.w3.org/2000/svg">
    <path d="M245.633 106.929C244.982 106.413 238.906 101.831 226.091 101.831C222.708 101.845 219.331 102.135 215.994 102.697C213.514 85.7195 199.46 77.4418 198.83 77.0705L195.388 75.0886L193.125 78.3502C190.291 82.7316 188.222 87.5615 187.008 92.6345C184.713 102.326 186.108 111.429 191.038 119.211C185.085 122.524 175.537 123.34 173.604 123.412H15.5126C11.3833 123.417 8.03259 126.75 8.01008 130.874C7.82568 144.706 10.1721 158.456 14.9339 171.446C20.3799 185.709 28.482 196.216 39.0229 202.646C50.8348 209.871 70.0253 213.999 91.7785 213.999C101.606 214.03 111.414 213.142 121.076 211.347C134.507 208.884 147.43 204.196 159.312 197.475C169.103 191.813 177.914 184.609 185.406 176.142C197.931 161.981 205.393 146.21 210.942 132.195H213.153C226.866 132.195 235.299 126.714 239.95 122.122C243.04 119.192 245.453 115.624 247.018 111.666L248 108.797L245.633 106.929Z"
          fill="#2496ED"/>
    <path d="M30.1661 118.788H51.3511C52.3728 118.788 53.2007 117.961 53.2007 116.941V98.0943C53.2065 97.0739 52.3829 96.2423 51.3615 96.2366C51.3581 96.2366 51.3544 96.2366 51.3511 96.2366H30.1661C29.1444 96.2366 28.3164 97.0638 28.3164 98.0839V98.0943V116.94C28.3164 117.961 29.1444 118.788 30.1661 118.788V118.788Z"
          fill="#2496ED"/>
    <path d="M59.3604 118.788H80.5454C81.5671 118.788 82.3951 117.961 82.3951 116.941V98.0943C82.4008 97.0739 81.5772 96.2423 80.5555 96.2366C80.5521 96.2366 80.5484 96.2366 80.5451 96.2366H59.3601C58.3326 96.2366 57.5 97.0682 57.5 98.0943V116.94C57.506 117.963 58.337 118.788 59.3604 118.788"
          fill="#2496ED"/>
    <path d="M88.9985 118.788H110.183C111.205 118.788 112.033 117.961 112.033 116.941V98.0943C112.039 97.0739 111.215 96.2423 110.193 96.2366C110.19 96.2366 110.186 96.2366 110.183 96.2366H88.9981C87.9764 96.2366 87.1484 97.0638 87.1484 98.0839V98.0943V116.94C87.1488 117.961 87.9771 118.788 88.9985 118.788V118.788Z"
          fill="#2496ED"/>
    <path d="M118.285 118.788H139.47C140.494 118.788 141.325 117.963 141.33 116.941V98.0943C141.33 97.0682 140.498 96.2366 139.47 96.2366H118.285C117.263 96.2366 116.436 97.0638 116.436 98.0839V98.0943V116.94C116.436 117.961 117.264 118.788 118.285 118.788V118.788Z"
          fill="#2496ED"/>
    <path d="M59.3606 91.675H80.5455C81.5686 91.6693 82.3952 90.839 82.3952 89.8172V70.9711C82.3952 69.9507 81.567 69.1238 80.5455 69.1238H59.3606C58.3375 69.1238 57.5062 69.949 57.5005 70.9711V89.8172C57.5062 90.841 58.3355 91.6693 59.3606 91.675Z"
          fill="#2496ED"/>
    <path d="M88.9986 91.675H110.184C111.207 91.6693 112.033 90.839 112.033 89.8172V70.9711C112.033 69.9507 111.205 69.1238 110.184 69.1238H88.9986C87.9769 69.1238 87.1489 69.951 87.1489 70.9711V89.8172C87.1489 90.839 87.9755 91.6693 88.9986 91.675Z"
          fill="#2496ED"/>
    <path d="M118.285 91.675H139.47C140.495 91.6693 141.325 90.841 141.33 89.8172V70.9711C141.325 69.949 140.494 69.1238 139.47 69.1238H118.285C117.263 69.1238 116.436 69.951 116.436 70.9711V89.8172C116.436 90.839 117.262 91.6693 118.285 91.675Z"
          fill="#2496ED"/>
    <path d="M118.285 64.5515H139.47C140.494 64.5515 141.325 63.726 141.33 62.7042V43.8473C141.325 42.8252 140.494 42 139.47 42H118.285C117.263 42 116.436 42.8269 116.436 43.8473V62.7039C116.436 63.7243 117.264 64.5515 118.285 64.5515Z"
          fill="#2496ED"/>
    <path d="M147.831 118.788H169.016C170.039 118.788 170.87 117.963 170.876 116.941V98.0943C170.876 97.0682 170.043 96.2366 169.016 96.2366H147.831C146.809 96.2366 145.981 97.0638 145.981 98.0839V98.0943V116.94C145.981 117.961 146.809 118.788 147.831 118.788"
          fill="#2496ED"/>
</svg>
