<svg width="256" height="256" viewBox="0 0 256 256" fill="none" xmlns="http://www.w3.org/2000/svg">
    <path d="M81.0919 98.5958L126.626 72.2844C127.186 71.9607 127.822 71.7902 128.469 71.7902C129.115 71.7902 129.751 71.9607 130.311 72.2844L175.845 98.5958C176.405 98.9195 176.87 99.385 177.193 99.9454C177.517 100.506 177.687 101.142 177.687 101.789V154.412C177.687 155.728 176.984 156.945 175.845 157.604L130.311 183.916C129.751 184.24 129.115 184.41 128.469 184.41C127.822 184.41 127.186 184.24 126.626 183.916L81.0919 157.604C80.532 157.281 80.067 156.815 79.7436 156.255C79.4202 155.694 79.2499 155.059 79.2498 154.412V101.788C79.2507 100.47 79.9529 99.2544 81.0919 98.5948"
          fill="#8080F2"/>
    <path d="M246.516 123.788L192.053 28.9581C190.075 25.5296 186.42 23 182.464 23H73.5365C69.5803 23 65.924 25.5296 63.9459 28.9581L9.4836 123.579C7.50547 127.008 7.50547 131.336 9.4836 134.766L63.9459 228.819C65.924 232.247 69.5803 234 73.5365 234H182.463C186.419 234 190.075 232.3 192.052 228.87L246.515 134.665C248.495 131.237 248.495 127.216 246.515 123.788H246.516ZM201.417 169.389C201.417 170.782 200.579 172.072 199.372 172.77L129.998 212.828C129.4 213.171 128.724 213.351 128.035 213.351C127.347 213.351 126.671 213.171 126.073 212.828L56.6456 172.77C55.439 172.072 54.5943 170.783 54.5943 169.388V89.2693C54.5943 87.8741 55.4268 86.5858 56.6343 85.8877L126.005 45.8285C126.602 45.4854 127.278 45.3049 127.966 45.3049C128.655 45.3049 129.331 45.4854 129.928 45.8285L199.36 85.8877C200.568 86.5858 201.417 87.8741 201.417 89.2693V169.388V169.389Z"
          fill="#4B32C3"/>
</svg>
