<svg width="256" height="256" viewBox="0 0 256 256" fill="none" xmlns="http://www.w3.org/2000/svg">
    <path d="M128 11C61.7346 11 8 64.7078 8 130.962C8 183.965 42.3837 228.931 90.0639 244.794C96.0609 245.904 98.2632 242.192 98.2632 239.023C98.2632 236.163 98.1512 226.712 98.1003 216.688C64.7152 223.945 57.6707 202.534 57.6707 202.534C52.2121 188.668 44.3469 184.982 44.3469 184.982C33.4598 177.536 45.1676 177.689 45.1676 177.689C57.218 178.535 63.5632 190.051 63.5632 190.051C74.2659 208.391 91.6356 203.088 98.4834 200.024C99.5601 192.27 102.671 186.978 106.102 183.983C79.4488 180.949 51.4291 170.662 51.4291 124.697C51.4291 111.6 56.1169 100.898 63.7938 92.4974C62.5477 89.4754 58.4406 77.2746 64.9561 60.7507C64.9561 60.7507 75.0329 57.5264 97.9648 73.0474C107.536 70.3886 117.802 69.0564 128 69.0112C138.199 69.0564 148.472 70.3886 158.062 73.0474C180.967 57.5264 191.03 60.7507 191.03 60.7507C197.561 77.2746 193.452 89.4754 192.206 92.4974C199.9 100.898 204.556 111.599 204.556 124.697C204.556 170.772 176.483 180.918 149.763 183.887C154.066 187.61 157.902 194.911 157.902 206.102C157.902 222.153 157.762 235.071 157.762 239.023C157.762 242.215 159.922 245.956 166.006 244.778C213.66 228.898 248 183.947 248 130.962C248 64.7078 194.273 11 128 11Z"
          fill="#f8f8f8"/>
    <path d="M52.944 181.889C52.6805 182.484 51.7413 182.663 50.8876 182.255C50.0171 181.863 49.5277 181.05 49.81 180.452C50.0688 179.838 51.0081 179.667 51.8768 180.079C52.7492 180.47 53.2461 181.29 52.944 181.889V181.889ZM58.8469 187.153C58.2747 187.684 57.1557 187.438 56.3962 186.599C55.6112 185.763 55.4644 184.645 56.0451 184.106C56.6352 183.576 57.7204 183.824 58.5071 184.661C59.2921 185.507 59.4445 186.618 58.846 187.154L58.8469 187.153ZM62.8966 193.89C62.1607 194.401 60.9579 193.922 60.2153 192.855C59.4803 191.789 59.4803 190.509 60.2313 189.997C60.9767 189.484 62.1607 189.945 62.9136 191.003C63.6477 192.088 63.6477 193.368 62.8957 193.891L62.8966 193.89ZM69.7444 201.692C69.0866 202.417 67.6861 202.223 66.6603 201.233C65.6118 200.266 65.3192 198.893 65.9789 198.168C66.6443 197.442 68.0532 197.646 69.0866 198.627C70.1284 199.592 70.4465 200.975 69.7454 201.692H69.7444ZM78.5949 204.327C78.306 205.266 76.9564 205.693 75.5974 205.294C74.2403 204.883 73.3518 203.782 73.6257 202.833C73.908 201.887 75.2633 201.442 76.6327 201.869C77.9879 202.278 78.8782 203.371 78.5959 204.327H78.5949ZM88.669 205.443C88.7028 206.433 87.5499 207.254 86.1232 207.271C84.6879 207.303 83.5275 206.502 83.5124 205.529C83.5124 204.53 84.639 203.717 86.0733 203.693C87.5001 203.665 88.669 204.46 88.669 205.443V205.443ZM98.5642 205.064C98.7354 206.03 97.7435 207.021 96.3271 207.285C94.9342 207.539 93.6448 206.943 93.4669 205.986C93.2937 204.997 94.3045 204.006 95.6946 203.749C97.1139 203.502 98.3835 204.083 98.5642 205.064"
          fill="#f8f8f8"/>
</svg>
