<svg width="256" height="256" viewBox="0 0 256 256" fill="none" xmlns="http://www.w3.org/2000/svg">
    <path d="M128 239L172.191 103.045H83.8083L127.999 239H128Z" fill="#E24329"/>
    <path d="M128 238.999L83.8083 103.044H21.8767L128 238.999Z" fill="#FC6D26"/>
    <path d="M21.8767 103.044L8.44787 144.36C7.85079 146.197 7.85071 148.176 8.44764 150.013C9.04457 151.849 10.2079 153.45 11.7708 154.585L128 239L21.8757 103.045L21.8767 103.044Z"
          fill="#FCA326"/>
    <path d="M21.8767 103.045H83.8083L57.1937 21.1598C55.824 16.9463 49.861 16.9472 48.4923 21.1598L21.8767 103.045Z"
          fill="#E24329"/>
    <path d="M128 238.999L172.191 103.044H234.124L127.999 238.999H128Z" fill="#FC6D26"/>
    <path d="M234.124 103.044L247.552 144.36C248.149 146.197 248.149 148.176 247.552 150.013C246.955 151.85 245.792 153.45 244.228 154.585L128 239L234.124 103.045V103.044Z"
          fill="#FCA326"/>
    <path d="M234.124 103.045H172.191L198.807 21.1598C200.176 16.9463 206.139 16.9472 207.508 21.1598L234.124 103.045Z"
          fill="#E24329"/>
</svg>
