<svg width="256" height="256" viewBox="0 0 256 256" fill="none" xmlns="http://www.w3.org/2000/svg">
    <path fill-rule="evenodd" clip-rule="evenodd"
          d="M142.603 15.492L216.809 58.7452C221.126 61.2618 224.709 64.8699 227.2 69.2092C229.69 73.5484 231 78.4667 231 83.4725V172.156C230.999 177.69 229.53 183.124 226.744 187.901C223.957 192.678 219.953 196.626 215.142 199.341L141.494 240.904C136.69 243.614 131.265 245.026 125.752 245C120.239 244.973 114.828 243.51 110.05 240.754L42.2267 201.629C36.9908 198.608 32.6416 194.258 29.6173 189.017C26.593 183.775 25.0004 177.828 25 171.773V87.6132C24.9995 81.5165 26.5545 75.5211 29.5174 70.1965C32.4804 64.8719 36.7526 60.3951 41.9283 57.1916L108.604 15.9405C113.7 12.7884 119.554 11.0819 125.542 11.0029C131.529 10.9239 137.426 12.4754 142.603 15.492Z"
          fill="#FF4088" stroke="#C9177E" stroke-width="6.90035"/>
    <path fill-rule="evenodd" clip-rule="evenodd"
          d="M72 201V54H102.584V107.545H153.324V54H184V201H153.324V136.722H102.584V201H72Z" fill="white"/>
</svg>
