<svg width="256" height="256" viewBox="0 0 256 256" fill="none" xmlns="http://www.w3.org/2000/svg">
    <path d="M97.7504 191.646C97.7504 191.646 88.9422 196.779 104.019 198.516C122.285 200.604 131.62 200.305 151.749 196.487C151.749 196.487 157.041 199.812 164.431 202.693C119.308 222.073 62.3081 201.57 97.7504 191.646V191.646ZM92.2364 166.355C92.2364 166.355 82.3571 173.684 97.4454 175.247C116.957 177.265 132.366 177.43 159.029 172.285C159.029 172.285 162.717 176.031 168.516 178.081C113.959 194.068 53.193 179.341 92.2364 166.355"
          fill="#5382A1"/>
    <path d="M138.72 123.454C149.839 136.282 135.799 147.826 135.799 147.826C135.799 147.826 164.03 133.221 151.065 114.931C138.956 97.8757 129.669 89.4003 179.941 60.1819C179.941 60.1819 101.031 79.9324 138.72 123.453"
          fill="#E76F00"/>
    <path d="M198.399 210.352C198.399 210.352 204.917 215.734 191.22 219.899C165.174 227.806 82.815 230.194 59.9357 220.214C51.7115 216.629 67.1348 211.653 71.986 210.608C77.0455 209.508 79.9373 209.714 79.9373 209.714C70.7907 203.256 20.8182 222.393 54.5539 227.872C146.555 242.825 222.263 221.14 198.399 210.352ZM101.986 140.151C101.986 140.151 60.0932 150.123 87.151 153.743C98.5754 155.276 121.35 154.93 142.564 153.148C159.901 151.683 177.31 148.567 177.31 148.567C177.31 148.567 171.197 151.19 166.774 154.217C124.232 165.43 42.0491 160.214 65.7086 148.744C85.7175 139.051 101.986 140.151 101.986 140.151H101.986ZM177.137 182.248C220.384 159.727 200.388 138.085 186.432 141.002C183.011 141.714 181.486 142.332 181.486 142.332C181.486 142.332 182.756 140.339 185.181 139.477C212.791 129.748 234.025 168.167 176.268 183.383C176.268 183.384 176.938 182.785 177.137 182.248"
          fill="#5382A1"/>
    <path d="M151.064 13.0007C151.064 13.0007 175.015 37.0115 128.349 73.9314C90.9276 103.548 119.815 120.435 128.333 139.729C106.49 119.978 90.4591 102.591 101.214 86.4097C116.998 62.655 160.728 51.1385 151.064 13"
          fill="#E76F00"/>
    <path d="M106.236 243.274C147.746 245.937 211.49 241.796 213 222.112C213 222.112 210.098 229.575 178.694 235.501C143.263 242.182 99.5657 241.402 73.6477 237.12C73.6484 237.12 78.9534 241.521 106.236 243.274"
          fill="#5382A1"/>
</svg>
