<svg width="256" height="256" viewBox="0 0 256 256" fill="none" xmlns="http://www.w3.org/2000/svg">
    <path d="M35.8803 251.95C33.2243 242.39 35.3463 223.28 40.1003 213.966C42.2243 209.798 42.2243 209.798 39.0623 203.962C30.9903 189.056 30.4423 167.404 37.6783 149.326C40.4183 142.478 40.4183 142.478 37.6843 137.408C26.4463 116.588 29.9883 91.6876 46.6883 74.0876C53.9283 66.4576 53.9283 66.4576 53.0403 61.0576C50.1643 43.5896 53.7863 19.8236 60.9263 9.31758C73.8143 -9.65042 93.4083 1.68958 98.6323 31.1376C99.3383 35.1176 100.04 38.5456 100.192 38.7516C100.344 38.9576 103.748 37.8156 107.752 36.2136C122.248 30.4136 135.758 30.6136 149.114 36.8216C152.914 38.5896 156.104 39.9056 156.198 39.7456C156.294 39.5856 156.934 36.0196 157.62 31.8176C162.5 1.99958 182.382 -9.84241 195.4 9.31758C202.546 19.8336 206.174 43.6776 203.274 61.0576C202.372 66.4576 202.372 66.4576 209.062 73.4776C225.824 91.0636 229.592 116.232 218.522 136.668C215.542 142.174 215.542 142.174 218.128 148.056C225.834 165.582 225.474 188.8 217.264 203.962C214.102 209.798 214.102 209.798 216.228 213.966C220.98 223.28 223.102 242.388 220.448 251.95C219.322 256 219.322 256 212.218 256C205.114 256 205.114 256 206.058 252.49C208.61 243.018 207.2 227.868 202.938 218.898C198.006 208.53 198.008 208.636 202.738 200.97C211.912 186.11 212.106 166.934 203.258 149.738C199.13 141.718 199.158 140.8 203.766 133.956C221.116 108.174 204.274 73.0856 173.804 71.5356C164.364 71.0556 164.364 71.0556 162.038 66.3976C149.154 40.5976 110.182 39.3976 95.1183 64.3356C91.2283 70.7776 91.2283 70.7776 82.1543 71.3696C50.8203 73.4196 32.1723 115.95 53.7303 136.2C57.1543 139.418 57.0263 142.048 53.0703 149.738C44.2203 166.934 44.4143 186.11 53.5863 200.97C58.3183 208.636 58.3183 208.53 53.3903 218.898C49.1243 227.868 47.7163 243.018 50.2683 252.49C51.2123 256 51.2123 256 44.1083 256C37.0043 256 37.0043 256 35.8783 251.95H35.8803ZM77.4603 57.6916C86.4683 56.7716 87.1023 55.7216 86.2163 43.2316C84.9483 25.3856 78.5463 11.2416 73.7143 15.6156C67.1223 21.5796 62.6023 61.4116 68.7843 59.0376C69.6783 58.6956 73.5843 58.0896 77.4603 57.6916ZM189.68 45.8396C189.6 24.4116 183.638 9.72358 177.78 16.5316C172.512 22.6556 167.52 49.1716 170.596 54.6756C171.638 56.5396 184.788 59.6176 188.644 58.8996C189.294 58.7796 189.706 53.5956 189.68 45.8396ZM112.426 167.104C73.3103 156.064 86.1163 107.802 128.162 107.802C166.062 107.802 182.4 148.118 150.996 164.152C142.554 168.464 122.638 169.988 112.426 167.104ZM146.174 156.4C169.634 145.66 156.494 116.68 128.162 116.68C95.8343 116.68 86.3123 151.15 116.536 158.774C124.08 160.676 139.534 159.438 146.174 156.4ZM124.382 143.94C124.382 140.812 123.696 139.15 121.682 137.4C116.646 133.02 118.908 131.008 128.702 131.154C136.688 131.27 138.954 134.108 133.894 137.654C132.05 138.948 131.402 140.448 131.402 143.43C131.402 147.184 131.164 147.48 127.892 147.796C124.478 148.124 124.382 148.02 124.382 143.94ZM71.9543 125.906C68.9223 122.874 68.5803 119.046 70.9343 114.494C75.4943 105.676 87.6623 108.466 87.6623 118.33C87.6623 126.81 77.6743 131.626 71.9543 125.906ZM171.82 125.4C167.694 121.274 167.484 115.598 171.314 111.768C175.762 107.32 182.34 108.594 185.394 114.494C190.696 124.754 179.872 133.45 171.82 125.4Z"
          fill="black"/>
</svg>
