<svg width="256" height="256" viewBox="0 0 256 256" fill="none" xmlns="http://www.w3.org/2000/svg">
    <path d="M185.143 53.7142H196.572C199.772 53.7142 202.286 56.2285 202.286 59.4285C202.286 62.6285 199.772 65.1428 196.572 65.1428H185.143C181.943 65.1428 179.429 62.6285 179.429 59.4285C179.429 56.2285 181.943 53.7142 185.143 53.7142Z"
          fill="#56B3B4"/>
    <path d="M13.7143 236.572H70.8571C74.0571 236.572 76.5713 239.086 76.5713 242.286C76.5713 245.486 74.0571 248.001 70.8571 248.001H13.7143C10.5143 248.001 8 245.486 8 242.286C8 239.086 10.5143 236.572 13.7143 236.572Z"
          fill="#EA5E5E"/>
    <path d="M150.857 145.143H185.143C188.343 145.143 190.857 147.658 190.857 150.857C190.857 154.057 188.343 156.571 185.143 156.571H150.857C147.657 156.571 145.143 154.057 145.143 150.857C145.143 147.658 147.657 145.143 150.857 145.143Z"
          fill="#BF85BF"/>
    <path d="M82.2861 145.143H128C131.2 145.143 133.715 147.658 133.715 150.857C133.715 154.057 131.2 156.571 128 156.571H82.2861C79.0861 156.571 76.5718 154.057 76.5718 150.857C76.5718 147.658 79.0861 145.143 82.2861 145.143Z"
          fill="#EA5E5E"/>
    <path d="M13.7143 145.143H59.4286C62.6286 145.143 65.1429 147.658 65.1429 150.857C65.1429 154.057 62.6286 156.571 59.4286 156.571H13.7143C10.5143 156.571 8 154.057 8 150.857C8 147.658 10.5143 145.143 13.7143 145.143Z"
          fill="#56B3B4"/>
    <path d="M13.7143 190.857H70.8571C74.0571 190.857 76.5713 193.371 76.5713 196.571C76.5713 199.771 74.0571 202.286 70.8571 202.286H13.7143C10.5143 202.286 8 199.771 8 196.571C8 193.371 10.5143 190.857 13.7143 190.857Z"
          fill="#BF85BF"/>
    <path d="M13.7143 99.4285H70.8571C74.0571 99.4285 76.5713 101.943 76.5713 105.143C76.5713 108.343 74.0571 110.857 70.8571 110.857H13.7143C10.5143 110.857 8 108.343 8 105.143C8 101.943 10.5143 99.4285 13.7143 99.4285Z"
          fill="#BF85BF"/>
    <path d="M70.8573 30.8574H185.143C188.343 30.8574 190.857 33.3717 190.857 36.5717C190.857 39.7718 188.343 42.2861 185.143 42.2861H70.8573C67.6573 42.2861 65.1431 39.7718 65.1431 36.5717C65.1431 33.3717 67.6573 30.8574 70.8573 30.8574Z"
          fill="#F7BA3E"/>
    <path d="M13.7143 30.8574H48C51.2 30.8574 53.7143 33.3717 53.7143 36.5717C53.7143 39.7718 51.2 42.2861 48 42.2861H13.7143C10.5143 42.2861 8 39.7718 8 36.5717C8 33.3717 10.5143 30.8574 13.7143 30.8574Z"
          fill="#EA5E5E"/>
    <path d="M59.4287 213.714H70.8573C74.0573 213.714 76.5716 216.229 76.5716 219.429C76.5716 222.629 74.0573 225.143 70.8573 225.143H59.4287C56.2287 225.143 53.7144 222.629 53.7144 219.429C53.7144 216.229 56.2287 213.714 59.4287 213.714Z"
          fill="#F7BA3E"/>
    <path d="M59.4287 76.5717H70.8573C74.0573 76.5717 76.5716 79.0859 76.5716 82.2858C76.5716 85.4857 74.0573 88 70.8573 88H59.4287C56.2287 88 53.7144 85.4857 53.7144 82.2858C53.7144 79.0859 56.2287 76.5717 59.4287 76.5717Z"
          fill="#56B3B4"/>
    <path d="M13.7143 213.714H36.5715C39.7715 213.714 42.2858 216.229 42.2858 219.429C42.2858 222.629 39.7715 225.143 36.5715 225.143H13.7143C10.5143 225.143 8 222.629 8 219.429C8 216.229 10.5143 213.714 13.7143 213.714Z"
          fill="#56B3B4"/>
    <path d="M13.7143 76.5717H36.5715C39.7715 76.5717 42.2858 79.0859 42.2858 82.2858C42.2858 85.4857 39.7715 88 36.5715 88H13.7143C10.5143 88 8 85.4857 8 82.2858C8 79.0859 10.5143 76.5717 13.7143 76.5717Z"
          fill="#F7BA3E"/>
    <path opacity="0.5"
          d="M162.286 213.714H173.714C176.914 213.714 179.428 216.229 179.428 219.429C179.428 222.629 176.914 225.143 173.714 225.143H162.286C159.086 225.143 156.572 222.629 156.572 219.429C156.572 216.229 159.086 213.714 162.286 213.714Z"
          fill="#D0D4D8"/>
    <path opacity="0.5"
          d="M93.7141 213.714H139.429C142.629 213.714 145.143 216.229 145.143 219.429C145.143 222.629 142.629 225.143 139.429 225.143H93.7141C90.5141 225.143 87.9998 222.629 87.9998 219.429C87.9998 216.229 90.5141 213.714 93.7141 213.714Z"
          fill="#D0D4D8"/>
    <path opacity="0.5"
          d="M196.571 213.714H242.286C245.486 213.714 248 216.229 248 219.429C248 222.629 245.486 225.143 242.286 225.143H196.571C193.371 225.143 190.857 222.629 190.857 219.429C190.857 216.229 193.371 213.714 196.571 213.714Z"
          fill="#D0D4D8"/>
    <path d="M105.143 122.286H196.571C199.771 122.286 202.285 124.8 202.285 128C202.285 131.2 199.771 133.714 196.571 133.714H105.143C101.943 133.714 99.4285 131.2 99.4285 128C99.4285 124.8 101.943 122.286 105.143 122.286Z"
          fill="#56B3B4"/>
    <path d="M47.9999 122.286H82.2856C85.4856 122.286 87.9999 124.8 87.9999 128C87.9999 131.2 85.4856 133.714 82.2856 133.714H47.9999C44.7999 133.714 42.2856 131.2 42.2856 128C42.2856 124.8 44.7999 122.286 47.9999 122.286Z"
          fill="#F7BA3E"/>
    <path d="M13.7143 122.286H25.1429C28.3429 122.286 30.8572 124.8 30.8572 128C30.8572 131.2 28.3429 133.714 25.1429 133.714H13.7143C10.5143 133.714 8 131.2 8 128C8 124.8 10.5143 122.286 13.7143 122.286Z"
          fill="#EA5E5E"/>
    <path d="M116.571 53.7142H162.286C165.486 53.7142 168 56.2285 168 59.4285C168 62.6285 165.486 65.1428 162.286 65.1428H116.571C113.371 65.1428 110.857 62.6285 110.857 59.4285C110.857 56.2285 113.371 53.7142 116.571 53.7142Z"
          fill="#BF85BF"/>
    <path d="M13.7143 53.7142H93.7142C96.9142 53.7142 99.4285 56.2285 99.4285 59.4285C99.4285 62.6285 96.9142 65.1428 93.7142 65.1428H13.7143C10.5143 65.1428 8 62.6285 8 59.4285C8 56.2285 10.5143 53.7142 13.7143 53.7142Z"
          fill="#56B3B4"/>
    <path d="M47.9999 168H150.857C154.057 168 156.572 170.514 156.572 173.714C156.572 176.914 154.057 179.428 150.857 179.428H47.9999C44.7999 179.428 42.2856 176.914 42.2856 173.714C42.2856 170.514 44.7999 168 47.9999 168Z"
          fill="#F7BA3E"/>
    <path d="M13.7143 168H25.1429C28.3429 168 30.8572 170.514 30.8572 173.714C30.8572 176.914 28.3429 179.428 25.1429 179.428H13.7143C10.5143 179.428 8 176.914 8 173.714C8 170.514 10.5143 168 13.7143 168Z"
          fill="#BF85BF"/>
    <path d="M150.857 76.5717H208C211.2 76.5717 213.714 79.0859 213.714 82.2858C213.714 85.4857 211.2 88 208 88H150.857C147.657 88 145.143 85.4857 145.143 82.2858C145.143 79.0859 147.657 76.5717 150.857 76.5717Z"
          fill="#EA5E5E"/>
    <path d="M150.857 99.4285H208C211.2 99.4285 213.714 101.943 213.714 105.143C213.714 108.343 211.2 110.857 208 110.857H150.857C147.657 110.857 145.143 108.343 145.143 105.143C145.143 101.943 147.657 99.4285 150.857 99.4285Z"
          fill="#F7BA3E"/>
    <path d="M13.7143 8H150.857C154.057 8 156.571 10.5143 156.571 13.7143C156.571 16.9143 154.057 19.4286 150.857 19.4286H13.7143C10.5143 19.4286 8 16.9143 8 13.7143C8 10.5143 10.5143 8 13.7143 8Z"
          fill="#56B3B4"/>
    <path opacity="0.5"
          d="M173.715 8H242.286C245.486 8 248 10.5143 248 13.7143C248 16.9143 245.486 19.4286 242.286 19.4286H173.715C170.515 19.4286 168 16.9143 168 13.7143C168 10.5143 170.515 8 173.715 8Z"
          fill="#D0D4D8"/>
    <path opacity="0.5"
          d="M173.715 168H196.572C199.772 168 202.286 170.514 202.286 173.714C202.286 176.914 199.772 179.428 196.572 179.428H173.715C170.515 179.428 168 176.914 168 173.714C168 170.514 170.515 168 173.715 168Z"
          fill="#D0D4D8"/>
    <path opacity="0.5"
          d="M219.429 168H242.286C245.486 168 248 170.514 248 173.714C248 176.914 245.486 179.428 242.286 179.428H219.429C216.229 179.428 213.714 176.914 213.714 173.714C213.714 170.514 216.229 168 219.429 168Z"
          fill="#D0D4D8"/>
    <path opacity="0.5"
          d="M208 145.143H242.286C245.486 145.143 248 147.658 248 150.857C248 154.057 245.486 156.571 242.286 156.571H208C204.8 156.571 202.286 154.057 202.286 150.857C202.286 147.658 204.8 145.143 208 145.143Z"
          fill="#D0D4D8"/>
    <path opacity="0.5"
          d="M208 30.8574H242.286C245.486 30.8574 248 33.3717 248 36.5717C248 39.7718 245.486 42.2861 242.286 42.2861H208C204.8 42.2861 202.286 39.7718 202.286 36.5717C202.286 33.3717 204.8 30.8574 208 30.8574Z"
          fill="#D0D4D8"/>
    <path opacity="0.5"
          d="M219.429 122.286H242.286C245.486 122.286 248 124.8 248 128C248 131.2 245.486 133.714 242.286 133.714H219.429C216.229 133.714 213.714 131.2 213.714 128C213.714 124.8 216.229 122.286 219.429 122.286Z"
          fill="#D0D4D8"/>
    <path opacity="0.5"
          d="M219.429 53.7142H242.286C245.486 53.7142 248 56.2285 248 59.4285C248 62.6285 245.486 65.1428 242.286 65.1428H219.429C216.229 65.1428 213.714 62.6285 213.714 59.4285C213.714 56.2285 216.229 53.7142 219.429 53.7142Z"
          fill="#D0D4D8"/>
    <path opacity="0.5"
          d="M230.857 76.5717H242.286C245.486 76.5717 248 79.0859 248 82.2858C248 85.4857 245.486 88 242.286 88H230.857C227.657 88 225.143 85.4857 225.143 82.2858C225.143 79.0859 227.657 76.5717 230.857 76.5717Z"
          fill="#D0D4D8"/>
    <path opacity="0.5"
          d="M230.857 99.4285H242.286C245.486 99.4285 248 101.943 248 105.143C248 108.343 245.486 110.857 242.286 110.857H230.857C227.657 110.857 225.143 108.343 225.143 105.143C225.143 101.943 227.657 99.4285 230.857 99.4285Z"
          fill="#D0D4D8"/>
    <path opacity="0.5"
          d="M139.429 190.857H242.286C245.486 190.857 248 193.371 248 196.571C248 199.771 245.486 202.286 242.286 202.286H139.429C136.229 202.286 133.715 199.771 133.715 196.571C133.715 193.371 136.229 190.857 139.429 190.857Z"
          fill="#D0D4D8"/>
    <path opacity="0.5"
          d="M93.714 190.857H116.571C119.771 190.857 122.285 193.371 122.285 196.571C122.285 199.771 119.771 202.286 116.571 202.286H93.714C90.514 202.286 87.9998 199.771 87.9998 196.571C87.9998 193.371 90.514 190.857 93.714 190.857Z"
          fill="#D0D4D8"/>
    <path opacity="0.5"
          d="M185.143 236.572H242.286C245.486 236.572 248 239.086 248 242.286C248 245.486 245.486 248.001 242.286 248.001H185.143C181.943 248.001 179.429 245.486 179.429 242.286C179.429 239.086 181.943 236.572 185.143 236.572Z"
          fill="#D0D4D8"/>
    <path opacity="0.5"
          d="M93.714 236.572H162.285C165.485 236.572 168 239.086 168 242.286C168 245.486 165.485 248.001 162.285 248.001H93.714C90.514 248.001 87.9998 245.486 87.9998 242.286C87.9998 239.086 90.514 236.572 93.714 236.572Z"
          fill="#D0D4D8"/>
    <path opacity="0.5"
          d="M93.7141 76.5717H128C131.2 76.5717 133.714 79.0859 133.714 82.2858C133.714 85.4857 131.2 88 128 88H93.7141C90.5141 88 87.9998 85.4857 87.9998 82.2858C87.9998 79.0859 90.5141 76.5717 93.7141 76.5717Z"
          fill="#D0D4D8"/>
    <path opacity="0.5"
          d="M93.7141 99.4285H128C131.2 99.4285 133.714 101.943 133.714 105.143C133.714 108.343 131.2 110.857 128 110.857H93.7141C90.5141 110.857 87.9998 108.343 87.9998 105.143C87.9998 101.943 90.5141 99.4285 93.7141 99.4285Z"
          fill="#D0D4D8"/>
</svg>
