<svg width="256" height="256" viewBox="0 0 256 256" fill="none" xmlns="http://www.w3.org/2000/svg">
    <path d="M128 150.393C140.351 150.393 150.364 140.368 150.364 128C150.364 115.633 140.351 105.607 128 105.607C115.649 105.607 105.636 115.633 105.636 128C105.636 140.368 115.649 150.393 128 150.393Z"
          fill="#61DAFB"/>
    <path d="M128 173.879C194.274 173.879 248 153.338 248 128C248 102.662 194.274 82.1213 128 82.1213C61.7258 82.1213 8 102.662 8 128C8 153.338 61.7258 173.879 128 173.879Z"
          stroke="#61DAFB" stroke-width="5"/>
    <path d="M88.3203 150.939C121.457 208.41 166.085 244.73 188 232.061C209.914 219.391 200.817 162.532 167.68 105.061C134.543 47.5895 89.9145 11.2703 68 23.9394C46.0855 36.6085 55.1832 93.4683 88.3203 150.939Z"
          stroke="#61DAFB" stroke-width="5"/>
    <path d="M88.3203 105.061C55.1832 162.532 46.0855 219.392 68 232.061C89.9145 244.73 134.543 208.411 167.68 150.939C200.817 93.4684 209.914 36.6086 188 23.9395C166.085 11.2704 121.457 47.5896 88.3203 105.061Z"
          stroke="#61DAFB" stroke-width="5"/>
</svg>
