<svg width="256" height="256" viewBox="0 0 256 256" fill="none" xmlns="http://www.w3.org/2000/svg">
    <path d="M128 56C95.999 56 75.9995 72.0003 67.9985 103.998C80 87.9977 94.0003 81.9998 109.999 85.9984C119.129 88.2798 125.653 94.9051 132.877 102.236C144.641 114.178 158.257 127.998 188.002 127.998C220 127.998 240.002 111.998 248 79.9975C236.002 95.9978 222.001 101.999 205.999 98.0001C196.873 95.7186 190.348 89.0934 183.125 81.7626C171.36 69.8209 157.741 56 128 56V56ZM67.9985 127.998C36.0005 127.998 15.998 143.999 8 175.999C19.9985 159.999 33.9988 153.998 50.0008 158C59.1272 160.284 65.6516 166.907 72.8753 174.234C84.6398 186.176 98.2589 200 128 200C160.001 200 180.001 184 188.002 151.999C176 167.999 162 174 146.001 169.999C136.871 167.72 130.347 161.092 123.123 153.764C111.359 141.822 97.7427 127.998 67.9985 127.998V127.998Z"
          fill="#06B6D4"/>
</svg>
