<?xml version="1.0" encoding="UTF-8" standalone="no"?>
<!DOCTYPE svg PUBLIC "-//W3C//DTD SVG 1.1//EN" "http://www.w3.org/Graphics/SVG/1.1/DTD/svg11.dtd">
<svg xmlns="http://www.w3.org/2000/svg" version="1.1" width="300" height="160"
     viewBox="-8.98947 -4.60149 129.979 64.9895">
 <g transform="matrix(0.981321,0,0,-0.934278,5.60422,53.63884)" id="root" style="font-size:5.64144993px;fill:#000000;stroke:#000000;stroke-width:0.11282901pt;font-family:'Courier New, Courier, Symbol, monospace'">
  <polyline points="1.0,0.15876 2.0,0.48216 3.0,0.24108 4.0,0.72912 5.0,0.36456  6.0,0.18228 7.0,0.55272 8.0,0.27636 9.0,0.83496 10.0,0.41748  11.0,1.25832 12.0,0.62916 13.0,1.89336 14.0,0.94668 15.0,2.84592  16.0,1.42296 17.0,0.71148 18.0,2.14032 19.0,1.07016 20.0,0.53508  21.0,1.61112 22.0,0.80556 23.0,2.42256 24.0,1.21128 25.0,0.60564  26.0,1.8228 27.0,0.9114 28.0,2.74008 29.0,1.37004 30.0,4.116  31.0,2.058 32.0,1.029 33.0,3.09288 34.0,1.54644 35.0,4.6452  36.0,2.3226 37.0,6.97368 38.0,3.48684 39.0,10.4664 40.0,5.2332  41.0,2.6166 42.0,7.85568 43.0,3.92784 44.0,1.96392 45.0,0.98196  46.0,2.95176 47.0,1.47588 48.0,4.43352 49.0,2.21676 50.0,6.65616  51.0,3.32808 52.0,1.66404 53.0,4.998 54.0,2.499 55.0,7.50288  56.0,3.75144 57.0,1.87572 58.0,5.63304 59.0,2.81652 60.0,8.45544  61.0,4.22772 62.0,12.689 63.0,6.34452 64.0,19.0394 65.0,9.51972  66.0,28.565 67.0,14.2825 68.0,42.8534 69.0,21.4267 70.0,10.7134  71.0,5.35668 72.0,16.0759 73.0,8.03796 74.0,24.1198 75.0,12.0599  76.0,36.1855 77.0,18.0928 78.0,54.2842 79.0,27.1421 80.0,13.571  81.0,6.78552 82.0,3.39276 83.0,10.1842 84.0,5.09208 85.0,2.54604  86.0,7.644 87.0,3.822 88.0,1.911 89.0,5.73888 90.0,2.86944  91.0,1.43472 92.0,0.71736 93.0,0.35868 94.0,1.08192 95.0,0.54096  96.0,0.27048 97.0,0.13524 98.0,0.4116 99.0,0.2058 100.0,0.62328  101.0,0.31164 102.0,0.9408 103.0,0.4704 104.0,0.2352 105.0,0.1176  106.0,0.0588 107.0,0.0294 108.0,0.09408 109.0,0.04704 110.0,0.02352  111.0,0.01176 112.0,0.00588" id="polyline7" style="fill:none;stroke:#0066ff" />
  <path d="M 17.812161,3.5985146 L 19.233542,3.5985146 L 19.233542,3.5257927 C 19.23354,3.4817192 19.242355,3.450133 19.259986,3.431034 C 19.277614,3.4119357 19.300385,3.4023864 19.328301,3.402386 C 19.354743,3.4023864 19.37678,3.4119357 19.394411,3.431034 C 19.412039,3.450133 19.420854,3.4817192 19.420856,3.5257927 L 19.420856,3.7836246 L 17.631458,3.7836246 L 17.631458,3.5103669 C 18.007554,3.1724681 18.373367,2.8286926 18.728897,2.4790393 C 18.894906,2.3159676 19.008764,2.1962338 19.070469,2.1198376 C 19.13217,2.0434447 19.174408,1.9762321 19.197181,1.9181998 C 19.219951,1.8601712 19.231336,1.8017734 19.231338,1.7430063 C 19.231336,1.5843427 19.167429,1.4440412 19.039617,1.3221012 C 18.911801,1.2001662 18.757543,1.1391975 18.576842,1.1391948 C 18.415237,1.1391975 18.271997,1.1854749 18.147122,1.2780274 C 18.022245,1.3705848 17.941443,1.4851767 17.904716,1.6218033 C 17.895901,1.6570645 17.884882,1.6798359 17.871661,1.6901177 C 17.85403,1.7048111 17.833463,1.7121567 17.809957,1.7121546 C 17.784981,1.7121567 17.764046,1.7037092 17.747152,1.6868122 C 17.730257,1.6699193 17.721809,1.6497188 17.72181,1.6262107 C 17.721809,1.5556948 17.760374,1.4602015 17.837503,1.3397308 C 17.914632,1.2192649 18.021144,1.1245062 18.157039,1.0554545 C 18.292932,0.98640835 18.432132,0.95188388 18.574638,0.95188105 C 18.80529,0.95188388 19.003622,1.0319513 19.169635,1.1920834 C 19.335644,1.3522208 19.41865,1.5336579 19.418652,1.7363952 C 19.41865,1.8216066 19.404693,1.8998376 19.376782,1.9710884 C 19.348866,2.0423428 19.301487,2.1202065 19.234644,2.2046797 C 19.167797,2.289156 19.047695,2.4166027 18.87434,2.5870202 C 18.439477,3.0160062 18.085418,3.3487633 17.812161,3.5852924 L 17.812161,3.5985146 z M 22.164452,2.1727261 L 22.164452,2.631094 C 22.164449,3.0292283 22.069691,3.3443559 21.880175,3.5764776 C 21.731792,3.7586495 21.544478,3.8497353 21.318234,3.8497354 C 21.209517,3.8497353 21.107046,3.8280657 21.010819,3.7847265 C 20.91459,3.7413873 20.832686,3.6807858 20.765107,3.6029219 C 20.722502,3.554441 20.675857,3.4765773 20.625173,3.3693306 C 20.574488,3.2620848 20.538127,3.1636534 20.51609,3.074036 C 20.4823,2.9476918 20.465405,2.8000447 20.465405,2.631094 L 20.465405,2.1727261 C 20.465405,1.7731254 20.560164,1.4572633 20.749682,1.2251388 C 20.898063,1.0429697 21.085376,0.95188388 21.311623,0.95188105 C 21.421806,0.95188388 21.524645,0.97355349 21.62014,1.0168899 C 21.715631,1.0602319 21.797168,1.1208334 21.86475,1.1986945 C 21.908821,1.2486474 21.955833,1.3272456 22.005786,1.4344895 C 22.055734,1.5417381 22.092462,1.6394349 22.11597,1.7275805 C 22.148289,1.8539274 22.164449,2.0023091 22.164452,2.1727261 L 22.164452,2.1727261 z M 21.979341,2.1969668 C 21.979339,2.0221423 21.954732,1.8594366 21.905518,1.7088491 C 21.8563,1.5582657 21.800841,1.4381647 21.739139,1.3485455 C 21.702409,1.2971285 21.654663,1.2530548 21.595899,1.216324 C 21.512157,1.1649072 21.418133,1.1391975 21.313827,1.1391948 C 21.106679,1.1391975 20.94434,1.2449746 20.826811,1.4565264 C 20.70928,1.6680829 20.650515,1.9148961 20.650516,2.1969668 L 20.650516,2.6046497 C 20.650515,2.7794769 20.675123,2.9425499 20.724339,3.0938692 C 20.773554,3.2451899 20.829748,3.3656582 20.892922,3.4552746 C 20.92818,3.5052252 20.975192,3.5485645 21.033958,3.5852924 C 21.117697,3.6381812 21.212456,3.6646254 21.318234,3.6646253 C 21.52391,3.6646254 21.685514,3.5584811 21.803046,3.3461919 C 21.920574,3.1339036 21.979339,2.8867231 21.979341,2.6046497 L 21.979341,2.1969668 z" transform="scale(1,-1)" id="text11" style="font-size:4.51316023px;text-anchor:middle;stroke:none;font-family:'Courier New, Courier, Symbol, monospace'" />
  <path d="M 38.875195,3.0101289 L 37.647739,3.0101289 L 37.647739,2.7963708 L 38.676863,1.0179918 L 39.062509,1.0179918 L 39.062509,2.8250188 L 39.216767,2.8250188 C 39.262308,2.8250198 39.294629,2.8334673 39.31373,2.8503613 C 39.332826,2.8672572 39.342376,2.8896614 39.342378,2.9175739 C 39.342376,2.944019 39.332826,2.9660559 39.31373,2.9836846 C 39.294629,3.0013149 39.262308,3.0101297 39.216767,3.0101289 L 39.062509,3.0101289 L 39.062509,3.5985146 L 39.216767,3.5985146 C 39.262308,3.5985147 39.294629,3.6069622 39.31373,3.623857 C 39.332826,3.6407521 39.342376,3.6631563 39.342378,3.6910696 C 39.342376,3.717514 39.332826,3.7395509 39.31373,3.7571804 C 39.294629,3.7748099 39.262308,3.7836246 39.216767,3.7836246 L 38.529216,3.7836246 C 38.483671,3.7836246 38.451351,3.7748099 38.432253,3.7571804 C 38.413153,3.7395509 38.403604,3.717514 38.403605,3.6910696 C 38.403604,3.6631563 38.413153,3.6407521 38.432253,3.623857 C 38.451351,3.6069622 38.483671,3.5985147 38.529216,3.5985146 L 38.875195,3.5985146 L 38.875195,3.0101289 z M 38.875195,2.8250188 L 38.875195,1.2053056 L 38.778233,1.2053056 L 37.841664,2.8250188 L 38.875195,2.8250188 z M 42.085974,2.1727261 L 42.085974,2.631094 C 42.085972,3.0292283 41.991213,3.3443559 41.801698,3.5764776 C 41.653314,3.7586495 41.466,3.8497353 41.239756,3.8497354 C 41.131039,3.8497353 41.028568,3.8280657 40.932341,3.7847265 C 40.836112,3.7413873 40.754209,3.6807858 40.68663,3.6029219 C 40.644024,3.554441 40.597379,3.4765773 40.546695,3.3693306 C 40.49601,3.2620848 40.459649,3.1636534 40.437612,3.074036 C 40.403822,2.9476918 40.386927,2.8000447 40.386928,2.631094 L 40.386928,2.1727261 C 40.386927,1.7731254 40.481686,1.4572633 40.671204,1.2251388 C 40.819585,1.0429697 41.006898,0.95188388 41.233145,0.95188105 C 41.343328,0.95188388 41.446167,0.97355349 41.541662,1.0168899 C 41.637153,1.0602319 41.71869,1.1208334 41.786272,1.1986945 C 41.830344,1.2486474 41.877356,1.3272456 41.927308,1.4344895 C 41.977256,1.5417381 42.013984,1.6394349 42.037493,1.7275805 C 42.069811,1.8539274 42.085972,2.0023091 42.085974,2.1727261 L 42.085974,2.1727261 z M 41.900864,2.1969668 C 41.900862,2.0221423 41.876254,1.8594366 41.82704,1.7088491 C 41.777822,1.5582657 41.722363,1.4381647 41.660661,1.3485455 C 41.623931,1.2971285 41.576185,1.2530548 41.517421,1.216324 C 41.433679,1.1649072 41.339655,1.1391975 41.235349,1.1391948 C 41.028201,1.1391975 40.865862,1.2449746 40.748333,1.4565264 C 40.630802,1.6680829 40.572037,1.9148961 40.572038,2.1969668 L 40.572038,2.6046497 C 40.572037,2.7794769 40.596645,2.9425499 40.645861,3.0938692 C 40.695076,3.2451899 40.75127,3.3656582 40.814444,3.4552746 C 40.849702,3.5052252 40.896714,3.5485645 40.95548,3.5852924 C 41.039219,3.6381812 41.133978,3.6646254 41.239756,3.6646253 C 41.445432,3.6646254 41.607036,3.5584811 41.724568,3.3461919 C 41.842097,3.1339036 41.900862,2.8867231 41.900864,2.6046497 L 41.900864,2.1969668 z" transform="scale(1,-1)" id="text15" style="font-size:4.51316023px;text-anchor:middle;stroke:none;font-family:'Courier New, Courier, Symbol, monospace'" />
  <path d="M 57.978293,2.6681596 C 58.092884,2.4992112 58.210781,2.3743355 58.331985,2.293532 C 58.453187,2.2127316 58.587979,2.1723307 58.736363,2.172329 C 58.933224,2.1723307 59.10805,2.2542344 59.260841,2.4180406 C 59.413628,2.5818496 59.490023,2.7842217 59.490025,3.0251576 C 59.490023,3.2455274 59.420239,3.4471649 59.280674,3.6300709 C 59.141105,3.8129774 58.94865,3.9044305 58.703307,3.9044305 C 58.543171,3.9044305 58.393687,3.8552147 58.254856,3.7567832 C 58.116023,3.6583518 58.00694,3.5070318 57.927608,3.3028227 C 57.829176,3.0486644 57.77996,2.7673268 57.779961,2.4588089 C 57.77996,2.2266883 57.826237,2.0107268 57.918793,1.8109236 C 57.98931,1.6566674 58.083335,1.5211405 58.200866,1.4043425 C 58.318395,1.2875494 58.455391,1.1920562 58.611854,1.1178626 C 58.768315,1.0436744 58.937631,1.006579 59.119805,1.0065762 C 59.24321,1.006579 59.346048,1.0315542 59.428322,1.0815017 C 59.463579,1.1035413 59.481208,1.1329239 59.48121,1.1696494 C 59.481208,1.1960963 59.473128,1.2177659 59.45697,1.2346583 C 59.440807,1.2515558 59.420239,1.2600033 59.395266,1.2600007 C 59.376166,1.2600033 59.353394,1.2526576 59.326952,1.2379638 C 59.266716,1.2085839 59.19179,1.1938926 59.102175,1.19389 C 58.815694,1.1938926 58.554557,1.3169319 58.318763,1.5630083 C 58.082967,1.8090892 57.96507,2.1018126 57.965071,2.4411794 C 57.96507,2.4896619 57.969477,2.5653219 57.978293,2.6681596 L 57.978293,2.6681596 z M 58.020163,2.9744727 C 58.075989,3.2418545 58.163769,3.4328409 58.283504,3.5474325 C 58.403237,3.6620246 58.54464,3.7193206 58.707715,3.7193204 C 58.872255,3.7193206 59.012924,3.6550463 59.129722,3.5264974 C 59.246515,3.3979492 59.304913,3.2308361 59.304915,3.0251576 C 59.304913,2.8327029 59.246148,2.6733027 59.12862,2.5469565 C 59.011088,2.420613 58.878132,2.3574406 58.729752,2.3574391 C 58.587245,2.3574406 58.449881,2.4184093 58.317661,2.5403455 C 58.229513,2.6211487 58.130347,2.7658576 58.020163,2.9744727 L 58.020163,2.9744727 z M 62.085974,2.2274213 L 62.085974,2.6857891 C 62.085972,3.0839235 61.991213,3.399051 61.801698,3.6311728 C 61.653314,3.8133446 61.466,3.9044305 61.239756,3.9044305 C 61.131039,3.9044305 61.028568,3.8827608 60.932341,3.8394216 C 60.836112,3.7960824 60.754209,3.7354809 60.68663,3.6576171 C 60.644024,3.6091361 60.597379,3.5312724 60.546695,3.4240258 C 60.49601,3.31678 60.459649,3.2183485 60.437612,3.1287311 C 60.403822,3.002387 60.386927,2.8547398 60.386928,2.6857891 L 60.386928,2.2274213 C 60.386927,1.8278206 60.481686,1.5119584 60.671204,1.2798339 C 60.819585,1.0976648 61.006898,1.006579 61.233145,1.0065762 C 61.343328,1.006579 61.446167,1.0282486 61.541662,1.0715851 C 61.637153,1.1149271 61.71869,1.1755285 61.786272,1.2533896 C 61.830344,1.3033425 61.877356,1.3819408 61.927308,1.4891846 C 61.977256,1.5964332 62.013984,1.6941301 62.037493,1.7822756 C 62.069811,1.9086225 62.085972,2.0570042 62.085974,2.2274213 L 62.085974,2.2274213 z M 61.900864,2.2516619 C 61.900862,2.0768375 61.876254,1.9141317 61.82704,1.7635442 C 61.777822,1.6129609 61.722363,1.4928598 61.660661,1.4032407 C 61.623931,1.3518237 61.576185,1.3077499 61.517421,1.2710192 C 61.433679,1.2196023 61.339655,1.1938926 61.235349,1.19389 C 61.028201,1.1938926 60.865862,1.2996697 60.748333,1.5112215 C 60.630802,1.722778 60.572037,1.9695912 60.572038,2.2516619 L 60.572038,2.6593448 C 60.572037,2.834172 60.596645,2.997245 60.645861,3.1485643 C 60.695076,3.299885 60.75127,3.4203534 60.814444,3.5099697 C 60.849702,3.5599204 60.896714,3.6032596 60.95548,3.6399875 C 61.039219,3.6928763 61.133978,3.7193206 61.239756,3.7193204 C 61.445432,3.7193206 61.607036,3.6131762 61.724568,3.400887 C 61.842097,3.1885987 61.900862,2.9414182 61.900864,2.6593448 L 61.900864,2.2516619 z" transform="scale(1,-1)" id="text19" style="font-size:4.51316023px;text-anchor:middle;stroke:none;font-family:'Courier New, Courier, Symbol, monospace'" />
  <path d="M 79.028172,2.3078063 C 79.182429,2.3827332 79.298857,2.4815319 79.377457,2.6042028 C 79.456053,2.726876 79.495352,2.8587301 79.495355,2.9997654 C 79.495352,3.218666 79.413081,3.4081833 79.248541,3.5683178 C 79.083997,3.7284528 78.884196,3.8085201 78.649137,3.8085202 C 78.414076,3.8085201 78.214274,3.7284528 78.049733,3.5683178 C 77.88519,3.4081833 77.802919,3.218666 77.80292,2.9997654 C 77.802919,2.8601992 77.842218,2.7290797 77.920817,2.6064065 C 77.999415,2.4837356 78.116577,2.3842023 78.272306,2.3078063 C 78.137145,2.229944 78.038714,2.1491421 77.977011,2.0654002 C 77.891801,1.9464027 77.849197,1.8149159 77.849197,1.6709394 C 77.849197,1.4682021 77.927427,1.2908051 78.08389,1.1387479 C 78.240351,0.98669598 78.428767,0.9106687 78.649137,0.91066587 C 78.870974,0.9106687 79.059757,0.98669598 79.215486,1.1387479 C 79.371211,1.2908051 79.449075,1.4682021 79.449077,1.6709394 C 79.449075,1.8149159 79.40647,1.9456681 79.321263,2.0631965 C 79.261027,2.1484075 79.16333,2.229944 79.028172,2.3078063 L 79.028172,2.3078063 z M 79.25956,1.6775505 C 79.259558,1.5188869 79.200425,1.3826255 79.082162,1.2687657 C 78.963896,1.1549109 78.81882,1.0979823 78.646933,1.0979796 C 78.476513,1.0979823 78.332172,1.1552782 78.213908,1.2698676 C 78.095642,1.3844619 78.03651,1.5196215 78.036511,1.6753468 C 78.03651,1.8193233 78.094908,1.9453008 78.211704,2.0532799 C 78.328499,2.1612624 78.473575,2.2152528 78.646933,2.2152512 C 78.821758,2.2152528 78.967569,2.1612624 79.084366,2.0532799 C 79.20116,1.9453008 79.259558,1.8200578 79.25956,1.6775505 L 79.25956,1.6775505 z M 79.310245,3.0041728 C 79.310243,2.8411005 79.24707,2.6993299 79.120727,2.5788603 C 78.99438,2.4583932 78.837184,2.398159 78.649137,2.3981576 C 78.461088,2.398159 78.303891,2.4583932 78.177547,2.5788603 C 78.051201,2.6993299 77.988029,2.840366 77.98803,3.0019691 C 77.988029,3.1694502 78.051569,3.3148937 78.178649,3.4383 C 78.305727,3.5617069 78.462557,3.6234102 78.649137,3.6234101 C 78.835715,3.6234102 78.992544,3.5617069 79.119625,3.4383 C 79.246703,3.3148937 79.310243,3.1701848 79.310245,3.0041728 L 79.310245,3.0041728 z M 82.203691,2.131511 L 82.203691,2.5898788 C 82.203689,2.9880132 82.108931,3.3031407 81.919415,3.5352625 C 81.771032,3.7174343 81.583718,3.8085201 81.357474,3.8085202 C 81.248757,3.8085201 81.146286,3.7868505 81.050059,3.7435113 C 80.95383,3.7001721 80.871926,3.6395706 80.804347,3.5617068 C 80.761742,3.5132258 80.715097,3.4353621 80.664413,3.3281155 C 80.613727,3.2208697 80.577367,3.1224382 80.55533,3.0328208 C 80.52154,2.9064767 80.504645,2.7588295 80.504645,2.5898788 L 80.504645,2.131511 C 80.504645,1.7319103 80.599403,1.4160481 80.788922,1.1839236 C 80.937302,1.0017545 81.124616,0.9106687 81.350863,0.91066587 C 81.461046,0.9106687 81.563885,0.93233831 81.65938,0.97567477 C 81.754871,1.0190168 81.836408,1.0796182 81.903989,1.1574793 C 81.948061,1.2074322 81.995073,1.2860304 82.045026,1.3932743 C 82.094974,1.5005229 82.131702,1.5982198 82.15521,1.6863653 C 82.187529,1.8127122 82.203689,1.9610939 82.203691,2.131511 L 82.203691,2.131511 z M 82.018581,2.1557516 C 82.018579,1.9809271 81.993971,1.8182214 81.944758,1.6676339 C 81.89554,1.5170505 81.840081,1.3969495 81.778379,1.3073303 C 81.741649,1.2559134 81.693902,1.2118396 81.635139,1.1751088 C 81.551397,1.123692 81.457373,1.0979823 81.353067,1.0979796 C 81.145918,1.0979823 80.98358,1.2037594 80.866051,1.4153112 C 80.74852,1.6268677 80.689755,1.8736809 80.689755,2.1557516 L 80.689755,2.5634345 C 80.689755,2.7382617 80.714363,2.9013347 80.763579,3.052654 C 80.812794,3.2039747 80.868988,3.3244431 80.932161,3.4140594 C 80.96742,3.4640101 81.014432,3.5073493 81.073198,3.5440772 C 81.156937,3.596966 81.251695,3.6234102 81.357474,3.6234101 C 81.56315,3.6234102 81.724754,3.5172659 81.842286,3.3049767 C 81.959814,3.0926884 82.018579,2.8455079 82.018581,2.5634345 L 82.018581,2.1557516 z" transform="scale(1,-1)" id="text23" style="font-size:4.51316023px;text-anchor:middle;stroke:none;font-family:'Courier New, Courier, Symbol, monospace'" />
  <path d="M 97.327561,1.0011365 L 97.327561,3.619122 L 97.962224,3.619122 C 98.006296,3.6191222 98.037882,3.6275697 98.056983,3.6444645 C 98.076079,3.6613596 98.085629,3.6837638 98.085631,3.7116771 C 98.085629,3.7381214 98.076079,3.7601583 98.056983,3.7777878 C 98.037882,3.7954174 98.006296,3.8042321 97.962224,3.8042321 L 96.507788,3.8042321 C 96.463713,3.8042321 96.432127,3.7954174 96.413029,3.7777878 C 96.39393,3.7601583 96.384381,3.7381214 96.384381,3.7116771 C 96.384381,3.6837638 96.39393,3.6613596 96.413029,3.6444645 C 96.432127,3.6275697 96.463713,3.6191222 96.507788,3.619122 L 97.142451,3.619122 L 97.142451,1.2567647 L 96.53864,1.4462822 C 96.509256,1.4550993 96.487954,1.4595067 96.474732,1.4595043 C 96.452695,1.4595067 96.432494,1.4503247 96.414131,1.4319582 C 96.395766,1.4135965 96.386584,1.3919269 96.386585,1.3669493 C 96.386584,1.3449148 96.39393,1.3243471 96.408622,1.3052459 C 96.420374,1.2934954 96.444615,1.2810079 96.481344,1.2677832 L 97.327561,1.0011365 z M 100.79176,2.1933336 L 100.79176,2.6517015 C 100.79176,3.0498358 100.697,3.3649634 100.50749,3.5970851 C 100.3591,3.779257 100.17179,3.8703428 99.945547,3.8703429 C 99.83683,3.8703428 99.734358,3.8486732 99.638132,3.805334 C 99.541903,3.7619947 99.459999,3.7013933 99.39242,3.6235294 C 99.349815,3.5750484 99.30317,3.4971847 99.252486,3.3899381 C 99.2018,3.2826923 99.165439,3.1842609 99.143403,3.0946435 C 99.109612,2.9682993 99.092717,2.8206521 99.092718,2.6517015 L 99.092718,2.1933336 C 99.092717,1.7937329 99.187476,1.4778708 99.376994,1.2457463 C 99.525375,1.0635772 99.712689,0.97249135 99.938935,0.97248852 C 100.04912,0.97249135 100.15196,0.99416096 100.24745,1.0374974 C 100.34294,1.0808394 100.42448,1.1414409 100.49206,1.219302 C 100.53613,1.2692548 100.58315,1.3478531 100.6331,1.455097 C 100.68305,1.5623455 100.71977,1.6600424 100.74328,1.7481879 C 100.7756,1.8745348 100.79176,2.0229166 100.79176,2.1933336 L 100.79176,2.1933336 z M 100.60665,2.2175742 C 100.60665,2.0427498 100.58204,1.8800441 100.53283,1.7294566 C 100.48361,1.5788732 100.42815,1.4587721 100.36645,1.369153 C 100.32972,1.317736 100.28198,1.2736622 100.22321,1.2369315 C 100.13947,1.1855147 100.04545,1.1598049 99.941139,1.1598023 C 99.733991,1.1598049 99.571653,1.265582 99.454123,1.4771339 C 99.336592,1.6886904 99.277827,1.9355036 99.277828,2.2175742 L 99.277828,2.6252572 C 99.277827,2.8000844 99.302435,2.9631574 99.351652,3.1144767 C 99.400867,3.2657974 99.457061,3.3862657 99.520234,3.4758821 C 99.555492,3.5258327 99.602504,3.5691719 99.66127,3.6058999 C 99.745009,3.6587886 99.839768,3.6852329 99.945547,3.6852328 C 100.15122,3.6852329 100.31283,3.5790885 100.43036,3.3667994 C 100.54789,3.1545111 100.60665,2.9073306 100.60665,2.6252572 L 100.60665,2.2175742 z M 103.4979,2.1933336 L 103.4979,2.6517015 C 103.4979,3.0498358 103.40314,3.3649634 103.21362,3.5970851 C 103.06524,3.779257 102.87792,3.8703428 102.65168,3.8703429 C 102.54296,3.8703428 102.44049,3.8486732 102.34426,3.805334 C 102.24804,3.7619947 102.16613,3.7013933 102.09855,3.6235294 C 102.05595,3.5750484 102.0093,3.4971847 101.95862,3.3899381 C 101.90793,3.2826923 101.87157,3.1842609 101.84954,3.0946435 C 101.81575,2.9682993 101.79885,2.8206521 101.79885,2.6517015 L 101.79885,2.1933336 C 101.79885,1.7937329 101.89361,1.4778708 102.08313,1.2457463 C 102.23151,1.0635772 102.41882,0.97249135 102.64507,0.97248852 C 102.75525,0.97249135 102.85809,0.99416096 102.95359,1.0374974 C 103.04908,1.0808394 103.13061,1.1414409 103.1982,1.219302 C 103.24227,1.2692548 103.28928,1.3478531 103.33923,1.455097 C 103.38918,1.5623455 103.42591,1.6600424 103.44942,1.7481879 C 103.48173,1.8745348 103.4979,2.0229166 103.4979,2.1933336 L 103.4979,2.1933336 z M 103.31279,2.2175742 C 103.31279,2.0427498 103.28818,1.8800441 103.23896,1.7294566 C 103.18975,1.5788732 103.13429,1.4587721 103.07258,1.369153 C 103.03585,1.317736 102.98811,1.2736622 102.92934,1.2369315 C 102.8456,1.1855147 102.75158,1.1598049 102.64727,1.1598023 C 102.44012,1.1598049 102.27779,1.265582 102.16026,1.4771339 C 102.04273,1.6886904 101.98396,1.9355036 101.98396,2.2175742 L 101.98396,2.6252572 C 101.98396,2.8000844 102.00857,2.9631574 102.05778,3.1144767 C 102.107,3.2657974 102.16319,3.3862657 102.22637,3.4758821 C 102.26163,3.5258327 102.30864,3.5691719 102.3674,3.6058999 C 102.45114,3.6587886 102.5459,3.6852329 102.65168,3.6852328 C 102.85736,3.6852329 103.01896,3.5790885 103.13649,3.3667994 C 103.25402,3.1545111 103.31279,2.9073306 103.31279,2.6252572 L 103.31279,2.2175742 z" transform="scale(1,-1)" id="text27" style="font-size:4.51316023px;text-anchor:middle;stroke:none;font-family:'Courier New, Courier, Symbol, monospace'" />
  <path d="M -10.266999,-0.18511009 L -8.8456178,-0.18511009 L -8.8456178,-0.25783191 C -8.8456197,-0.30190544 -8.836805,-0.33349165 -8.8191735,-0.35259064 C -8.8015459,-0.37168893 -8.7787745,-0.38123825 -8.750859,-0.38123863 C -8.7244168,-0.38123825 -8.7023799,-0.37168893 -8.6847483,-0.35259064 C -8.6671209,-0.33349165 -8.6583061,-0.30190544 -8.658304,-0.25783191 L -8.658304,0 L -10.447701,0 L -10.447701,-0.27325775 C -10.071606,-0.6111565 -9.7057931,-0.95493204 -9.3502631,-1.3045854 C -9.1842533,-1.4676571 -9.070396,-1.5873909 -9.0086909,-1.6637871 C -8.9469894,-1.74018 -8.9047521,-1.8073925 -8.8819787,-1.8654249 C -8.8592091,-1.9234535 -8.8478234,-1.9818513 -8.8478214,-2.0406183 C -8.8478234,-2.1992819 -8.9117304,-2.3395835 -9.0395426,-2.4615234 C -9.1673584,-2.5834584 -9.3216166,-2.6444272 -9.5023178,-2.6444298 C -9.663923,-2.6444272 -9.8071628,-2.5981497 -9.9320377,-2.5055973 C -10.056914,-2.4130398 -10.137716,-2.298448 -10.174444,-2.1618214 C -10.183259,-2.1265602 -10.194278,-2.1037887 -10.207499,-2.0935069 C -10.225129,-2.0788136 -10.245697,-2.071468 -10.269202,-2.07147 C -10.294178,-2.071468 -10.315113,-2.0799154 -10.332008,-2.0968125 C -10.348903,-2.1137053 -10.357351,-2.1339058 -10.35735,-2.157414 C -10.357351,-2.2279299 -10.318786,-2.3234231 -10.241656,-2.4438939 C -10.164528,-2.5643598 -10.058016,-2.6591184 -9.9221211,-2.7281701 C -9.7862278,-2.7972163 -9.6470281,-2.8317408 -9.5045215,-2.8317436 C -9.27387,-2.8317408 -9.075538,-2.7516734 -8.9095248,-2.5915412 C -8.7435155,-2.4314039 -8.6605098,-2.2499668 -8.6605077,-2.0472294 C -8.6605098,-1.9620181 -8.6744665,-1.8837871 -8.7023778,-1.8125363 C -8.7302933,-1.7412818 -8.7776726,-1.6634182 -8.8445159,-1.578945 C -8.9113631,-1.4944686 -9.0314642,-1.3670219 -9.2048195,-1.1966045 C -9.6396824,-0.76761844 -9.9937419,-0.43486136 -10.266999,-0.19833224 L -10.266999,-0.18511009 z M -5.9147081,-1.6108985 L -5.9147081,-1.1525307 C -5.9147103,-0.75439631 -6.0094689,-0.43926874 -6.1989843,-0.207147 C -6.347368,-0.024975146 -6.5346816,0.066110679 -6.7609256,0.066110746 C -6.8696423,0.066110679 -6.9721139,0.044441068 -7.0683406,0.0011018458 C -7.1645694,-0.042237379 -7.2464732,-0.10283883 -7.3140522,-0.1807027 C -7.3566577,-0.22918369 -7.4033024,-0.30704738 -7.4539866,-0.41429401 C -7.5046721,-0.5215398 -7.541033,-0.61997126 -7.5630693,-0.70958867 C -7.5968598,-0.83593281 -7.6137548,-0.98358 -7.6137543,-1.1525307 L -7.6137543,-1.6108985 C -7.6137548,-2.0104992 -7.5189961,-2.3263614 -7.329478,-2.5584859 C -7.1810971,-2.7406549 -6.9937835,-2.8317408 -6.7675367,-2.8317436 C -6.6573536,-2.8317408 -6.5545148,-2.8100712 -6.4590199,-2.7667347 C -6.3635284,-2.7233927 -6.2819918,-2.6627913 -6.2144101,-2.5849302 C -6.1703383,-2.5349773 -6.1233262,-2.456379 -6.0733739,-2.3491352 C -6.0234256,-2.2418866 -5.9866975,-2.1441897 -5.9631893,-2.0560442 C -5.9308707,-1.9296973 -5.9147103,-1.7813155 -5.9147081,-1.6108985 L -5.9147081,-1.6108985 z M -6.0998182,-1.5866579 C -6.0998202,-1.7614823 -6.1244281,-1.9241881 -6.1736418,-2.0747756 C -6.2228595,-2.2253589 -6.278319,-2.34546 -6.3400206,-2.4350791 C -6.3767505,-2.4864961 -6.4244971,-2.5305699 -6.4832605,-2.5673006 C -6.5670023,-2.6187175 -6.6610264,-2.6444272 -6.765333,-2.6444298 C -6.9724812,-2.6444272 -7.1348196,-2.5386501 -7.2523488,-2.3270982 C -7.3698798,-2.1155417 -7.4286449,-1.8687285 -7.4286442,-1.5866579 L -7.4286442,-1.178975 C -7.4286449,-1.0041478 -7.404037,-0.84107475 -7.3548205,-0.68975545 C -7.3056055,-0.53843476 -7.2494115,-0.41796641 -7.1862381,-0.32835004 C -7.15098,-0.27839942 -7.103968,-0.23506019 -7.0452018,-0.19833224 C -6.9614627,-0.14544349 -6.8667041,-0.11899922 -6.7609256,-0.11899934 C -6.5552493,-0.11899922 -6.3936454,-0.22514359 -6.2761135,-0.43743277 C -6.1585852,-0.64972107 -6.0998202,-0.89690155 -6.0998182,-1.178975 L -6.0998182,-1.5866579 z M -3.208575,-1.6108985 L -3.208575,-1.1525307 C -3.2085772,-0.75439631 -3.3033358,-0.43926874 -3.4928512,-0.207147 C -3.6412348,-0.024975146 -3.8285484,0.066110679 -4.0547925,0.066110746 C -4.1635092,0.066110679 -4.2659808,0.044441068 -4.3622075,0.0011018458 C -4.4584363,-0.042237379 -4.5403401,-0.10283883 -4.6079191,-0.1807027 C -4.6505245,-0.22918369 -4.6971693,-0.30704738 -4.7478535,-0.41429401 C -4.798539,-0.5215398 -4.8348999,-0.61997126 -4.8569362,-0.70958867 C -4.8907267,-0.83593281 -4.9076216,-0.98358 -4.9076211,-1.1525307 L -4.9076211,-1.6108985 C -4.9076216,-2.0104992 -4.812863,-2.3263614 -4.6233449,-2.5584859 C -4.474964,-2.7406549 -4.2876504,-2.8317408 -4.0614036,-2.8317436 C -3.9512205,-2.8317408 -3.8483816,-2.8100712 -3.7528868,-2.7667347 C -3.6573952,-2.7233927 -3.5758587,-2.6627913 -3.508277,-2.5849302 C -3.4642051,-2.5349773 -3.4171931,-2.456379 -3.3672408,-2.3491352 C -3.3172925,-2.2418866 -3.2805644,-2.1441897 -3.2570562,-2.0560442 C -3.2247376,-1.9296973 -3.2085772,-1.7813155 -3.208575,-1.6108985 L -3.208575,-1.6108985 z M -3.3936851,-1.5866579 C -3.3936871,-1.7614823 -3.4182949,-1.9241881 -3.4675087,-2.0747756 C -3.5167264,-2.2253589 -3.5721859,-2.34546 -3.6338874,-2.4350791 C -3.6706174,-2.4864961 -3.718364,-2.5305699 -3.7771274,-2.5673006 C -3.8608692,-2.6187175 -3.9548933,-2.6444272 -4.0591999,-2.6444298 C -4.266348,-2.6444272 -4.4286865,-2.5386501 -4.5462157,-2.3270982 C -4.6637467,-2.1155417 -4.7225117,-1.8687285 -4.722511,-1.5866579 L -4.722511,-1.178975 C -4.7225117,-1.0041478 -4.6979039,-0.84107475 -4.6486874,-0.68975545 C -4.5994724,-0.53843476 -4.5432783,-0.41796641 -4.480105,-0.32835004 C -4.4448469,-0.27839942 -4.3978348,-0.23506019 -4.3390687,-0.19833224 C -4.2553296,-0.14544349 -4.160571,-0.11899922 -4.0547925,-0.11899934 C -3.8491162,-0.11899922 -3.6875123,-0.22514359 -3.5699804,-0.43743277 C -3.4524521,-0.64972107 -3.3936871,-0.89690155 -3.3936851,-1.178975 L -3.3936851,-1.5866579 z M -0.5024416,-1.6108985 L -0.5024416,-1.1525307 C -0.5024438,-0.75439631 -0.59720244,-0.43926874 -0.7867178,-0.207147 C -0.93510147,-0.024975146 -1.1224151,0.066110679 -1.3486591,0.066110746 C -1.4573758,0.066110679 -1.5598474,0.044441068 -1.6560741,0.0011018458 C -1.7523029,-0.042237379 -1.8342067,-0.10283883 -1.9017857,-0.1807027 C -1.9443912,-0.22918369 -1.9910359,-0.30704738 -2.0417201,-0.41429401 C -2.0924056,-0.5215398 -2.1287665,-0.61997126 -2.1508029,-0.70958867 C -2.1845933,-0.83593281 -2.2014883,-0.98358 -2.2014878,-1.1525307 L -2.2014878,-1.6108985 C -2.2014883,-2.0104992 -2.1067296,-2.3263614 -1.9172116,-2.5584859 C -1.7688306,-2.7406549 -1.581517,-2.8317408 -1.3552702,-2.8317436 C -1.2450871,-2.8317408 -1.1422483,-2.8100712 -1.0467534,-2.7667347 C -0.95126186,-2.7233927 -0.86972535,-2.6627913 -0.80214364,-2.5849302 C -0.75807176,-2.5349773 -0.71105972,-2.456379 -0.66110739,-2.3491352 C -0.61115914,-2.2418866 -0.57443099,-2.1441897 -0.55092281,-2.0560442 C -0.51860419,-1.9296973 -0.5024438,-1.7813155 -0.5024416,-1.6108985 L -0.5024416,-1.6108985 z M -0.68755169,-1.5866579 C -0.6875537,-1.7614823 -0.71216157,-1.9241881 -0.76137535,-2.0747756 C -0.81059302,-2.2253589 -0.86605254,-2.34546 -0.92775406,-2.4350791 C -0.96448399,-2.4864961 -1.0122306,-2.5305699 -1.070994,-2.5673006 C -1.1547358,-2.6187175 -1.2487599,-2.6444272 -1.3530665,-2.6444298 C -1.5602147,-2.6444272 -1.7225531,-2.5386501 -1.8400823,-2.3270982 C -1.9576133,-2.1155417 -2.0163784,-1.8687285 -2.0163777,-1.5866579 L -2.0163777,-1.178975 C -2.0163784,-1.0041478 -1.9917705,-0.84107475 -1.942554,-0.68975545 C -1.893339,-0.53843476 -1.837145,-0.41796641 -1.7739716,-0.32835004 C -1.7387135,-0.27839942 -1.6917015,-0.23506019 -1.6329353,-0.19833224 C -1.5491962,-0.14544349 -1.4544376,-0.11899922 -1.3486591,-0.11899934 C -1.1429828,-0.11899922 -0.98137895,-0.22514359 -0.86384701,-0.43743277 C -0.74631875,-0.64972107 -0.6875537,-0.89690155 -0.68755169,-1.178975 L -0.68755169,-1.5866579 z" transform="matrix(1,0,0,-1,-1.47,11.76)" id="text67" style="font-size:4.51316023px;text-anchor:end;stroke:none;font-family:'Courier New, Courier, Symbol, monospace'" />
  <path d="M -9.1254866,-0.77349572 L -10.352943,-0.77349572 L -10.352943,-0.9872538 L -9.3238188,-2.7656329 L -8.9381728,-2.7656329 L -8.9381728,-0.95860581 L -8.7839144,-0.95860581 C -8.7383735,-0.95860485 -8.7060527,-0.95015738 -8.686952,-0.93326336 C -8.6678555,-0.91636747 -8.6583061,-0.8939633 -8.658304,-0.86605077 C -8.6583061,-0.83960563 -8.6678555,-0.81756874 -8.686952,-0.79994002 C -8.7060527,-0.78230971 -8.7383735,-0.77349495 -8.7839144,-0.77349572 L -8.9381728,-0.77349572 L -8.9381728,-0.18511009 L -8.7839144,-0.18511009 C -8.7383735,-0.1851099 -8.7060527,-0.17666243 -8.686952,-0.15976764 C -8.6678555,-0.14287252 -8.6583061,-0.12046835 -8.658304,-0.092555044 C -8.6583061,-0.066110679 -8.6678555,-0.044073786 -8.686952,-0.026444298 C -8.7060527,-0.0088147573 -8.7383735,0 -8.7839144,0 L -9.4714661,0 C -9.5170104,0 -9.5493312,-0.0088147573 -9.5684286,-0.026444298 C -9.5875285,-0.044073786 -9.5970778,-0.066110679 -9.5970766,-0.092555044 C -9.5970778,-0.12046835 -9.5875285,-0.14287252 -9.5684286,-0.15976764 C -9.5493312,-0.17666243 -9.5170104,-0.1851099 -9.4714661,-0.18511009 L -9.1254866,-0.18511009 L -9.1254866,-0.77349572 z M -9.1254866,-0.95860581 L -9.1254866,-2.5783191 L -9.222449,-2.5783191 L -10.159018,-0.95860581 L -9.1254866,-0.95860581 z M -5.9147081,-1.6108985 L -5.9147081,-1.1525307 C -5.9147103,-0.75439631 -6.0094689,-0.43926874 -6.1989843,-0.207147 C -6.347368,-0.024975146 -6.5346816,0.066110679 -6.7609256,0.066110746 C -6.8696423,0.066110679 -6.9721139,0.044441068 -7.0683406,0.0011018458 C -7.1645694,-0.042237379 -7.2464732,-0.10283883 -7.3140522,-0.1807027 C -7.3566577,-0.22918369 -7.4033024,-0.30704738 -7.4539866,-0.41429401 C -7.5046721,-0.5215398 -7.541033,-0.61997126 -7.5630693,-0.70958867 C -7.5968598,-0.83593281 -7.6137548,-0.98358 -7.6137543,-1.1525307 L -7.6137543,-1.6108985 C -7.6137548,-2.0104992 -7.5189961,-2.3263614 -7.329478,-2.5584859 C -7.1810971,-2.7406549 -6.9937835,-2.8317408 -6.7675367,-2.8317436 C -6.6573536,-2.8317408 -6.5545148,-2.8100712 -6.4590199,-2.7667347 C -6.3635284,-2.7233927 -6.2819918,-2.6627913 -6.2144101,-2.5849302 C -6.1703383,-2.5349773 -6.1233262,-2.456379 -6.0733739,-2.3491352 C -6.0234256,-2.2418866 -5.9866975,-2.1441897 -5.9631893,-2.0560442 C -5.9308707,-1.9296973 -5.9147103,-1.7813155 -5.9147081,-1.6108985 L -5.9147081,-1.6108985 z M -6.0998182,-1.5866579 C -6.0998202,-1.7614823 -6.1244281,-1.9241881 -6.1736418,-2.0747756 C -6.2228595,-2.2253589 -6.278319,-2.34546 -6.3400206,-2.4350791 C -6.3767505,-2.4864961 -6.4244971,-2.5305699 -6.4832605,-2.5673006 C -6.5670023,-2.6187175 -6.6610264,-2.6444272 -6.765333,-2.6444298 C -6.9724812,-2.6444272 -7.1348196,-2.5386501 -7.2523488,-2.3270982 C -7.3698798,-2.1155417 -7.4286449,-1.8687285 -7.4286442,-1.5866579 L -7.4286442,-1.178975 C -7.4286449,-1.0041478 -7.404037,-0.84107475 -7.3548205,-0.68975545 C -7.3056055,-0.53843476 -7.2494115,-0.41796641 -7.1862381,-0.32835004 C -7.15098,-0.27839942 -7.103968,-0.23506019 -7.0452018,-0.19833224 C -6.9614627,-0.14544349 -6.8667041,-0.11899922 -6.7609256,-0.11899934 C -6.5552493,-0.11899922 -6.3936454,-0.22514359 -6.2761135,-0.43743277 C -6.1585852,-0.64972107 -6.0998202,-0.89690155 -6.0998182,-1.178975 L -6.0998182,-1.5866579 z M -3.208575,-1.6108985 L -3.208575,-1.1525307 C -3.2085772,-0.75439631 -3.3033358,-0.43926874 -3.4928512,-0.207147 C -3.6412348,-0.024975146 -3.8285484,0.066110679 -4.0547925,0.066110746 C -4.1635092,0.066110679 -4.2659808,0.044441068 -4.3622075,0.0011018458 C -4.4584363,-0.042237379 -4.5403401,-0.10283883 -4.6079191,-0.1807027 C -4.6505245,-0.22918369 -4.6971693,-0.30704738 -4.7478535,-0.41429401 C -4.798539,-0.5215398 -4.8348999,-0.61997126 -4.8569362,-0.70958867 C -4.8907267,-0.83593281 -4.9076216,-0.98358 -4.9076211,-1.1525307 L -4.9076211,-1.6108985 C -4.9076216,-2.0104992 -4.812863,-2.3263614 -4.6233449,-2.5584859 C -4.474964,-2.7406549 -4.2876504,-2.8317408 -4.0614036,-2.8317436 C -3.9512205,-2.8317408 -3.8483816,-2.8100712 -3.7528868,-2.7667347 C -3.6573952,-2.7233927 -3.5758587,-2.6627913 -3.508277,-2.5849302 C -3.4642051,-2.5349773 -3.4171931,-2.456379 -3.3672408,-2.3491352 C -3.3172925,-2.2418866 -3.2805644,-2.1441897 -3.2570562,-2.0560442 C -3.2247376,-1.9296973 -3.2085772,-1.7813155 -3.208575,-1.6108985 L -3.208575,-1.6108985 z M -3.3936851,-1.5866579 C -3.3936871,-1.7614823 -3.4182949,-1.9241881 -3.4675087,-2.0747756 C -3.5167264,-2.2253589 -3.5721859,-2.34546 -3.6338874,-2.4350791 C -3.6706174,-2.4864961 -3.718364,-2.5305699 -3.7771274,-2.5673006 C -3.8608692,-2.6187175 -3.9548933,-2.6444272 -4.0591999,-2.6444298 C -4.266348,-2.6444272 -4.4286865,-2.5386501 -4.5462157,-2.3270982 C -4.6637467,-2.1155417 -4.7225117,-1.8687285 -4.722511,-1.5866579 L -4.722511,-1.178975 C -4.7225117,-1.0041478 -4.6979039,-0.84107475 -4.6486874,-0.68975545 C -4.5994724,-0.53843476 -4.5432783,-0.41796641 -4.480105,-0.32835004 C -4.4448469,-0.27839942 -4.3978348,-0.23506019 -4.3390687,-0.19833224 C -4.2553296,-0.14544349 -4.160571,-0.11899922 -4.0547925,-0.11899934 C -3.8491162,-0.11899922 -3.6875123,-0.22514359 -3.5699804,-0.43743277 C -3.4524521,-0.64972107 -3.3936871,-0.89690155 -3.3936851,-1.178975 L -3.3936851,-1.5866579 z M -0.5024416,-1.6108985 L -0.5024416,-1.1525307 C -0.5024438,-0.75439631 -0.59720244,-0.43926874 -0.7867178,-0.207147 C -0.93510147,-0.024975146 -1.1224151,0.066110679 -1.3486591,0.066110746 C -1.4573758,0.066110679 -1.5598474,0.044441068 -1.6560741,0.0011018458 C -1.7523029,-0.042237379 -1.8342067,-0.10283883 -1.9017857,-0.1807027 C -1.9443912,-0.22918369 -1.9910359,-0.30704738 -2.0417201,-0.41429401 C -2.0924056,-0.5215398 -2.1287665,-0.61997126 -2.1508029,-0.70958867 C -2.1845933,-0.83593281 -2.2014883,-0.98358 -2.2014878,-1.1525307 L -2.2014878,-1.6108985 C -2.2014883,-2.0104992 -2.1067296,-2.3263614 -1.9172116,-2.5584859 C -1.7688306,-2.7406549 -1.581517,-2.8317408 -1.3552702,-2.8317436 C -1.2450871,-2.8317408 -1.1422483,-2.8100712 -1.0467534,-2.7667347 C -0.95126186,-2.7233927 -0.86972535,-2.6627913 -0.80214364,-2.5849302 C -0.75807176,-2.5349773 -0.71105972,-2.456379 -0.66110739,-2.3491352 C -0.61115914,-2.2418866 -0.57443099,-2.1441897 -0.55092281,-2.0560442 C -0.51860419,-1.9296973 -0.5024438,-1.7813155 -0.5024416,-1.6108985 L -0.5024416,-1.6108985 z M -0.68755169,-1.5866579 C -0.6875537,-1.7614823 -0.71216157,-1.9241881 -0.76137535,-2.0747756 C -0.81059302,-2.2253589 -0.86605254,-2.34546 -0.92775406,-2.4350791 C -0.96448399,-2.4864961 -1.0122306,-2.5305699 -1.070994,-2.5673006 C -1.1547358,-2.6187175 -1.2487599,-2.6444272 -1.3530665,-2.6444298 C -1.5602147,-2.6444272 -1.7225531,-2.5386501 -1.8400823,-2.3270982 C -1.9576133,-2.1155417 -2.0163784,-1.8687285 -2.0163777,-1.5866579 L -2.0163777,-1.178975 C -2.0163784,-1.0041478 -1.9917705,-0.84107475 -1.942554,-0.68975545 C -1.893339,-0.53843476 -1.837145,-0.41796641 -1.7739716,-0.32835004 C -1.7387135,-0.27839942 -1.6917015,-0.23506019 -1.6329353,-0.19833224 C -1.5491962,-0.14544349 -1.4544376,-0.11899922 -1.3486591,-0.11899934 C -1.1429828,-0.11899922 -0.98137895,-0.22514359 -0.86384701,-0.43743277 C -0.74631875,-0.64972107 -0.6875537,-0.89690155 -0.68755169,-1.178975 L -0.68755169,-1.5866579 z" transform="matrix(1,0,0,-1,-1.47,23.52)" id="text71" style="font-size:4.51316023px;text-anchor:end;stroke:none;font-family:'Courier New, Courier, Symbol, monospace'" />
  <path d="M -10.022389,-1.1701602 C -9.907798,-1.3391085 -9.7899006,-1.4639843 -9.6686965,-1.5447878 C -9.5474948,-1.6255882 -9.4127024,-1.6659891 -9.2643191,-1.6659908 C -9.0674578,-1.6659891 -8.8926318,-1.5840853 -8.7398406,-1.4202792 C -8.5870535,-1.2564702 -8.510659,-1.0540981 -8.5106566,-0.81316217 C -8.510659,-0.59279243 -8.5804425,-0.39115485 -8.7200073,-0.20824885 C -8.8595764,-0.025342427 -9.052032,0.066110679 -9.2973745,0.066110746 C -9.4575108,0.066110679 -9.6069944,0.016894951 -9.7458257,-0.081536586 C -9.8846592,-0.17996796 -9.9937419,-0.33128796 -10.073074,-0.53549704 C -10.171506,-0.78965534 -10.220722,-1.070993 -10.220721,-1.3795109 C -10.220722,-1.6116315 -10.174444,-1.827593 -10.081889,-2.0273962 C -10.011371,-2.1816524 -9.9173473,-2.3171793 -9.7998162,-2.4339773 C -9.6822871,-2.5507704 -9.5452911,-2.6462636 -9.3888277,-2.7204572 C -9.2323672,-2.7946453 -9.0630504,-2.8317408 -8.8808768,-2.8317436 C -8.7574722,-2.8317408 -8.6546333,-2.8067656 -8.57236,-2.7568181 C -8.5371032,-2.7347784 -8.5194737,-2.7053959 -8.5194714,-2.6686704 C -8.5194737,-2.6422235 -8.5275539,-2.6205539 -8.543712,-2.6036615 C -8.5598747,-2.586764 -8.5804425,-2.5783165 -8.6054154,-2.5783191 C -8.6245162,-2.5783165 -8.6472877,-2.5856621 -8.6737298,-2.600356 C -8.7339661,-2.6297359 -8.8088916,-2.6444272 -8.8985063,-2.6444298 C -9.1849879,-2.6444272 -9.4461251,-2.5213879 -9.6819187,-2.2753115 C -9.9177146,-2.0292306 -10.035612,-1.7365072 -10.035611,-1.3971404 C -10.035612,-1.3486579 -10.031205,-1.2729979 -10.022389,-1.1701602 L -10.022389,-1.1701602 z M -9.9805189,-0.86384708 C -9.9246929,-0.59646524 -9.8369126,-0.40547883 -9.7171777,-0.29088728 C -9.5974451,-0.17629515 -9.4560417,-0.11899922 -9.2929671,-0.11899934 C -9.1284265,-0.11899922 -8.9877577,-0.18327349 -8.8709602,-0.31182235 C -8.7541666,-0.44037058 -8.6957689,-0.60748369 -8.6957667,-0.81316217 C -8.6957689,-1.0056169 -8.7545339,-1.1650171 -8.8720621,-1.2913632 C -8.9895941,-1.4177068 -9.12255,-1.4808792 -9.2709302,-1.4808807 C -9.413437,-1.4808792 -9.5508003,-1.4199105 -9.6830205,-1.2979743 C -9.7711692,-1.2171711 -9.8703353,-1.0724621 -9.9805189,-0.86384708 L -9.9805189,-0.86384708 z M -5.9147081,-1.6108985 L -5.9147081,-1.1525307 C -5.9147103,-0.75439631 -6.0094689,-0.43926874 -6.1989843,-0.207147 C -6.347368,-0.024975146 -6.5346816,0.066110679 -6.7609256,0.066110746 C -6.8696423,0.066110679 -6.9721139,0.044441068 -7.0683406,0.0011018458 C -7.1645694,-0.042237379 -7.2464732,-0.10283883 -7.3140522,-0.1807027 C -7.3566577,-0.22918369 -7.4033024,-0.30704738 -7.4539866,-0.41429401 C -7.5046721,-0.5215398 -7.541033,-0.61997126 -7.5630693,-0.70958867 C -7.5968598,-0.83593281 -7.6137548,-0.98358 -7.6137543,-1.1525307 L -7.6137543,-1.6108985 C -7.6137548,-2.0104992 -7.5189961,-2.3263614 -7.329478,-2.5584859 C -7.1810971,-2.7406549 -6.9937835,-2.8317408 -6.7675367,-2.8317436 C -6.6573536,-2.8317408 -6.5545148,-2.8100712 -6.4590199,-2.7667347 C -6.3635284,-2.7233927 -6.2819918,-2.6627913 -6.2144101,-2.5849302 C -6.1703383,-2.5349773 -6.1233262,-2.456379 -6.0733739,-2.3491352 C -6.0234256,-2.2418866 -5.9866975,-2.1441897 -5.9631893,-2.0560442 C -5.9308707,-1.9296973 -5.9147103,-1.7813155 -5.9147081,-1.6108985 L -5.9147081,-1.6108985 z M -6.0998182,-1.5866579 C -6.0998202,-1.7614823 -6.1244281,-1.9241881 -6.1736418,-2.0747756 C -6.2228595,-2.2253589 -6.278319,-2.34546 -6.3400206,-2.4350791 C -6.3767505,-2.4864961 -6.4244971,-2.5305699 -6.4832605,-2.5673006 C -6.5670023,-2.6187175 -6.6610264,-2.6444272 -6.765333,-2.6444298 C -6.9724812,-2.6444272 -7.1348196,-2.5386501 -7.2523488,-2.3270982 C -7.3698798,-2.1155417 -7.4286449,-1.8687285 -7.4286442,-1.5866579 L -7.4286442,-1.178975 C -7.4286449,-1.0041478 -7.404037,-0.84107475 -7.3548205,-0.68975545 C -7.3056055,-0.53843476 -7.2494115,-0.41796641 -7.1862381,-0.32835004 C -7.15098,-0.27839942 -7.103968,-0.23506019 -7.0452018,-0.19833224 C -6.9614627,-0.14544349 -6.8667041,-0.11899922 -6.7609256,-0.11899934 C -6.5552493,-0.11899922 -6.3936454,-0.22514359 -6.2761135,-0.43743277 C -6.1585852,-0.64972107 -6.0998202,-0.89690155 -6.0998182,-1.178975 L -6.0998182,-1.5866579 z M -3.208575,-1.6108985 L -3.208575,-1.1525307 C -3.2085772,-0.75439631 -3.3033358,-0.43926874 -3.4928512,-0.207147 C -3.6412348,-0.024975146 -3.8285484,0.066110679 -4.0547925,0.066110746 C -4.1635092,0.066110679 -4.2659808,0.044441068 -4.3622075,0.0011018458 C -4.4584363,-0.042237379 -4.5403401,-0.10283883 -4.6079191,-0.1807027 C -4.6505245,-0.22918369 -4.6971693,-0.30704738 -4.7478535,-0.41429401 C -4.798539,-0.5215398 -4.8348999,-0.61997126 -4.8569362,-0.70958867 C -4.8907267,-0.83593281 -4.9076216,-0.98358 -4.9076211,-1.1525307 L -4.9076211,-1.6108985 C -4.9076216,-2.0104992 -4.812863,-2.3263614 -4.6233449,-2.5584859 C -4.474964,-2.7406549 -4.2876504,-2.8317408 -4.0614036,-2.8317436 C -3.9512205,-2.8317408 -3.8483816,-2.8100712 -3.7528868,-2.7667347 C -3.6573952,-2.7233927 -3.5758587,-2.6627913 -3.508277,-2.5849302 C -3.4642051,-2.5349773 -3.4171931,-2.456379 -3.3672408,-2.3491352 C -3.3172925,-2.2418866 -3.2805644,-2.1441897 -3.2570562,-2.0560442 C -3.2247376,-1.9296973 -3.2085772,-1.7813155 -3.208575,-1.6108985 L -3.208575,-1.6108985 z M -3.3936851,-1.5866579 C -3.3936871,-1.7614823 -3.4182949,-1.9241881 -3.4675087,-2.0747756 C -3.5167264,-2.2253589 -3.5721859,-2.34546 -3.6338874,-2.4350791 C -3.6706174,-2.4864961 -3.718364,-2.5305699 -3.7771274,-2.5673006 C -3.8608692,-2.6187175 -3.9548933,-2.6444272 -4.0591999,-2.6444298 C -4.266348,-2.6444272 -4.4286865,-2.5386501 -4.5462157,-2.3270982 C -4.6637467,-2.1155417 -4.7225117,-1.8687285 -4.722511,-1.5866579 L -4.722511,-1.178975 C -4.7225117,-1.0041478 -4.6979039,-0.84107475 -4.6486874,-0.68975545 C -4.5994724,-0.53843476 -4.5432783,-0.41796641 -4.480105,-0.32835004 C -4.4448469,-0.27839942 -4.3978348,-0.23506019 -4.3390687,-0.19833224 C -4.2553296,-0.14544349 -4.160571,-0.11899922 -4.0547925,-0.11899934 C -3.8491162,-0.11899922 -3.6875123,-0.22514359 -3.5699804,-0.43743277 C -3.4524521,-0.64972107 -3.3936871,-0.89690155 -3.3936851,-1.178975 L -3.3936851,-1.5866579 z M -0.5024416,-1.6108985 L -0.5024416,-1.1525307 C -0.5024438,-0.75439631 -0.59720244,-0.43926874 -0.7867178,-0.207147 C -0.93510147,-0.024975146 -1.1224151,0.066110679 -1.3486591,0.066110746 C -1.4573758,0.066110679 -1.5598474,0.044441068 -1.6560741,0.0011018458 C -1.7523029,-0.042237379 -1.8342067,-0.10283883 -1.9017857,-0.1807027 C -1.9443912,-0.22918369 -1.9910359,-0.30704738 -2.0417201,-0.41429401 C -2.0924056,-0.5215398 -2.1287665,-0.61997126 -2.1508029,-0.70958867 C -2.1845933,-0.83593281 -2.2014883,-0.98358 -2.2014878,-1.1525307 L -2.2014878,-1.6108985 C -2.2014883,-2.0104992 -2.1067296,-2.3263614 -1.9172116,-2.5584859 C -1.7688306,-2.7406549 -1.581517,-2.8317408 -1.3552702,-2.8317436 C -1.2450871,-2.8317408 -1.1422483,-2.8100712 -1.0467534,-2.7667347 C -0.95126186,-2.7233927 -0.86972535,-2.6627913 -0.80214364,-2.5849302 C -0.75807176,-2.5349773 -0.71105972,-2.456379 -0.66110739,-2.3491352 C -0.61115914,-2.2418866 -0.57443099,-2.1441897 -0.55092281,-2.0560442 C -0.51860419,-1.9296973 -0.5024438,-1.7813155 -0.5024416,-1.6108985 L -0.5024416,-1.6108985 z M -0.68755169,-1.5866579 C -0.6875537,-1.7614823 -0.71216157,-1.9241881 -0.76137535,-2.0747756 C -0.81059302,-2.2253589 -0.86605254,-2.34546 -0.92775406,-2.4350791 C -0.96448399,-2.4864961 -1.0122306,-2.5305699 -1.070994,-2.5673006 C -1.1547358,-2.6187175 -1.2487599,-2.6444272 -1.3530665,-2.6444298 C -1.5602147,-2.6444272 -1.7225531,-2.5386501 -1.8400823,-2.3270982 C -1.9576133,-2.1155417 -2.0163784,-1.8687285 -2.0163777,-1.5866579 L -2.0163777,-1.178975 C -2.0163784,-1.0041478 -1.9917705,-0.84107475 -1.942554,-0.68975545 C -1.893339,-0.53843476 -1.837145,-0.41796641 -1.7739716,-0.32835004 C -1.7387135,-0.27839942 -1.6917015,-0.23506019 -1.6329353,-0.19833224 C -1.5491962,-0.14544349 -1.4544376,-0.11899922 -1.3486591,-0.11899934 C -1.1429828,-0.11899922 -0.98137895,-0.22514359 -0.86384701,-0.43743277 C -0.74631875,-0.64972107 -0.6875537,-0.89690155 -0.68755169,-1.178975 L -0.68755169,-1.5866579 z" transform="matrix(1,0,0,-1,-1.47,35.28)" id="text75" style="font-size:4.51316023px;text-anchor:end;stroke:none;font-family:'Courier New, Courier, Symbol, monospace'" />
  <path d="M -9.0902275,-1.4346032 C -8.935971,-1.3596763 -8.8195427,-1.2608776 -8.7409424,-1.1382067 C -8.6623462,-1.0155335 -8.6230471,-0.88367942 -8.6230449,-0.74264404 C -8.6230471,-0.52374349 -8.7053182,-0.33422621 -8.8698584,-0.17409163 C -9.0344024,-0.013956699 -9.2342036,0.066110679 -9.4692625,0.066110746 C -9.704324,0.066110679 -9.9041252,-0.013956699 -10.068667,-0.17409163 C -10.233209,-0.33422621 -10.315481,-0.52374349 -10.31548,-0.74264404 C -10.315481,-0.88221029 -10.276181,-1.0133298 -10.197582,-1.136003 C -10.118985,-1.2586739 -10.001822,-1.3582072 -9.8460937,-1.4346032 C -9.9812543,-1.5124654 -10.079686,-1.5932674 -10.141388,-1.6770092 C -10.226598,-1.7960068 -10.269203,-1.9274936 -10.269202,-2.07147 C -10.269203,-2.2742074 -10.190972,-2.4516044 -10.034509,-2.6036615 C -9.8780482,-2.7557135 -9.6896327,-2.8317408 -9.4692625,-2.8317436 C -9.2474258,-2.8317408 -9.058643,-2.7557135 -8.9029137,-2.6036615 C -8.7471883,-2.4516044 -8.6693246,-2.2742074 -8.6693224,-2.07147 C -8.6693246,-1.9274936 -8.7119292,-1.7967414 -8.7971365,-1.6792129 C -8.8573727,-1.5940019 -8.9550696,-1.5124654 -9.0902275,-1.4346032 L -9.0902275,-1.4346032 z M -8.8588399,-2.064859 C -8.8588419,-2.2235225 -8.9179742,-2.359784 -9.0362371,-2.4736437 C -9.1545035,-2.5874985 -9.2995797,-2.6444272 -9.4714661,-2.6444298 C -9.6418861,-2.6444272 -9.7862278,-2.5871313 -9.9044915,-2.4725419 C -10.022757,-2.3579476 -10.081889,-2.222788 -10.081889,-2.0670626 C -10.081889,-1.9230862 -10.023492,-1.7971086 -9.9066952,-1.6891295 C -9.7899006,-1.5811471 -9.6448244,-1.5271567 -9.4714661,-1.5271582 C -9.2966415,-1.5271567 -9.1508307,-1.5811471 -9.0340334,-1.6891295 C -8.9172396,-1.7971086 -8.8588419,-1.9223516 -8.8588399,-2.064859 L -8.8588399,-2.064859 z M -8.808155,-0.73823666 C -8.808157,-0.90130893 -8.8713294,-1.0430796 -8.9976725,-1.1635491 C -9.1240191,-1.2840163 -9.2812157,-1.3442505 -9.4692625,-1.3442518 C -9.657312,-1.3442505 -9.8145085,-1.2840163 -9.9408524,-1.1635491 C -10.067198,-1.0430796 -10.130371,-0.90204349 -10.13037,-0.74044035 C -10.130371,-0.57295922 -10.066831,-0.42751573 -9.9397506,-0.30410943 C -9.8126721,-0.18070252 -9.6558428,-0.11899922 -9.4692625,-0.11899934 C -9.2826848,-0.11899922 -9.1258556,-0.18070252 -8.9987743,-0.30410943 C -8.8716967,-0.42751573 -8.808157,-0.57222466 -8.808155,-0.73823666 L -8.808155,-0.73823666 z M -5.9147081,-1.6108985 L -5.9147081,-1.1525307 C -5.9147103,-0.75439631 -6.0094689,-0.43926874 -6.1989843,-0.207147 C -6.347368,-0.024975146 -6.5346816,0.066110679 -6.7609256,0.066110746 C -6.8696423,0.066110679 -6.9721139,0.044441068 -7.0683406,0.0011018458 C -7.1645694,-0.042237379 -7.2464732,-0.10283883 -7.3140522,-0.1807027 C -7.3566577,-0.22918369 -7.4033024,-0.30704738 -7.4539866,-0.41429401 C -7.5046721,-0.5215398 -7.541033,-0.61997126 -7.5630693,-0.70958867 C -7.5968598,-0.83593281 -7.6137548,-0.98358 -7.6137543,-1.1525307 L -7.6137543,-1.6108985 C -7.6137548,-2.0104992 -7.5189961,-2.3263614 -7.329478,-2.5584859 C -7.1810971,-2.7406549 -6.9937835,-2.8317408 -6.7675367,-2.8317436 C -6.6573536,-2.8317408 -6.5545148,-2.8100712 -6.4590199,-2.7667347 C -6.3635284,-2.7233927 -6.2819918,-2.6627913 -6.2144101,-2.5849302 C -6.1703383,-2.5349773 -6.1233262,-2.456379 -6.0733739,-2.3491352 C -6.0234256,-2.2418866 -5.9866975,-2.1441897 -5.9631893,-2.0560442 C -5.9308707,-1.9296973 -5.9147103,-1.7813155 -5.9147081,-1.6108985 L -5.9147081,-1.6108985 z M -6.0998182,-1.5866579 C -6.0998202,-1.7614823 -6.1244281,-1.9241881 -6.1736418,-2.0747756 C -6.2228595,-2.2253589 -6.278319,-2.34546 -6.3400206,-2.4350791 C -6.3767505,-2.4864961 -6.4244971,-2.5305699 -6.4832605,-2.5673006 C -6.5670023,-2.6187175 -6.6610264,-2.6444272 -6.765333,-2.6444298 C -6.9724812,-2.6444272 -7.1348196,-2.5386501 -7.2523488,-2.3270982 C -7.3698798,-2.1155417 -7.4286449,-1.8687285 -7.4286442,-1.5866579 L -7.4286442,-1.178975 C -7.4286449,-1.0041478 -7.404037,-0.84107475 -7.3548205,-0.68975545 C -7.3056055,-0.53843476 -7.2494115,-0.41796641 -7.1862381,-0.32835004 C -7.15098,-0.27839942 -7.103968,-0.23506019 -7.0452018,-0.19833224 C -6.9614627,-0.14544349 -6.8667041,-0.11899922 -6.7609256,-0.11899934 C -6.5552493,-0.11899922 -6.3936454,-0.22514359 -6.2761135,-0.43743277 C -6.1585852,-0.64972107 -6.0998202,-0.89690155 -6.0998182,-1.178975 L -6.0998182,-1.5866579 z M -3.208575,-1.6108985 L -3.208575,-1.1525307 C -3.2085772,-0.75439631 -3.3033358,-0.43926874 -3.4928512,-0.207147 C -3.6412348,-0.024975146 -3.8285484,0.066110679 -4.0547925,0.066110746 C -4.1635092,0.066110679 -4.2659808,0.044441068 -4.3622075,0.0011018458 C -4.4584363,-0.042237379 -4.5403401,-0.10283883 -4.6079191,-0.1807027 C -4.6505245,-0.22918369 -4.6971693,-0.30704738 -4.7478535,-0.41429401 C -4.798539,-0.5215398 -4.8348999,-0.61997126 -4.8569362,-0.70958867 C -4.8907267,-0.83593281 -4.9076216,-0.98358 -4.9076211,-1.1525307 L -4.9076211,-1.6108985 C -4.9076216,-2.0104992 -4.812863,-2.3263614 -4.6233449,-2.5584859 C -4.474964,-2.7406549 -4.2876504,-2.8317408 -4.0614036,-2.8317436 C -3.9512205,-2.8317408 -3.8483816,-2.8100712 -3.7528868,-2.7667347 C -3.6573952,-2.7233927 -3.5758587,-2.6627913 -3.508277,-2.5849302 C -3.4642051,-2.5349773 -3.4171931,-2.456379 -3.3672408,-2.3491352 C -3.3172925,-2.2418866 -3.2805644,-2.1441897 -3.2570562,-2.0560442 C -3.2247376,-1.9296973 -3.2085772,-1.7813155 -3.208575,-1.6108985 L -3.208575,-1.6108985 z M -3.3936851,-1.5866579 C -3.3936871,-1.7614823 -3.4182949,-1.9241881 -3.4675087,-2.0747756 C -3.5167264,-2.2253589 -3.5721859,-2.34546 -3.6338874,-2.4350791 C -3.6706174,-2.4864961 -3.718364,-2.5305699 -3.7771274,-2.5673006 C -3.8608692,-2.6187175 -3.9548933,-2.6444272 -4.0591999,-2.6444298 C -4.266348,-2.6444272 -4.4286865,-2.5386501 -4.5462157,-2.3270982 C -4.6637467,-2.1155417 -4.7225117,-1.8687285 -4.722511,-1.5866579 L -4.722511,-1.178975 C -4.7225117,-1.0041478 -4.6979039,-0.84107475 -4.6486874,-0.68975545 C -4.5994724,-0.53843476 -4.5432783,-0.41796641 -4.480105,-0.32835004 C -4.4448469,-0.27839942 -4.3978348,-0.23506019 -4.3390687,-0.19833224 C -4.2553296,-0.14544349 -4.160571,-0.11899922 -4.0547925,-0.11899934 C -3.8491162,-0.11899922 -3.6875123,-0.22514359 -3.5699804,-0.43743277 C -3.4524521,-0.64972107 -3.3936871,-0.89690155 -3.3936851,-1.178975 L -3.3936851,-1.5866579 z M -0.5024416,-1.6108985 L -0.5024416,-1.1525307 C -0.5024438,-0.75439631 -0.59720244,-0.43926874 -0.7867178,-0.207147 C -0.93510147,-0.024975146 -1.1224151,0.066110679 -1.3486591,0.066110746 C -1.4573758,0.066110679 -1.5598474,0.044441068 -1.6560741,0.0011018458 C -1.7523029,-0.042237379 -1.8342067,-0.10283883 -1.9017857,-0.1807027 C -1.9443912,-0.22918369 -1.9910359,-0.30704738 -2.0417201,-0.41429401 C -2.0924056,-0.5215398 -2.1287665,-0.61997126 -2.1508029,-0.70958867 C -2.1845933,-0.83593281 -2.2014883,-0.98358 -2.2014878,-1.1525307 L -2.2014878,-1.6108985 C -2.2014883,-2.0104992 -2.1067296,-2.3263614 -1.9172116,-2.5584859 C -1.7688306,-2.7406549 -1.581517,-2.8317408 -1.3552702,-2.8317436 C -1.2450871,-2.8317408 -1.1422483,-2.8100712 -1.0467534,-2.7667347 C -0.95126186,-2.7233927 -0.86972535,-2.6627913 -0.80214364,-2.5849302 C -0.75807176,-2.5349773 -0.71105972,-2.456379 -0.66110739,-2.3491352 C -0.61115914,-2.2418866 -0.57443099,-2.1441897 -0.55092281,-2.0560442 C -0.51860419,-1.9296973 -0.5024438,-1.7813155 -0.5024416,-1.6108985 L -0.5024416,-1.6108985 z M -0.68755169,-1.5866579 C -0.6875537,-1.7614823 -0.71216157,-1.9241881 -0.76137535,-2.0747756 C -0.81059302,-2.2253589 -0.86605254,-2.34546 -0.92775406,-2.4350791 C -0.96448399,-2.4864961 -1.0122306,-2.5305699 -1.070994,-2.5673006 C -1.1547358,-2.6187175 -1.2487599,-2.6444272 -1.3530665,-2.6444298 C -1.5602147,-2.6444272 -1.7225531,-2.5386501 -1.8400823,-2.3270982 C -1.9576133,-2.1155417 -2.0163784,-1.8687285 -2.0163777,-1.5866579 L -2.0163777,-1.178975 C -2.0163784,-1.0041478 -1.9917705,-0.84107475 -1.942554,-0.68975545 C -1.893339,-0.53843476 -1.837145,-0.41796641 -1.7739716,-0.32835004 C -1.7387135,-0.27839942 -1.6917015,-0.23506019 -1.6329353,-0.19833224 C -1.5491962,-0.14544349 -1.4544376,-0.11899922 -1.3486591,-0.11899934 C -1.1429828,-0.11899922 -0.98137895,-0.22514359 -0.86384701,-0.43743277 C -0.74631875,-0.64972107 -0.6875537,-0.89690155 -0.68755169,-1.178975 L -0.68755169,-1.5866579 z" transform="matrix(1,0,0,-1,-1.47,47.04)" id="text79" style="font-size:4.51316023px;text-anchor:end;stroke:none;font-family:'Courier New, Courier, Symbol, monospace'" />
  <path d="M -12.085044,-2.8030956 L -12.085044,-0.18511009 L -11.450381,-0.18511009 C -11.406309,-0.1851099 -11.374723,-0.17666243 -11.355622,-0.15976764 C -11.336526,-0.14287252 -11.326977,-0.12046835 -11.326974,-0.092555044 C -11.326977,-0.066110679 -11.336526,-0.044073786 -11.355622,-0.026444298 C -11.374723,-0.0088147573 -11.406309,0 -11.450381,0 L -12.904818,0 C -12.948892,0 -12.980478,-0.0088147573 -12.999576,-0.026444298 C -13.018675,-0.044073786 -13.028225,-0.066110679 -13.028224,-0.092555044 C -13.028225,-0.12046835 -13.018675,-0.14287252 -12.999576,-0.15976764 C -12.980478,-0.17666243 -12.948892,-0.1851099 -12.904818,-0.18511009 L -12.270154,-0.18511009 L -12.270154,-2.5474674 L -12.873966,-2.3579499 C -12.903349,-2.3491328 -12.924651,-2.3447254 -12.937873,-2.3447278 C -12.95991,-2.3447254 -12.980111,-2.3539075 -12.998474,-2.3722739 C -13.016839,-2.3906356 -13.026021,-2.4123052 -13.026021,-2.4372828 C -13.026021,-2.4593173 -13.018675,-2.479885 -13.003984,-2.4989862 C -12.992231,-2.5107367 -12.967991,-2.5232243 -12.931262,-2.5364489 L -12.085044,-2.8030956 z M -8.6208413,-1.6108985 L -8.6208413,-1.1525307 C -8.6208435,-0.75439631 -8.7156021,-0.43926874 -8.9051175,-0.207147 C -9.0535011,-0.024975146 -9.2408147,0.066110679 -9.4670588,0.066110746 C -9.5757755,0.066110679 -9.6782471,0.044441068 -9.7744738,0.0011018458 C -9.8707026,-0.042237379 -9.9526064,-0.10283883 -10.020185,-0.1807027 C -10.062791,-0.22918369 -10.109436,-0.30704738 -10.16012,-0.41429401 C -10.210805,-0.5215398 -10.247166,-0.61997126 -10.269203,-0.70958867 C -10.302993,-0.83593281 -10.319888,-0.98358 -10.319887,-1.1525307 L -10.319887,-1.6108985 C -10.319888,-2.0104992 -10.225129,-2.3263614 -10.035611,-2.5584859 C -9.8872303,-2.7406549 -9.6999167,-2.8317408 -9.4736699,-2.8317436 C -9.3634868,-2.8317408 -9.2606479,-2.8100712 -9.1651531,-2.7667347 C -9.0696615,-2.7233927 -8.988125,-2.6627913 -8.9205433,-2.5849302 C -8.8764714,-2.5349773 -8.8294594,-2.456379 -8.7795071,-2.3491352 C -8.7295588,-2.2418866 -8.6928307,-2.1441897 -8.6693225,-2.0560442 C -8.6370039,-1.9296973 -8.6208435,-1.7813155 -8.6208413,-1.6108985 L -8.6208413,-1.6108985 z M -8.8059514,-1.5866579 C -8.8059534,-1.7614823 -8.8305612,-1.9241881 -8.879775,-2.0747756 C -8.9289927,-2.2253589 -8.9844522,-2.34546 -9.0461537,-2.4350791 C -9.0828837,-2.4864961 -9.1306303,-2.5305699 -9.1893937,-2.5673006 C -9.2731355,-2.6187175 -9.3671596,-2.6444272 -9.4714662,-2.6444298 C -9.6786143,-2.6444272 -9.8409528,-2.5386501 -9.958482,-2.3270982 C -10.076013,-2.1155417 -10.134778,-1.8687285 -10.134777,-1.5866579 L -10.134777,-1.178975 C -10.134778,-1.0041478 -10.11017,-0.84107475 -10.060954,-0.68975545 C -10.011739,-0.53843476 -9.9555446,-0.41796641 -9.8923713,-0.32835004 C -9.8571132,-0.27839942 -9.8101011,-0.23506019 -9.751335,-0.19833224 C -9.6675959,-0.14544349 -9.5728373,-0.11899922 -9.4670588,-0.11899934 C -9.2613825,-0.11899922 -9.0997786,-0.22514359 -8.9822467,-0.43743277 C -8.8647184,-0.64972107 -8.8059534,-0.89690155 -8.8059514,-1.178975 L -8.8059514,-1.5866579 z M -5.9147081,-1.6108985 L -5.9147081,-1.1525307 C -5.9147104,-0.75439631 -6.009469,-0.43926874 -6.1989844,-0.207147 C -6.347368,-0.024975146 -6.5346816,0.066110679 -6.7609257,0.066110746 C -6.8696424,0.066110679 -6.9721139,0.044441068 -7.0683407,0.0011018458 C -7.1645695,-0.042237379 -7.2464733,-0.10283883 -7.3140523,-0.1807027 C -7.3566577,-0.22918369 -7.4033025,-0.30704738 -7.4539867,-0.41429401 C -7.5046722,-0.5215398 -7.5410331,-0.61997126 -7.5630694,-0.70958867 C -7.5968599,-0.83593281 -7.6137548,-0.98358 -7.6137543,-1.1525307 L -7.6137543,-1.6108985 C -7.6137548,-2.0104992 -7.5189962,-2.3263614 -7.3294781,-2.5584859 C -7.1810971,-2.7406549 -6.9937836,-2.8317408 -6.7675368,-2.8317436 C -6.6573537,-2.8317408 -6.5545148,-2.8100712 -6.45902,-2.7667347 C -6.3635284,-2.7233927 -6.2819919,-2.6627913 -6.2144102,-2.5849302 C -6.1703383,-2.5349773 -6.1233263,-2.456379 -6.0733739,-2.3491352 C -6.0234257,-2.2418866 -5.9866975,-2.1441897 -5.9631894,-2.0560442 C -5.9308707,-1.9296973 -5.9147104,-1.7813155 -5.9147081,-1.6108985 L -5.9147081,-1.6108985 z M -6.0998182,-1.5866579 C -6.0998203,-1.7614823 -6.1244281,-1.9241881 -6.1736419,-2.0747756 C -6.2228596,-2.2253589 -6.2783191,-2.34546 -6.3400206,-2.4350791 C -6.3767505,-2.4864961 -6.4244971,-2.5305699 -6.4832606,-2.5673006 C -6.5670024,-2.6187175 -6.6610265,-2.6444272 -6.7653331,-2.6444298 C -6.9724812,-2.6444272 -7.1348197,-2.5386501 -7.2523489,-2.3270982 C -7.3698799,-2.1155417 -7.4286449,-1.8687285 -7.4286442,-1.5866579 L -7.4286442,-1.178975 C -7.4286449,-1.0041478 -7.404037,-0.84107475 -7.3548206,-0.68975545 C -7.3056056,-0.53843476 -7.2494115,-0.41796641 -7.1862382,-0.32835004 C -7.1509801,-0.27839942 -7.103968,-0.23506019 -7.0452019,-0.19833224 C -6.9614628,-0.14544349 -6.8667041,-0.11899922 -6.7609257,-0.11899934 C -6.5552494,-0.11899922 -6.3936455,-0.22514359 -6.2761136,-0.43743277 C -6.1585853,-0.64972107 -6.0998203,-0.89690155 -6.0998182,-1.178975 L -6.0998182,-1.5866579 z M -3.2085748,-1.6108985 L -3.2085748,-1.1525307 C -3.208577,-0.75439631 -3.3033356,-0.43926874 -3.492851,-0.207147 C -3.6412347,-0.024975146 -3.8285482,0.066110679 -4.0547923,0.066110746 C -4.163509,0.066110679 -4.2659806,0.044441068 -4.3622073,0.0011018458 C -4.4584361,-0.042237379 -4.5403399,-0.10283883 -4.6079189,-0.1807027 C -4.6505244,-0.22918369 -4.6971691,-0.30704738 -4.7478533,-0.41429401 C -4.7985388,-0.5215398 -4.8348997,-0.61997126 -4.856936,-0.70958867 C -4.8907265,-0.83593281 -4.9076214,-0.98358 -4.9076209,-1.1525307 L -4.9076209,-1.6108985 C -4.9076214,-2.0104992 -4.8128628,-2.3263614 -4.6233447,-2.5584859 C -4.4749638,-2.7406549 -4.2876502,-2.8317408 -4.0614034,-2.8317436 C -3.9512203,-2.8317408 -3.8483815,-2.8100712 -3.7528866,-2.7667347 C -3.657395,-2.7233927 -3.5758585,-2.6627913 -3.5082768,-2.5849302 C -3.4642049,-2.5349773 -3.4171929,-2.456379 -3.3672406,-2.3491352 C -3.3172923,-2.2418866 -3.2805642,-2.1441897 -3.257056,-2.0560442 C -3.2247374,-1.9296973 -3.208577,-1.7813155 -3.2085748,-1.6108985 L -3.2085748,-1.6108985 z M -3.3936849,-1.5866579 C -3.3936869,-1.7614823 -3.4182948,-1.9241881 -3.4675085,-2.0747756 C -3.5167262,-2.2253589 -3.5721857,-2.34546 -3.6338872,-2.4350791 C -3.6706172,-2.4864961 -3.7183638,-2.5305699 -3.7771272,-2.5673006 C -3.860869,-2.6187175 -3.9548931,-2.6444272 -4.0591997,-2.6444298 C -4.2663479,-2.6444272 -4.4286863,-2.5386501 -4.5462155,-2.3270982 C -4.6637465,-2.1155417 -4.7225115,-1.8687285 -4.7225109,-1.5866579 L -4.7225109,-1.178975 C -4.7225115,-1.0041478 -4.6979037,-0.84107475 -4.6486872,-0.68975545 C -4.5994722,-0.53843476 -4.5432781,-0.41796641 -4.4801048,-0.32835004 C -4.4448467,-0.27839942 -4.3978347,-0.23506019 -4.3390685,-0.19833224 C -4.2553294,-0.14544349 -4.1605708,-0.11899922 -4.0547923,-0.11899934 C -3.849116,-0.11899922 -3.6875121,-0.22514359 -3.5699802,-0.43743277 C -3.4524519,-0.64972107 -3.3936869,-0.89690155 -3.3936849,-1.178975 L -3.3936849,-1.5866579 z M -0.50244189,-1.6108985 L -0.50244189,-1.1525307 C -0.5024441,-0.75439631 -0.59720274,-0.43926874 -0.7867181,-0.207147 C -0.93510177,-0.024975146 -1.1224154,0.066110679 -1.3486594,0.066110746 C -1.4573761,0.066110679 -1.5598477,0.044441068 -1.6560744,0.0011018458 C -1.7523032,-0.042237379 -1.834207,-0.10283883 -1.901786,-0.1807027 C -1.9443915,-0.22918369 -1.9910362,-0.30704738 -2.0417204,-0.41429401 C -2.0924059,-0.5215398 -2.1287668,-0.61997126 -2.1508031,-0.70958867 C -2.1845936,-0.83593281 -2.2014886,-0.98358 -2.2014881,-1.1525307 L -2.2014881,-1.6108985 C -2.2014886,-2.0104992 -2.1067299,-2.3263614 -1.9172118,-2.5584859 C -1.7688309,-2.7406549 -1.5815173,-2.8317408 -1.3552705,-2.8317436 C -1.2450874,-2.8317408 -1.1422486,-2.8100712 -1.0467537,-2.7667347 C -0.95126215,-2.7233927 -0.86972565,-2.6627913 -0.80214394,-2.5849302 C -0.75807206,-2.5349773 -0.71106002,-2.456379 -0.66110768,-2.3491352 C -0.61115944,-2.2418866 -0.57443128,-2.1441897 -0.55092311,-2.0560442 C -0.51860449,-1.9296973 -0.5024441,-1.7813155 -0.50244189,-1.6108985 L -0.50244189,-1.6108985 z M -0.68755198,-1.5866579 C -0.687554,-1.7614823 -0.71216186,-1.9241881 -0.76137565,-2.0747756 C -0.81059332,-2.2253589 -0.86605283,-2.34546 -0.92775436,-2.4350791 C -0.96448429,-2.4864961 -1.0122309,-2.5305699 -1.0709943,-2.5673006 C -1.1547361,-2.6187175 -1.2487602,-2.6444272 -1.3530668,-2.6444298 C -1.560215,-2.6444272 -1.7225534,-2.5386501 -1.8400826,-2.3270982 C -1.9576136,-2.1155417 -2.0163787,-1.8687285 -2.016378,-1.5866579 L -2.016378,-1.178975 C -2.0163787,-1.0041478 -1.9917708,-0.84107475 -1.9425543,-0.68975545 C -1.8933393,-0.53843476 -1.8371453,-0.41796641 -1.7739719,-0.32835004 C -1.7387138,-0.27839942 -1.6917018,-0.23506019 -1.6329356,-0.19833224 C -1.5491965,-0.14544349 -1.4544379,-0.11899922 -1.3486594,-0.11899934 C -1.1429831,-0.11899922 -0.98137924,-0.22514359 -0.8638473,-0.43743277 C -0.74631905,-0.64972107 -0.687554,-0.89690155 -0.68755198,-1.178975 L -0.68755198,-1.5866579 z" transform="matrix(1,0,0,-1,-1.47,58.8)" id="text83" style="font-size:4.51316023px;text-anchor:end;stroke:none;font-family:'Courier New, Courier, Symbol, monospace'" />
  <g style="fill:none;stroke:#000000;stroke-width:0.11282901pt">
  <line x1="20" y1="0" x2="20" y2="0.73500001" id="line9" />
  <line x1="40" y1="0" x2="40" y2="0.73500001" id="line13" />
  <line x1="60" y1="0" x2="60" y2="0.73500001" id="line17" />
  <line x1="80" y1="0" x2="80" y2="0.73500001" id="line21" />
  <line x1="100" y1="0" x2="100" y2="0.73500001" id="line25" />
  <line x1="-2.8" y1="0" x2="114.8" y2="0" id="line63" />
  <line x1="0" y1="11.76" x2="0.73500001" y2="11.76" id="line65" />
  <line x1="0" y1="23.52" x2="0.73500001" y2="23.52" id="line69" />
  <line x1="0" y1="35.279999" x2="0.73500001" y2="35.279999" id="line73" />
  <line x1="0" y1="47.040001" x2="0.73500001" y2="47.040001" id="line77" />
  <line x1="0" y1="58.799999" x2="0.73500001" y2="58.799999" id="line81" />
  <line x1="0" y1="0" x2="0" y2="58.799999" id="line115" />
  </g>
  <g style="fill:none;stroke:#000000;stroke-width:0.0564145pt">
  <line x1="5" y1="0" x2="5" y2="0.44100001" id="line29" />
  <line x1="10" y1="0" x2="10" y2="0.44100001" id="line31" />
  <line x1="15" y1="0" x2="15" y2="0.44100001" id="line33" />
  <line x1="25" y1="0" x2="25" y2="0.44100001" id="line35" />
  <line x1="30" y1="0" x2="30" y2="0.44100001" id="line37" />
  <line x1="35" y1="0" x2="35" y2="0.44100001" id="line39" />
  <line x1="45" y1="0" x2="45" y2="0.44100001" id="line41" />
  <line x1="50" y1="0" x2="50" y2="0.44100001" id="line43" />
  <line x1="55" y1="0" x2="55" y2="0.44100001" id="line45" />
  <line x1="65" y1="0" x2="65" y2="0.44100001" id="line47" />
  <line x1="70" y1="0" x2="70" y2="0.44100001" id="line49" />
  <line x1="75" y1="0" x2="75" y2="0.44100001" id="line51" />
  <line x1="85" y1="0" x2="85" y2="0.44100001" id="line53" />
  <line x1="90" y1="0" x2="90" y2="0.44100001" id="line55" />
  <line x1="95" y1="0" x2="95" y2="0.44100001" id="line57" />
  <line x1="105" y1="0" x2="105" y2="0.44100001" id="line59" />
  <line x1="110" y1="0" x2="110" y2="0.44100001" id="line61" />
  <line x1="0" y1="2.9400001" x2="0.44100001" y2="2.9400001" id="line85" />
  <line x1="0" y1="5.8800001" x2="0.44100001" y2="5.8800001" id="line87" />
  <line x1="0" y1="8.8199997" x2="0.44100001" y2="8.8199997" id="line89" />
  <line x1="0" y1="14.7" x2="0.44100001" y2="14.7" id="line91" />
  <line x1="0" y1="17.639999" x2="0.44100001" y2="17.639999" id="line93" />
  <line x1="0" y1="20.58" x2="0.44100001" y2="20.58" id="line95" />
  <line x1="0" y1="26.459999" x2="0.44100001" y2="26.459999" id="line97" />
  <line x1="0" y1="29.4" x2="0.44100001" y2="29.4" id="line99" />
  <line x1="0" y1="32.34" x2="0.44100001" y2="32.34" id="line101" />
  <line x1="0" y1="38.220001" x2="0.44100001" y2="38.220001" id="line103" />
  <line x1="0" y1="41.16" x2="0.44100001" y2="41.16" id="line105" />
  <line x1="0" y1="44.099998" x2="0.44100001" y2="44.099998" id="line107" />
  <line x1="0" y1="49.98" x2="0.44100001" y2="49.98" id="line109" />
  <line x1="0" y1="52.919998" x2="0.44100001" y2="52.919998" id="line111" />
  <line x1="0" y1="55.860001" x2="0.44100001" y2="55.860001" id="line113" />
  </g>
 </g>

 <text x="-8.5" y="61.6" font-family="Arial" font-size="1.5" fill="black">
   Collatz Conjecture Or The 3n + 1 Problem, https://uladkaminski.com/blog/2022-03-15-collatz-conjecture/ | abgerufen am 07. Mrz 2025
 </text>
</svg>
