<?xml version="1.0" encoding="utf-8"?>
<svg style="fill:none;stroke:none;fill-rule:evenodd;clip-rule:evenodd;stroke-linecap:round;stroke-linejoin:round;stroke-miterlimit:1.5;" version="1.1" xmlns="http://www.w3.org/2000/svg" width="746" height="706" viewBox="0 0 746 706">
  <style>@import url(https://fonts.googleapis.com/css2?family=Roboto:wght@400;700&amp;amp;display=block);</style>
  <g id="items" style="isolation: isolate">
    <g id="blend" style="mix-blend-mode: normal">
      <g id="g-root-cp_0_g-0_zp2lixsdjksi-fill" transform="translate(291, 298.989990234375)">
        <g id="cp_0_g-0_zp2lixsdjksi-fill-merged" stroke="none" fill="#b7b7b7" fill-opacity="1">
          <g>
            <path d="M154 82C154 42.24 121.76 10 82 10C42.24 10 10 42.24 10 82C10 121.76 42.23 154 82 154C121.77 154 154 121.77 154 82"/>
          </g>
        </g>
      </g>
      <g id="g-root-cp_0_g-0_zp2lixsdjksi-stroke" transform="translate(291, 298.989990234375)"/>
      <g id="g-root-cp_1_g-1_qu22d5sdjiff-fill" transform="translate(333, 166)">
        <g id="cp_1_g-1_qu22d5sdjiff-fill-merged" stroke="none" fill="#43dd93" fill-opacity="1">
          <g>
            <path d="M29.26 103.37L40 115L50.74 103.37 H44.76 V69.57C59.06 67.29 70 54.91 70 39.97C70 23.42 56.57 10 40 10C23.43 10 10 23.42 10 39.97C10 54.88 20.9 67.25 35.18 69.56 V103.37 H29.26"/>
          </g>
        </g>
      </g>
      <g id="g-root-cp_1_g-1_qu22d5sdjiff-stroke" transform="translate(333, 166)"/>
      <g id="g-root-cp_2_g-2_diljztsdjk0c-fill" transform="translate(433.55999755859375, 217.2470703125)">
        <g id="cp_2_g-2_diljztsdjk0c-fill-merged" stroke="none" fill="#a6da37" fill-opacity="1">
          <g>
            <path d="M10.62 77.213L10 93.033L25.82 92.412L21.59 88.183L45.49 64.283C57.22 72.783 73.7 71.762 84.26 61.202C95.97 49.493 95.96 30.513 84.24 18.792C72.52 7.073 53.54 7.073 41.83 18.772C31.28 29.323 30.25 45.772 38.71 57.493L14.8 81.402L10.61 77.213"/>
          </g>
        </g>
      </g>
      <g id="g-root-cp_2_g-2_diljztsdjk0c-stroke" transform="translate(433.55999755859375, 217.2470703125)"/>
      <g id="g-root-cp_3_g-3_7riplsdjifh-fill" transform="translate(462.739990234375, 340.8599853515625)">
        <g id="cp_3_g-3_7riplsdjifh-fill-merged" stroke="none" fill="#1ac3fb" fill-opacity="1">
          <g>
            <path d="M21.63 29.26L10 40L21.63 50.74 V44.76 H55.43C57.71 59.06 70.09 70 85.03 70C101.58 70 115 56.57 115 40C115 23.43 101.58 10 85.03 10C70.12 10 57.75 20.9 55.44 35.18 H21.63 V29.26"/>
          </g>
        </g>
      </g>
      <g id="g-root-cp_3_g-3_7riplsdjifh-stroke" transform="translate(462.739990234375, 340.8599853515625)"/>
      <g id="g-root-cp_4_g-4_1ut22k9sdjj0m-fill" transform="translate(433.469970703125, 441.429931640625)">
        <g id="cp_4_g-4_1ut22k9sdjj0m-fill-merged" stroke="none" fill="#f79438" fill-opacity="1">
          <g>
            <path d="M25.82 10.62L10 10L10.62 25.82L14.85 21.59L38.75 45.49C30.25 57.22 31.27 73.7 41.83 84.26C53.54 95.97 72.52 95.96 84.24 84.24C95.96 72.52 95.96 53.54 84.26 41.83C73.71 31.28 57.26 30.25 45.54 38.71L21.63 14.8L25.82 10.61"/>
          </g>
        </g>
      </g>
      <g id="g-root-cp_4_g-4_1ut22k9sdjj0m-stroke" transform="translate(433.469970703125, 441.429931640625)"/>
      <g id="g-root-cp_5_g-5_1lxf2bdsdjjtb-fill" transform="translate(332.8800048828125, 470.6099853515625)">
        <g id="cp_5_g-5_1lxf2bdsdjjtb-fill-merged" stroke="none" fill="#ffe711" fill-opacity="1">
          <g>
            <path d="M50.74 21.63L40 10L29.26 21.63 H35.24 V55.43C20.94 57.71 10 70.09 10 85.03C10 101.58 23.43 115 40 115C56.57 115 70 101.58 70 85.03C70 70.12 59.1 57.75 44.82 55.44 V21.63 H50.74"/>
          </g>
        </g>
      </g>
      <g id="g-root-cp_5_g-5_1lxf2bdsdjjtb-stroke" transform="translate(332.8800048828125, 470.6099853515625)"/>
      <g id="g-root-cp_6_g-6_1hhlk6xsdjklk-fill" transform="translate(209.2840576171875, 441.3399658203125)">
        <g id="cp_6_g-6_1hhlk6xsdjklk-fill-merged" stroke="none" fill="#8769fd" fill-opacity="1">
          <g>
            <path d="M92.416 25.82L93.036 10L77.216 10.62L81.446 14.85L57.546 38.75C45.816 30.25 29.336 31.27 18.776 41.83C7.066 53.54 7.076 72.52 18.796 84.24C30.516 95.96 49.496 95.96 61.206 84.26C71.756 73.71 72.786 57.26 64.326 45.54L88.236 21.63L92.426 25.82"/>
          </g>
        </g>
      </g>
      <g id="g-root-cp_6_g-6_1hhlk6xsdjklk-stroke" transform="translate(209.2840576171875, 441.3399658203125)"/>
      <g id="g-root-cp_7_g-7_1d2ej5lsdji81-fill" transform="translate(158.1400146484375, 340.75)">
        <g id="cp_7_g-7_1d2ej5lsdji81-fill-merged" stroke="none" fill="#f366bb" fill-opacity="1">
          <g>
            <path d="M103.37 50.74L115 40L103.37 29.26 V35.24 H69.57C67.29 20.94 54.91 10 39.97 10C23.42 10 10 23.43 10 40C10 56.57 23.42 70 39.97 70C54.88 70 67.25 59.1 69.56 44.82 H103.37 V50.74"/>
          </g>
        </g>
      </g>
      <g id="g-root-cp_7_g-7_1d2ej5lsdji81-stroke" transform="translate(158.1400146484375, 340.75)"/>
      <g id="g-root-cp_8_g-8_146riwpsdjj0q-fill" transform="translate(209.37701416015625, 217.153076171875)">
        <g id="cp_8_g-8_146riwpsdjj0q-fill-merged" stroke="none" fill="#fb6762" fill-opacity="1">
          <g>
            <path d="M77.213 92.416L93.033 93.036L92.412 77.216L88.183 81.446L64.283 57.546C72.783 45.816 71.762 29.336 61.202 18.776C49.493 7.066 30.513 7.076 18.792 18.796C7.073 30.516 7.073 49.496 18.772 61.206C29.323 71.756 45.772 72.786 57.493 64.326L81.402 88.236L77.213 92.426"/>
          </g>
        </g>
      </g>
      <g id="g-root-cp_8_g-8_146riwpsdjj0q-stroke" transform="translate(209.37701416015625, 217.153076171875)"/>
      <g id="g-root-ic_comp_htdy0psnc4ju-fill" transform="translate(327, 333.9959716796875)">
        <g id="ic_comp_htdy0psnc4ju-fill-merged" stroke="none" fill="#2c2c2c" fill-opacity="1">
          <g>
            <path d="M13 44.47C13 47.867 15.753 50.62 19.15 50.62C22.547 50.62 25.3 47.867 25.3 44.47C25.3 41.073 22.547 38.32 19.15 38.32C15.753 38.32 13 41.073 13 44.47 M39.85 19.15C39.85 22.547 42.603 25.3 46 25.3C49.397 25.3 52.15 22.547 52.15 19.15C52.15 15.753 49.397 13 46 13C42.603 13 39.85 15.753 39.85 19.15 M39.85 72.85C39.85 76.247 42.603 79 46 79C49.397 79 52.15 76.247 52.15 72.85C52.15 69.453 49.397 66.7 46 66.7C42.603 66.7 39.85 69.453 39.85 72.85 M66.7 72.85C66.7 76.247 69.453 79 72.85 79C76.247 79 79 76.247 79 72.85C79 69.453 76.247 66.7 72.85 66.7C69.453 66.7 66.7 69.453 66.7 72.85 M76 35.83 V27.76C79.473 26.508 81.83 23.263 81.944 19.573C82.059 15.883 79.909 12.497 76.52 11.032C73.132 9.567 69.192 10.32 66.583 12.931C63.973 15.542 63.223 19.482 64.69 22.87L50.2 36.37C47.572 34.983 44.428 34.983 41.8 36.37L27.46 22.87C29.05 19.228 28.062 14.974 25.03 12.404C21.998 9.835 17.64 9.558 14.307 11.724C10.975 13.889 9.457 17.984 10.574 21.798C11.69 25.612 15.176 28.243 19.15 28.27C20.612 28.276 22.054 27.926 23.35 27.25L37.66 40.72C36.501 43.264 36.59 46.201 37.9 48.67L22.9 64.54C21.719 64.014 20.443 63.738 19.15 63.73C14.179 63.73 10.15 67.759 10.15 72.73C10.15 77.701 14.179 81.73 19.15 81.73C24.121 81.73 28.15 77.701 28.15 72.73C28.156 71.268 27.806 69.826 27.13 68.53L42.13 52.66C43.304 53.207 44.585 53.483 45.88 53.47C49.737 53.491 53.192 51.091 54.52 47.47 H64.12C65.641 51.248 69.51 53.533 73.553 53.043C77.596 52.552 80.806 49.407 81.379 45.375C81.952 41.343 79.746 37.428 76 35.83 M54.79 41.47C54.79 41.2 54.58 40.96 54.49 40.72L68.8 27.25L70 27.76 V35.83C67.313 36.721 65.188 38.802 64.24 41.47 H54.79 M73 16C74.657 16 76 17.343 76 19C76 20.657 74.657 22 73 22C71.343 22 70 20.657 70 19C70 17.343 71.343 16 73 16 M16 19.15C16 17.493 17.343 16.15 19 16.15C20.657 16.15 22 17.493 22 19.15C22 20.807 20.657 22.15 19 22.15C17.343 22.15 16 20.807 16 19.15 M19 76.15C17.363 76.148 16.03 74.834 16.004 73.198C15.978 71.561 17.269 70.206 18.905 70.152C20.541 70.098 21.918 71.365 22 73C22.002 74.6 20.748 75.92 19.15 76L19 76.15 M46 47.74C44.365 47.658 43.098 46.281 43.152 44.645C43.206 43.009 44.561 41.718 46.198 41.744C47.834 41.77 49.148 43.103 49.15 44.74C49.111 45.536 48.757 46.284 48.166 46.819C47.575 47.353 46.796 47.631 46 47.59 V47.74 M73 47.74C71.269 47.74 69.865 46.336 69.865 44.605C69.865 42.874 71.269 41.47 73 41.47C74.732 41.47 76.135 42.873 76.135 44.605C76.135 46.337 74.732 47.74 73 47.74"/>
          </g>
        </g>
      </g>
      <g id="g-root-ic_comp_htdy0psnc4ju-stroke" transform="translate(327, 333.9959716796875)"/>
      <g id="g-root-ic_wifi_1unfss9sdp5vz-fill" transform="translate(345, 528.0980224609375)">
        <g id="ic_wifi_1unfss9sdp5vz-fill-merged" stroke="none" fill="#2c2c2c" fill-opacity="1">
          <g>
            <path d="M34.724 11.964C37.239 9.442 41.395 9.252 44.099 11.964C46.648 14.518 46.611 18.661 44.126 21.328C44.116 21.339 44.106 21.35 44.095 21.361L42.769 22.672L33.394 13.297L34.724 11.962 M31.274 15.421L13.024 33.726C12.883 33.867 12.782 34.043 12.732 34.236L10.036 44.591C9.935 44.978 10.047 45.389 10.329 45.672C10.612 45.954 11.023 46.065 11.41 45.964L21.737 43.262C21.928 43.212 22.103 43.112 22.243 42.973L26.188 39.072C26.131 38.6 26.164 38.121 26.285 37.661C24.671 37.715 23.204 36.728 22.644 35.213C22.084 33.697 22.558 31.994 23.819 30.985C27.846 27.768 33.05 26.413 38.134 27.257L40.636 24.782L31.276 15.422 M45.1 32.743C39.287 28.104 31.038 28.104 25.225 32.743C24.578 33.261 24.474 34.205 24.991 34.852C25.509 35.499 26.453 35.604 27.1 35.086C31.817 31.325 38.508 31.325 43.225 35.086C43.872 35.604 44.816 35.499 45.334 34.852C45.852 34.205 45.747 33.261 45.1 32.743 M39.442 39.76C37.001 37.687 33.325 37.687 30.885 39.76C30.252 40.286 29.314 40.205 28.782 39.579C28.249 38.952 28.321 38.013 28.942 37.474C32.501 34.449 37.825 34.449 41.384 37.474C42.006 38.013 42.078 38.952 41.545 39.579C41.012 40.205 40.074 40.286 39.442 39.76 M37.212 43.456C37.232 44.201 36.846 44.898 36.204 45.277C35.562 45.655 34.765 45.655 34.123 45.277C33.481 44.898 33.095 44.201 33.115 43.456C33.145 42.346 34.053 41.462 35.163 41.462C36.273 41.462 37.181 42.346 37.212 43.456"/>
          </g>
        </g>
      </g>
      <g id="g-root-ic_wifi_1unfss9sdp5vz-stroke" transform="translate(345, 528.0980224609375)"/>
      <g id="g-root-ic_cash_qs6n3tsdnpxh-fill" transform="translate(468, 475)">
        <g id="ic_cash_qs6n3tsdnpxh-fill-merged" stroke="none" fill="#2c2c2c" fill-opacity="1">
          <g>
            <path d="M37 28C32.029 28 28 32.029 28 37C28 41.971 32.029 46 37 46C41.971 46 46 41.971 46 37C46 32.029 41.971 28 37 28 M38.41 42.175C38.241 42.211 38.121 42.362 38.125 42.535 V42.85C38.125 43.471 37.621 43.975 37 43.975C36.379 43.975 35.875 43.471 35.875 42.85 V42.625C35.875 42.418 35.707 42.25 35.5 42.25 H34.93C34.309 42.25 33.805 41.746 33.805 41.125C33.805 40.504 34.309 40 34.93 40 H37.735C38.133 40 38.455 39.678 38.455 39.28C38.454 38.985 38.277 38.719 38.005 38.605L35.17 37.48C33.996 36.968 33.277 35.768 33.378 34.492C33.48 33.216 34.38 32.145 35.62 31.825C35.773 31.789 35.879 31.652 35.875 31.495 V31.15C35.875 30.529 36.379 30.025 37 30.025C37.621 30.025 38.125 30.529 38.125 31.15 V31.375C38.125 31.582 38.293 31.75 38.5 31.75 H39.07C39.691 31.75 40.195 32.254 40.195 32.875C40.195 33.496 39.691 34 39.07 34 H36.265C35.867 34 35.545 34.322 35.545 34.72C35.546 35.015 35.723 35.281 35.995 35.395L38.83 36.52C40.004 37.026 40.729 38.222 40.634 39.497C40.539 40.773 39.646 41.848 38.41 42.175 M28.99 31C28.99 30.172 28.318 29.5 27.49 29.5 H22.36C22.187 29.504 22.036 29.384 22 29.215L20.275 21.715C20.23 21.61 20.23 21.49 20.275 21.385C20.349 21.296 20.46 21.246 20.575 21.25 H40.42C40.663 21.254 40.89 21.37 41.035 21.565C41.176 21.761 41.21 22.014 41.125 22.24L40 25.615C39.744 26.402 40.173 27.248 40.96 27.505C41.109 27.559 41.267 27.584 41.425 27.58C42.086 27.573 42.665 27.135 42.85 26.5L44.35 22C44.627 21.125 44.471 20.17 43.928 19.429C43.386 18.688 42.523 18.25 41.605 18.25 H19.765C19.596 18.243 19.45 18.128 19.405 17.965L18.085 12.235C17.783 10.922 16.612 9.994 15.265 10 H11.5C10.672 10 10 10.672 10 11.5C10 12.328 10.672 13 11.5 13 H14.86C15.038 12.989 15.198 13.11 15.235 13.285L20.275 35.185C20.308 35.341 20.243 35.501 20.11 35.59C19.162 36.213 18.597 37.276 18.61 38.41C18.621 40.059 19.822 41.458 21.451 41.719C23.079 41.98 24.657 41.027 25.183 39.464C25.71 37.901 25.03 36.187 23.575 35.41C23.476 35.365 23.403 35.276 23.38 35.17L22.885 33.01C22.834 32.911 22.834 32.794 22.885 32.695C22.954 32.606 23.058 32.552 23.17 32.545 H27.445C27.858 32.558 28.259 32.399 28.551 32.106C28.844 31.814 29.003 31.413 28.99 31"/>
          </g>
        </g>
      </g>
      <g id="g-root-ic_cash_qs6n3tsdnpxh-stroke" transform="translate(468, 475)"/>
      <g id="g-root-ic_5_1cuad15sdusci-fill" transform="translate(222, 229)">
        <g id="ic_5_1cuad15sdusci-fill-merged" stroke="none" fill="#2c2c2c" fill-opacity="1">
          <g>
            <path d="M28 15.475C28.828 15.475 29.5 14.803 29.5 13.975 V10.75C29.5 9.922 28.828 9.25 28 9.25C27.172 9.25 26.5 9.922 26.5 10.75 V13.975C26.5 14.803 27.172 15.475 28 15.475 M15.4 24.16 H12.175C11.347 24.16 10.675 24.832 10.675 25.66C10.675 26.488 11.347 27.16 12.175 27.16 H15.4C16.228 27.16 16.9 26.488 16.9 25.66C16.9 24.832 16.228 24.16 15.4 24.16 M20.155 19C20.41 18.694 20.533 18.299 20.496 17.902C20.46 17.505 20.267 17.139 19.96 16.885L17.095 14.5C16.789 14.245 16.394 14.122 15.997 14.159C15.6 14.195 15.234 14.388 14.98 14.695C14.725 15.001 14.602 15.396 14.639 15.793C14.675 16.19 14.868 16.556 15.175 16.81L18.04 19.225C18.31 19.449 18.65 19.571 19 19.57C19.451 19.563 19.875 19.354 20.155 19 M43.825 24.16 H40.6C39.772 24.16 39.1 24.832 39.1 25.66C39.1 26.488 39.772 27.16 40.6 27.16 H43.825C44.653 27.16 45.325 26.488 45.325 25.66C45.325 24.832 44.653 24.16 43.825 24.16 M41.02 14.725C40.77 14.414 40.406 14.215 40.009 14.173C39.612 14.131 39.215 14.248 38.905 14.5L36.04 16.915C35.553 17.319 35.371 17.985 35.586 18.58C35.802 19.175 36.367 19.571 37 19.57C37.35 19.571 37.69 19.449 37.96 19.225L40.825 16.84C41.132 16.586 41.325 16.22 41.361 15.823C41.398 15.426 41.275 15.031 41.02 14.725 M34.84 20.95 H21.16C20.332 20.95 19.66 21.622 19.66 22.45 V43.75C19.66 44.578 20.332 45.25 21.16 45.25 H24.775C25.189 45.25 25.525 44.914 25.525 44.5 V39.25C25.525 38.836 25.861 38.5 26.275 38.5 H29.725C30.139 38.5 30.475 38.836 30.475 39.25 V44.5C30.475 44.914 30.811 45.25 31.225 45.25 H34.84C35.668 45.25 36.34 44.578 36.34 43.75 V22.45C36.34 21.622 35.668 20.95 34.84 20.95 M26.32 33.49C26.312 33.901 25.981 34.232 25.57 34.24 H23.575C23.161 34.24 22.825 33.904 22.825 33.49 V31.24C22.825 30.826 23.161 30.49 23.575 30.49 H25.57C25.981 30.498 26.312 30.829 26.32 31.24 V33.49 M26.32 27.25C26.32 27.664 25.984 28 25.57 28 H23.575C23.161 28 22.825 27.664 22.825 27.25 V25C22.825 24.586 23.161 24.25 23.575 24.25 H25.57C25.984 24.25 26.32 24.586 26.32 25 V27.25 M33.175 33.49C33.175 33.904 32.839 34.24 32.425 34.24 H30.43C30.019 34.232 29.688 33.901 29.68 33.49 V31.24C29.688 30.829 30.019 30.498 30.43 30.49 H32.5C32.914 30.49 33.25 30.826 33.25 31.24L33.175 33.49 M33.175 27.25C33.175 27.664 32.839 28 32.425 28 H30.43C30.016 28 29.68 27.664 29.68 27.25 V25C29.68 24.586 30.016 24.25 30.43 24.25 H32.5C32.914 24.25 33.25 24.586 33.25 25L33.175 27.25"/>
          </g>
        </g>
      </g>
      <g id="g-root-ic_5_1cuad15sdusci-stroke" transform="translate(222, 229)"/>
      <g id="g-root-ic_pain_1lto7spsdqjus-fill" transform="translate(221, 476)">
        <g id="ic_pain_1lto7spsdqjus-fill-merged" stroke="none" fill="#2c2c2c" fill-opacity="1">
          <g>
            <path d="M43 10 H13C11.343 10 10 11.343 10 13 V26.5C10 28.157 11.343 29.5 13 29.5 H43C44.657 29.5 46 28.157 46 26.5 V13C46 11.343 44.657 10 43 10 M43 25.75C43 26.164 42.664 26.5 42.25 26.5 H13.75C13.336 26.5 13 26.164 13 25.75 V13.75C13 13.336 13.336 13 13.75 13 H42.25C42.664 13 43 13.336 43 13.75 V25.75 M36.31 16.795C36.172 16.549 35.917 16.39 35.635 16.375C35.349 16.362 35.076 16.498 34.915 16.735L31.315 22.15C31.187 22.362 30.962 22.496 30.715 22.51C30.477 22.538 30.239 22.455 30.07 22.285L27.31 19.51C27.143 19.355 26.923 19.269 26.695 19.27C26.47 19.286 26.261 19.388 26.11 19.555L22.945 23.275C22.744 23.518 22.7 23.855 22.83 24.142C22.961 24.43 23.244 24.617 23.56 24.625 H39.19C39.477 24.627 39.742 24.472 39.88 24.22C40.031 23.971 40.031 23.659 39.88 23.41L36.31 16.795 M16.75 17.5C16.75 18.95 17.925 20.125 19.375 20.125C20.825 20.125 22 18.95 22 17.5C22 16.05 20.825 14.875 19.375 14.875C17.925 14.875 16.75 16.05 16.75 17.5 M45.175 38.38C44.226 37.909 43.343 37.313 42.55 36.61C42.443 36.505 42.402 36.349 42.445 36.205C42.567 35.858 42.628 35.493 42.625 35.125C42.625 33.261 41.114 31.75 39.25 31.75C37.386 31.75 35.875 33.261 35.875 35.125C35.872 35.493 35.933 35.858 36.055 36.205C36.098 36.349 36.057 36.505 35.95 36.61C31.41 40.625 24.59 40.625 20.05 36.61C19.943 36.505 19.902 36.349 19.945 36.205C20.067 35.858 20.128 35.493 20.125 35.125C20.125 33.261 18.614 31.75 16.75 31.75C14.886 31.75 13.375 33.261 13.375 35.125C13.372 35.493 13.433 35.858 13.555 36.205C13.598 36.349 13.557 36.505 13.45 36.61C12.657 37.313 11.774 37.909 10.825 38.38C10.21 38.695 9.89 39.39 10.05 40.062C10.21 40.735 10.809 41.211 11.5 41.215C11.734 41.218 11.965 41.167 12.175 41.065C13.046 40.645 13.874 40.142 14.65 39.565C14.771 39.498 14.919 39.498 15.04 39.565C15.169 39.624 15.251 39.753 15.25 39.895 V44.5C15.25 45.328 15.922 46 16.75 46C17.578 46 18.25 45.328 18.25 44.5 V39.805C18.249 39.663 18.331 39.534 18.46 39.475C18.581 39.408 18.729 39.408 18.85 39.475C24.243 43.627 31.757 43.627 37.15 39.475C37.271 39.408 37.419 39.408 37.54 39.475C37.669 39.534 37.751 39.663 37.75 39.805 V44.5C37.75 45.328 38.422 46 39.25 46C40.078 46 40.75 45.328 40.75 44.5 V39.805C40.749 39.663 40.831 39.534 40.96 39.475C41.081 39.408 41.229 39.408 41.35 39.475C42.126 40.052 42.954 40.555 43.825 40.975C44.035 41.077 44.266 41.128 44.5 41.125C45.191 41.121 45.79 40.645 45.95 39.972C46.11 39.3 45.79 38.605 45.175 38.29 V38.38"/>
          </g>
        </g>
      </g>
      <g id="g-root-ic_pain_1lto7spsdqjus-stroke" transform="translate(221, 476)"/>
      <g id="g-root-ic_sear_1hhlk6xsdkzk7-fill" transform="translate(345, 178)">
        <g id="ic_sear_1hhlk6xsdkzk7-fill-merged" stroke="none" fill="#2c2c2c" fill-opacity="1">
          <g>
            <path d="M44.5 45.565C44.784 45.283 44.944 44.9 44.944 44.5C44.944 44.1 44.784 43.717 44.5 43.435L40.915 40C40.675 39.755 40.632 39.378 40.81 39.085C41.57 37.811 41.969 36.354 41.965 34.87C41.965 30.289 38.251 26.575 33.67 26.575C29.089 26.575 25.375 30.289 25.375 34.87C25.375 39.451 29.089 43.165 33.67 43.165C35.154 43.169 36.611 42.77 37.885 42.01C38.178 41.832 38.555 41.875 38.8 42.115L42.31 45.64C42.604 45.933 43.006 46.092 43.421 46.078C43.836 46.064 44.227 45.878 44.5 45.565 M33.73 40.09C30.806 40.09 28.435 37.719 28.435 34.795C28.435 31.871 30.806 29.5 33.73 29.5C36.654 29.5 39.025 31.871 39.025 34.795C39.021 36.209 38.454 37.562 37.449 38.556C36.443 39.55 35.083 40.102 33.67 40.09 H33.73 M32.875 45.55C32.869 45.365 32.729 45.212 32.545 45.19C26.747 44.89 22.29 39.948 22.588 34.15C22.886 28.352 27.827 23.893 33.625 24.19C35.835 24.184 37.989 24.883 39.775 26.185C39.895 26.258 40.045 26.258 40.165 26.185C40.294 26.126 40.376 25.997 40.375 25.855 V19C40.404 17.552 39.394 16.289 37.975 16C37.626 15.929 37.375 15.621 37.375 15.265 V13C37.375 11.343 36.032 10 34.375 10 H15.625C13.14 10 11.125 12.015 11.125 14.5 V41.5C11.125 43.985 13.14 46 15.625 46 H32.5C32.707 46 32.875 45.832 32.875 45.625 V45.55 M14.125 14.5C14.125 13.672 14.797 13 15.625 13 H34C34.207 13 34.375 13.168 34.375 13.375 V15.625C34.375 15.832 34.207 16 34 16 H15.625C14.797 16 14.125 15.328 14.125 14.5"/>
          </g>
        </g>
      </g>
      <g id="g-root-ic_sear_1hhlk6xsdkzk7-stroke" transform="translate(345, 178)"/>
      <g id="g-root-ic_cros_dgq4qhsdme4h-fill" transform="translate(468, 229)">
        <g id="ic_cros_dgq4qhsdme4h-fill-merged" stroke="none" fill="#2c2c2c" fill-opacity="1">
          <g>
            <path d="M10.435 32.815L14.185 36.565C14.468 36.846 14.851 37.002 15.25 37 H25C25.414 37 25.75 37.336 25.75 37.75 V45.25C25.75 45.664 26.086 46 26.5 46 H29.5C29.914 46 30.25 45.664 30.25 45.25 V37.75C30.25 37.336 30.586 37 31 37 H40C40.828 37 41.5 36.328 41.5 35.5 V28C41.5 27.172 40.828 26.5 40 26.5 H31C30.586 26.5 30.25 26.164 30.25 25.75 V24.25C30.25 23.836 30.586 23.5 31 23.5 H40.75C41.149 23.502 41.532 23.346 41.815 23.065L45.565 19.315C45.849 19.033 46.009 18.65 46.009 18.25C46.009 17.85 45.849 17.467 45.565 17.185L41.815 13.435C41.532 13.154 41.149 12.998 40.75 13 H31C30.586 13 30.25 12.664 30.25 12.25C30.25 11.007 29.243 10 28 10C26.757 10 25.75 11.007 25.75 12.25C25.75 12.664 25.414 13 25 13 H16C15.172 13 14.5 13.672 14.5 14.5 V22C14.5 22.828 15.172 23.5 16 23.5 H25C25.414 23.5 25.75 23.836 25.75 24.25 V25.75C25.75 26.164 25.414 26.5 25 26.5 H15.25C14.851 26.498 14.468 26.654 14.185 26.935L10.435 30.685C10.151 30.967 9.991 31.35 9.991 31.75C9.991 32.15 10.151 32.533 10.435 32.815"/>
          </g>
        </g>
      </g>
      <g id="g-root-ic_cros_dgq4qhsdme4h-stroke" transform="translate(468, 229)"/>
      <g id="g-root-ic_medi_zly83dsdnq4j-fill" transform="translate(519, 352)">
        <g id="ic_medi_zly83dsdnq4j-fill-merged" stroke="none" fill="#2c2c2c" fill-opacity="1">
          <g>
            <path d="M28 36.385C26.964 36.667 25.894 36.808 24.82 36.805 H24.07C23.432 34.888 22.931 32.928 22.57 30.94 H28C28.273 30.937 28.539 30.853 28.765 30.7 V28.165C28.54 28.007 28.274 27.919 28 27.91 H22.12C21.906 25.948 21.836 23.972 21.91 22 H28.81C29.044 20.704 30.097 19.712 31.405 19.555C31.405 19.555 31.405 19.435 31.405 19.375 V19 H30.835C30.655 18.01 30.235 16 29.83 14.2C30.649 14.583 31.419 15.061 32.125 15.625C32.588 14.939 33.254 14.414 34.03 14.125 V13.315C32.261 11.925 30.199 10.956 28 10.48 H27.865C20.657 8.922 13.407 12.934 10.9 19.87C10.9 19.87 10.9 19.99 10.9 20.05C9.76 23.231 9.76 26.709 10.9 29.89 V30.07C12.759 35.116 17.199 38.764 22.51 39.61C22.655 39.658 22.807 39.683 22.96 39.685C23.582 39.763 24.208 39.803 24.835 39.805C26.162 39.805 27.484 39.628 28.765 39.28 V36.385C28.515 36.315 28.25 36.315 28 36.385 M19.12 27.91 H13.375C13.129 26.959 13.003 25.982 13 25C13.003 23.988 13.134 22.98 13.39 22 H18.91C18.836 23.972 18.906 25.948 19.12 27.91 M26.5 13.255C26.89 14.875 27.49 17.53 27.775 19.015 H22.12C22.336 17.072 22.691 15.147 23.185 13.255C23.731 13.172 24.283 13.126 24.835 13.12C25.392 13.128 25.949 13.173 26.5 13.255 M19.87 14.23C19.533 15.805 19.283 17.397 19.12 19 H14.62C15.843 16.912 17.675 15.248 19.87 14.23 M14.605 30.91 H19.525C19.822 32.646 20.218 34.364 20.71 36.055C18.14 35.099 15.983 33.28 14.605 30.91 M34.39 20.14 H41.14C41.495 20.132 41.796 19.875 41.86 19.525C41.86 19.525 41.86 19.435 41.86 19.39 V17.77C41.836 17.54 41.77 17.316 41.665 17.11C41.594 17.003 41.514 16.902 41.425 16.81C41.378 16.734 41.323 16.663 41.26 16.6C41.155 16.51 41.035 16.465 40.93 16.39L40.705 16.27C40.6 16.256 40.495 16.256 40.39 16.27C40.291 16.256 40.189 16.256 40.09 16.27 H39.235 V11.5C39.235 10.672 38.563 10 37.735 10C36.907 10 36.235 10.672 36.235 11.5 V16.15 H35.5C35.385 16.143 35.27 16.143 35.155 16.15C35.07 16.142 34.985 16.142 34.9 16.15C34.77 16.211 34.645 16.281 34.525 16.36C34.45 16.396 34.379 16.441 34.315 16.495C34.206 16.593 34.114 16.71 34.045 16.84C33.996 16.891 33.95 16.946 33.91 17.005C33.806 17.195 33.745 17.404 33.73 17.62 V19.39C33.727 19.771 34.011 20.094 34.39 20.14 M46 44.5C46 43.672 45.328 43 44.5 43 V22.495C44.484 22.093 44.153 21.775 43.75 21.775 H31.75C31.555 21.778 31.368 21.853 31.225 21.985C31.086 22.119 31.005 22.302 31 22.495 V43 H11.815C10.987 43 10.315 43.672 10.315 44.5C10.315 45.328 10.987 46 11.815 46 H44.5C45.328 46 46 45.328 46 44.5 M40 29.14 H35.5C34.879 29.14 34.375 28.636 34.375 28.015C34.375 27.394 34.879 26.89 35.5 26.89 H40C40.621 26.89 41.125 27.394 41.125 28.015C41.125 28.636 40.621 29.14 40 29.14 M41.125 33.535C41.125 34.156 40.621 34.66 40 34.66 H35.5C34.879 34.66 34.375 34.156 34.375 33.535C34.375 32.914 34.879 32.41 35.5 32.41 H40C40.624 32.41 41.132 32.911 41.14 33.535 M35.5 37.93 H40C40.621 37.93 41.125 38.434 41.125 39.055C41.125 39.676 40.621 40.18 40 40.18 H35.5C34.879 40.18 34.375 39.676 34.375 39.055C34.375 38.434 34.879 37.93 35.5 37.93"/>
          </g>
        </g>
      </g>
      <g id="g-root-ic_medi_zly83dsdnq4j-stroke" transform="translate(519, 352)"/>
      <g id="g-root-ic_circ_1d3108psdry86-fill" transform="translate(171, 351.9959716796875)">
        <g id="ic_circ_1d3108psdry86-fill-merged" stroke="none" fill="#2c2c2c" fill-opacity="1">
          <g>
            <path d="M28 46C44.05 46 45.775 42.895 45.775 41.5C45.775 40.54 45.775 38.275 35.275 37.345C34.447 37.275 33.718 37.889 33.647 38.717C33.577 39.546 34.192 40.275 35.02 40.345C36.923 40.489 38.813 40.77 40.675 41.185C40.844 41.221 40.964 41.372 40.96 41.545C40.953 41.714 40.838 41.86 40.675 41.905C36.502 42.726 32.252 43.094 28 43C23.767 43.084 19.538 42.712 15.385 41.89C15.211 41.842 15.093 41.68 15.1 41.5C15.096 41.327 15.216 41.176 15.385 41.14C17.229 40.733 19.098 40.452 20.98 40.3C21.791 40.221 22.391 39.508 22.33 38.695C22.243 37.89 21.533 37.299 20.725 37.36C10.225 38.29 10.225 40.54 10.225 41.5C10.225 45.565 22.66 46 28 46 M29.905 19.945C29.759 19.891 29.658 19.756 29.65 19.6C29.65 19.443 29.745 19.301 29.89 19.24C31.994 18.342 33.176 16.088 32.717 13.847C32.259 11.606 30.287 9.996 28 9.996C25.713 9.996 23.741 11.606 23.283 13.847C22.824 16.088 24.006 18.342 26.11 19.24C26.255 19.301 26.35 19.443 26.35 19.6C26.342 19.756 26.241 19.891 26.095 19.945C23.706 20.78 22.098 23.024 22.075 25.555 V30.055C22.071 30.253 22.147 30.443 22.285 30.584C22.423 30.726 22.612 30.805 22.81 30.805 H24.145C24.333 30.804 24.489 30.948 24.505 31.135L25 37.465C25.024 37.851 25.349 38.149 25.735 38.14 H30.235C30.621 38.149 30.946 37.851 30.97 37.465L31.51 31.075C31.526 30.888 31.682 30.744 31.87 30.745 H33.205C33.403 30.745 33.592 30.666 33.73 30.524C33.868 30.383 33.944 30.193 33.94 29.995 V25.495C33.89 22.983 32.28 20.767 29.905 19.945 M17.17 21.415C17.026 21.367 16.925 21.236 16.915 21.085C16.916 20.932 17.003 20.793 17.14 20.725C18.87 19.913 19.806 18.009 19.39 16.144C18.974 14.278 17.319 12.951 15.408 12.951C13.496 12.951 11.841 14.278 11.425 16.144C11.009 18.009 11.945 19.913 13.675 20.725C13.817 20.787 13.907 20.93 13.9 21.085C13.89 21.236 13.789 21.367 13.645 21.415C11.593 22.159 10.227 24.108 10.225 26.29 V28.525C10.225 28.716 10.3 28.9 10.435 29.035C10.573 29.178 10.762 29.259 10.96 29.26 H12.19C12.381 29.259 12.542 29.401 12.565 29.59L13.195 35.275C13.234 35.649 13.554 35.93 13.93 35.92 H16.93C17.306 35.93 17.626 35.649 17.665 35.275L18.295 29.59C18.318 29.401 18.479 29.259 18.67 29.26 H19.9C20.306 29.26 20.635 28.931 20.635 28.525 V26.29C20.627 24.096 19.239 22.144 17.17 21.415 M42.355 21.415C42.211 21.367 42.11 21.236 42.1 21.085C42.093 20.93 42.183 20.787 42.325 20.725C44.055 19.913 44.991 18.009 44.575 16.144C44.159 14.278 42.504 12.951 40.592 12.951C38.681 12.951 37.026 14.278 36.61 16.144C36.194 18.009 37.13 19.913 38.86 20.725C38.997 20.793 39.084 20.932 39.085 21.085C39.075 21.236 38.974 21.367 38.83 21.415C36.778 22.159 35.412 24.108 35.41 26.29 V28.525C35.41 28.716 35.485 28.9 35.62 29.035C35.758 29.178 35.947 29.259 36.145 29.26 H37.375C37.566 29.259 37.727 29.401 37.75 29.59L38.38 35.275C38.419 35.649 38.739 35.93 39.115 35.92 H42.115C42.491 35.93 42.811 35.649 42.85 35.275L43.48 29.59C43.503 29.401 43.664 29.259 43.855 29.26 H45.085C45.491 29.26 45.82 28.931 45.82 28.525 V26.29C45.812 24.096 44.424 22.144 42.355 21.415"/>
          </g>
        </g>
      </g>
      <g id="g-root-ic_circ_1d3108psdry86-stroke" transform="translate(171, 351.9959716796875)"/>
      <g id="g-root-tx_microsit_92s1vdsdkzr7-fill" transform="translate(131.66668701171875, 170)">
        <g id="tx_microsit_92s1vdsdkzr7-fill-merged" stroke="none" fill="#fb6762" fill-opacity="1">
          <g>
            <text style="font: bold 12px &quot;Roboto&quot;, sans-serif; white-space: pre;" transform="translate(73.33331298828125, 17)" font-weight="bold" font-size="12px" font-family="'Roboto', sans-serif"><tspan x="-61.33" y="6.25" dominant-baseline="ideographic">Microsites</tspan></text>
          </g>
        </g>
      </g>
      <g id="g-root-tx_microsit_92s1vdsdkzr7-stroke" transform="translate(131.66668701171875, 170)"/>
      <g id="g-root-tx_communit_v993ehsdkzrj-fill" transform="translate(65, 338)">
        <g id="tx_communit_v993ehsdkzrj-fill-merged" stroke="none" fill="#f366bb" fill-opacity="1">
          <g>
            <text style="font: bold 12px &quot;Roboto&quot;, sans-serif; white-space: pre;" transform="translate(80, 24)" font-weight="bold" font-size="12px" font-family="'Roboto', sans-serif"><tspan x="-68" y="-0.75" dominant-baseline="ideographic">Community </tspan><tspan x="-54.45" y="13.25" dominant-baseline="ideographic">Websites</tspan></text>
          </g>
        </g>
      </g>
      <g id="g-root-tx_communit_v993ehsdkzrj-stroke" transform="translate(65, 338)"/>
      <g id="g-root-tx_corporat_1luaovtsdkxl3-fill" transform="translate(591, 338)">
        <g id="tx_corporat_1luaovtsdkxl3-fill-merged" stroke="none" fill="#1ac3fb" fill-opacity="1">
          <g>
            <text style="font: bold 12px &quot;Roboto&quot;, sans-serif; white-space: pre;" transform="translate(10, 24)" font-weight="bold" font-size="12px" font-family="'Roboto', sans-serif"><tspan x="2" y="-0.75" dominant-baseline="ideographic">Corporate </tspan><tspan x="2" y="13.25" dominant-baseline="ideographic">Websites</tspan></text>
          </g>
        </g>
      </g>
      <g id="g-root-tx_corporat_1luaovtsdkxl3-stroke" transform="translate(591, 338)"/>
      <g id="g-root-tx_frderung_qu22d5sdkxe1-fill" transform="translate(36.34999084472656, 366)">
        <g id="tx_frderung_qu22d5sdkxe1-fill-merged" stroke="none" fill="#000000" fill-opacity="1">
          <g>
            <text style="font: 10.5px &quot;Roboto&quot;, sans-serif; white-space: pre;" transform="translate(108.65000915527344, 28)" font-size="10.5px" font-family="'Roboto', sans-serif"><tspan x="-67.3" y="-5.5" dominant-baseline="ideographic">Förderung der </tspan><tspan x="-92.88" y="6.5" dominant-baseline="ideographic">Benutzerinteraktion </tspan><tspan x="-96.65" y="18.5" dominant-baseline="ideographic">und des Austauschs</tspan></text>
          </g>
        </g>
      </g>
      <g id="g-root-tx_frderung_qu22d5sdkxe1-stroke" transform="translate(36.34999084472656, 366)"/>
      <g id="g-root-tx_prsentat_18iu6ihsdkz61-fill" transform="translate(591, 366)">
        <g id="tx_prsentat_18iu6ihsdkz61-fill-merged" stroke="none" fill="#000000" fill-opacity="1">
          <g>
            <text style="font: 10.5px &quot;Roboto&quot;, sans-serif; white-space: pre;" transform="translate(10, 28)" font-size="10.5px" font-family="'Roboto', sans-serif"><tspan x="2" y="-5.5" dominant-baseline="ideographic">Präsentation von </tspan><tspan x="2" y="6.5" dominant-baseline="ideographic">Unternehmen und </tspan><tspan x="2" y="18.5" dominant-baseline="ideographic">ihren Angeboten</tspan></text>
          </g>
        </g>
      </g>
      <g id="g-root-tx_prsentat_18iu6ihsdkz61-stroke" transform="translate(591, 366)"/>
      <g id="g-root-tx_sulender_qp29o9sdkx6t-fill" transform="translate(267.5749816894531, 38)">
        <g id="tx_sulender_qp29o9sdkx6t-fill-merged" stroke="none" fill="#000000" fill-opacity="1">
          <g>
            <text style="font: bold 20px &quot;Roboto&quot;, sans-serif; white-space: pre;" transform="translate(105.42501831054688, 22)" font-weight="bold" font-size="20px" font-family="'Roboto', sans-serif"><tspan x="-93.43" y="12" dominant-baseline="ideographic">Arten von Webseiten</tspan></text>
          </g>
        </g>
      </g>
      <g id="g-root-tx_sulender_qp29o9sdkx6t-stroke" transform="translate(267.5749816894531, 38)"/>
      <g id="g-root-tx_speziell_dfh6k9sdkxs5-fill" transform="translate(531, 196)">
        <g id="tx_speziell_dfh6k9sdkxs5-fill-merged" stroke="none" fill="#000000" fill-opacity="1">
          <g>
            <text style="font: 10.5px &quot;Roboto&quot;, sans-serif; white-space: pre;" transform="translate(10, 28)" font-size="10.5px" font-family="'Roboto', sans-serif"><tspan x="2" y="-5.5" dominant-baseline="ideographic">Speziell gestaltete </tspan><tspan x="2" y="6.5" dominant-baseline="ideographic">Seiten zur Erreichung </tspan><tspan x="2" y="18.5" dominant-baseline="ideographic">bestimmter Ziele</tspan></text>
          </g>
        </g>
      </g>
      <g id="g-root-tx_speziell_dfh6k9sdkxs5-stroke" transform="translate(531, 196)"/>
      <g id="g-root-tx_relevant_1hclri1sdkzcx-fill" transform="translate(310.6499938964844, 100)">
        <g id="tx_relevant_1hclri1sdkzcx-fill-merged" stroke="none" fill="#000000" fill-opacity="1">
          <g>
            <text style="font: 10.5px &quot;Roboto&quot;, sans-serif; white-space: pre;" transform="translate(62.350006103515625, 34)" font-size="10.5px" font-family="'Roboto', sans-serif"><tspan x="-34.17" y="-11.5" dominant-baseline="ideographic">Relevante und </tspan><tspan x="-34.3" y="0.5" dominant-baseline="ideographic">ansprechende </tspan><tspan x="-50.35" y="12.5" dominant-baseline="ideographic">Informationen für die </tspan><tspan x="-26.08" y="24.5" dominant-baseline="ideographic">Zielgruppe</tspan></text>
          </g>
        </g>
      </g>
      <g id="g-root-tx_relevant_1hclri1sdkzcx-stroke" transform="translate(310.6499938964844, 100)"/>
      <g id="g-root-tx_inhalt_2rq0psdkx6v-fill" transform="translate(345.683349609375, 86)">
        <g id="tx_inhalt_2rq0psdkx6v-fill-merged" stroke="none" fill="#43dd93" fill-opacity="1">
          <g>
            <text style="font: bold 12px &quot;Roboto&quot;, sans-serif; white-space: pre;" transform="translate(27.316650390625, 17)" font-weight="bold" font-size="12px" font-family="'Roboto', sans-serif"><tspan x="-15.32" y="7.25" dominant-baseline="ideographic">Inhalt</tspan></text>
          </g>
        </g>
      </g>
      <g id="g-root-tx_inhalt_2rq0psdkx6v-stroke" transform="translate(345.683349609375, 86)"/>
      <g id="g-root-tx_portfoli_1hgcm0psdkxdv-fill" transform="translate(135, 502)">
        <g id="tx_portfoli_1hgcm0psdkxdv-fill-merged" stroke="none" fill="#8769fd" fill-opacity="1">
          <g>
            <text style="font: bold 12px &quot;Roboto&quot;, sans-serif; white-space: pre;" transform="translate(70, 17)" font-weight="bold" font-size="12px" font-family="'Roboto', sans-serif"><tspan x="-58" y="6.25" dominant-baseline="ideographic">Portfolios</tspan></text>
          </g>
        </g>
      </g>
      <g id="g-root-tx_portfoli_1hgcm0psdkxdv-stroke" transform="translate(135, 502)"/>
      <g id="g-root-tx_ecommerc_qs6n3tsdkydf-fill" transform="translate(531, 502)">
        <g id="tx_ecommerc_qs6n3tsdkydf-fill-merged" stroke="none" fill="#f79438" fill-opacity="1">
          <g>
            <text style="font: bold 12px &quot;Roboto&quot;, sans-serif; white-space: pre;" transform="translate(10, 24)" font-weight="bold" font-size="12px" font-family="'Roboto', sans-serif"><tspan x="2" y="-0.75" dominant-baseline="ideographic">E-Commerce </tspan><tspan x="2" y="13.25" dominant-baseline="ideographic">Websites</tspan></text>
          </g>
        </g>
      </g>
      <g id="g-root-tx_ecommerc_qs6n3tsdkydf-stroke" transform="translate(531, 502)"/>
      <g id="g-root-tx_prsentat_18kplrtsdky6l-fill" transform="translate(112.2166748046875, 516)">
        <g id="tx_prsentat_18kplrtsdky6l-fill-merged" stroke="none" fill="#000000" fill-opacity="1">
          <g>
            <text style="font: 10.5px &quot;Roboto&quot;, sans-serif; white-space: pre;" transform="translate(92.7833251953125, 28)" font-size="10.5px" font-family="'Roboto', sans-serif"><tspan x="-80.78" y="-5.5" dominant-baseline="ideographic">Präsentation von </tspan><tspan x="-61.32" y="6.5" dominant-baseline="ideographic">Arbeiten und </tspan><tspan x="-55.72" y="18.5" dominant-baseline="ideographic">Fähigkeiten</tspan></text>
          </g>
        </g>
      </g>
      <g id="g-root-tx_prsentat_18kplrtsdky6l-stroke" transform="translate(112.2166748046875, 516)"/>
      <g id="g-root-tx_kleinesp_7riplsdkxe5-fill" transform="translate(95.9000244140625, 184)">
        <g id="tx_kleinesp_7riplsdkxe5-fill-merged" stroke="none" fill="#000000" fill-opacity="1">
          <g>
            <text style="font: 10.5px &quot;Roboto&quot;, sans-serif; white-space: pre;" transform="translate(109.0999755859375, 34)" font-size="10.5px" font-family="'Roboto', sans-serif"><tspan x="-97.1" y="-11.5" dominant-baseline="ideographic">Kleine, spezialisierte </tspan><tspan x="-60.58" y="0.5" dominant-baseline="ideographic">Websites für </tspan><tspan x="-52.27" y="12.5" dominant-baseline="ideographic">bestimmte </tspan><tspan x="-58.18" y="24.5" dominant-baseline="ideographic">Kampagnen</tspan></text>
          </g>
        </g>
      </g>
      <g id="g-root-tx_kleinesp_7riplsdkxe5-stroke" transform="translate(95.9000244140625, 184)"/>
      <g id="g-root-tx_plattfor_hwjmuxsdkz65-fill" transform="translate(531, 530)">
        <g id="tx_plattfor_hwjmuxsdkz65-fill-merged" stroke="none" fill="#000000" fill-opacity="1">
          <g>
            <text style="font: 10.5px &quot;Roboto&quot;, sans-serif; white-space: pre;" transform="translate(10, 22)" font-size="10.5px" font-family="'Roboto', sans-serif"><tspan x="2" y="0.5" dominant-baseline="ideographic">Plattformen für den </tspan><tspan x="2" y="12.5" dominant-baseline="ideographic">Online-Verkauf</tspan></text>
          </g>
        </g>
      </g>
      <g id="g-root-tx_plattfor_hwjmuxsdkz65-stroke" transform="translate(531, 530)"/>
      <g id="g-root-tx_blogsmag_4lplkpsdkxlb-fill" transform="translate(314.14166259765625, 598)">
        <g id="tx_blogsmag_4lplkpsdkxlb-fill-merged" stroke="none" fill="#ffe711" fill-opacity="1">
          <g>
            <text style="font: bold 12px &quot;Roboto&quot;, sans-serif; white-space: pre;" transform="translate(58.85833740234375, 17)" font-weight="bold" font-size="12px" font-family="'Roboto', sans-serif"><tspan x="-46.86" y="7.25" dominant-baseline="ideographic">Blogs / Magazine</tspan></text>
          </g>
        </g>
      </g>
      <g id="g-root-tx_blogsmag_4lplkpsdkxlb-stroke" transform="translate(314.14166259765625, 598)"/>
      <g id="g-root-tx_landingp_qqb7uhsdkzcz-fill" transform="translate(531, 182)">
        <g id="tx_landingp_qqb7uhsdkzcz-fill-merged" stroke="none" fill="#a6da37" fill-opacity="1">
          <g>
            <text style="font: bold 12px &quot;Roboto&quot;, sans-serif; white-space: pre;" transform="translate(10, 17)" font-weight="bold" font-size="12px" font-family="'Roboto', sans-serif"><tspan x="2" y="7.25" dominant-baseline="ideographic">Landing Pages</tspan></text>
          </g>
        </g>
      </g>
      <g id="g-root-tx_landingp_qqb7uhsdkzcz-stroke" transform="translate(531, 182)"/>
      <g id="g-root-tx_regelmig_5w3g9sdkydl-fill" transform="translate(309.54168701171875, 612)">
        <g id="tx_regelmig_5w3g9sdkydl-fill-merged" stroke="none" fill="#000000" fill-opacity="1">
          <g>
            <text style="font: 10.5px &quot;Roboto&quot;, sans-serif; white-space: pre;" transform="translate(63.45831298828125, 28)" font-size="10.5px" font-family="'Roboto', sans-serif"><tspan x="-30.61" y="-5.5" dominant-baseline="ideographic">Regelmäßige </tspan><tspan x="-48.36" y="6.5" dominant-baseline="ideographic">Veröffentlichung von </tspan><tspan x="-51.46" y="18.5" dominant-baseline="ideographic">Artikeln und Beiträgen</tspan></text>
          </g>
        </g>
      </g>
      <g id="g-root-tx_regelmig_5w3g9sdkydl-stroke" transform="translate(309.54168701171875, 612)"/>
    </g>
  </g>
</svg>