<svg width="1050" height="530" viewBox="0 0 1050 530" fill="none" xmlns="http://www.w3.org/2000/svg">
    <rect x="35.7452" y="119.735" width="64" height="64" fill="#1D1D1F"/>
    <rect x="109.745" y="119.735" width="64" height="64" fill="#1D1D1F"/>
    <rect x="183.745" y="119.735" width="64" height="64" fill="#1D1D1F"/>
    <rect x="257.745" y="119.735" width="64" height="64" fill="#1D1D1F"/>
    <rect x="331.745" y="119.735" width="64" height="64" fill="#1D1D1F"/>
    <rect x="405.745" y="119.735" width="64" height="64" fill="#1D1D1F"/>
    <path d="M547.627 129.108L533.282 182.645L494.09 143.453L547.627 129.108Z" fill="#1D1D1F"/>
    <rect x="580.255" y="119.735" width="64" height="64" fill="#1D1D1F"/>
    <rect x="654.255" y="119.735" width="64" height="64" fill="#1D1D1F"/>
    <rect x="728.255" y="119.735" width="64" height="64" fill="#1D1D1F"/>
    <rect x="802.255" y="119.735" width="64" height="64" fill="#1D1D1F"/>
    <rect x="876.255" y="119.735" width="64" height="64" fill="#1D1D1F"/>
    <rect x="950.255" y="119.735" width="64" height="64" fill="#1D1D1F"/>
    <rect x="35.7452" y="195.245" width="64" height="64" fill="#1D1D1F"/>
    <rect x="109.745" y="195.245" width="64" height="64" fill="#1D1D1F"/>
    <rect x="183.745" y="195.245" width="64" height="64" fill="#1D1D1F"/>
    <rect x="257.745" y="195.245" width="64" height="64" fill="#1D1D1F"/>
    <path d="M399.627 204.618L385.282 258.155L346.09 218.963L399.627 204.618Z" fill="#1D1D1F"/>
    <rect x="432.255" y="195.245" width="64" height="64" fill="#1D1D1F"/>
    <rect x="506.255" y="195.245" width="64" height="64" fill="#1D1D1F"/>
    <rect x="580.255" y="195.245" width="64" height="64" fill="#1D1D1F"/>
    <rect x="654.255" y="195.245" width="64" height="64" fill="#1D1D1F"/>
    <rect x="728.255" y="195.245" width="64" height="64" fill="#1D1D1F"/>
    <rect x="802.255" y="195.245" width="64" height="64" fill="#1D1D1F"/>
    <rect x="876.255" y="195.245" width="64" height="64" fill="#1D1D1F"/>
    <rect x="950.255" y="195.245" width="64" height="64" fill="#1D1D1F"/>
    <rect x="35.7452" y="270.755" width="64" height="64" fill="#1D1D1F"/>
    <rect x="109.745" y="270.755" width="64" height="64" fill="#1D1D1F"/>
    <rect x="183.745" y="270.755" width="64" height="64" fill="#1D1D1F"/>
    <rect x="257.745" y="270.755" width="64" height="64" fill="#1D1D1F"/>
    <path d="M399.627 280.127L385.282 333.664L346.09 294.473L399.627 280.127Z" fill="#1D1D1F"/>
    <rect x="432.255" y="270.755" width="64" height="64" fill="#1D1D1F"/>
    <rect x="506.255" y="270.755" width="64" height="64" fill="#1D1D1F"/>
    <rect x="580.255" y="270.755" width="64" height="64" fill="#1D1D1F"/>
    <rect x="654.255" y="270.755" width="64" height="64" fill="#1D1D1F"/>
    <rect x="728.255" y="270.755" width="64" height="64" fill="#1D1D1F"/>
    <rect x="802.255" y="270.755" width="64" height="64" fill="#1D1D1F"/>
    <rect x="876.255" y="270.755" width="64" height="64" fill="#1D1D1F"/>
    <rect x="950.255" y="270.755" width="64" height="64" fill="#1D1D1F"/>
    <rect x="35.7452" y="346.265" width="64" height="64" fill="#1D1D1F"/>
    <rect x="109.745" y="346.265" width="64" height="64" fill="#1D1D1F"/>
    <path d="M251.627 355.637L237.282 409.174L198.09 369.982L251.627 355.637Z" fill="#1D1D1F"/>
    <rect x="284.255" y="346.265" width="64" height="64" fill="#1D1D1F"/>
    <rect x="358.255" y="346.265" width="64" height="64" fill="#1D1D1F"/>
    <rect x="432.255" y="346.265" width="64" height="64" fill="#1D1D1F"/>
    <rect x="506.255" y="346.265" width="64" height="64" fill="#1D1D1F"/>
    <rect x="580.255" y="346.265" width="64" height="64" fill="#1D1D1F"/>
    <rect x="654.255" y="346.265" width="64" height="64" fill="#1D1D1F"/>
    <rect x="728.255" y="346.265" width="64" height="64" fill="#1D1D1F"/>
    <rect x="802.255" y="346.265" width="64" height="64" fill="#1D1D1F"/>
    <rect x="876.255" y="346.265" width="64" height="64" fill="#1D1D1F"/>
    <rect x="950.255" y="346.265" width="64" height="64" fill="#1D1D1F"/>
    <path d="M103.627 431.147L89.2822 484.684L50.0904 445.492L103.627 431.147Z" fill="#1D1D1F"/>
    <rect x="136.255" y="421.774" width="64" height="64" fill="#1D1D1F"/>
    <rect x="210.255" y="421.774" width="64" height="64" fill="#1D1D1F"/>
    <rect x="284.255" y="421.774" width="64" height="64" fill="#1D1D1F"/>
    <rect x="358.255" y="421.774" width="64" height="64" fill="#1D1D1F"/>
    <rect x="432.255" y="421.774" width="64" height="64" fill="#1D1D1F"/>
    <rect x="506.255" y="421.774" width="64" height="64" fill="#1D1D1F"/>
    <rect x="580.255" y="421.774" width="64" height="64" fill="#1D1D1F"/>
    <rect x="654.255" y="421.774" width="64" height="64" fill="#1D1D1F"/>
    <rect x="728.255" y="421.774" width="64" height="64" fill="#1D1D1F"/>
    <rect x="802.255" y="421.774" width="64" height="64" fill="#1D1D1F"/>
    <rect x="876.255" y="421.774" width="64" height="64" fill="#1D1D1F"/>
    <rect x="950.255" y="421.774" width="64" height="64" fill="#1D1D1F"/>
    <rect x="35.7452" y="44.2257" width="64" height="64" fill="#1D1D1F"/>
    <rect x="109.745" y="44.2257" width="64" height="64" fill="#1D1D1F"/>
    <rect x="183.745" y="44.2257" width="64" height="64" fill="#1D1D1F"/>
    <rect x="257.745" y="44.2257" width="64" height="64" fill="#1D1D1F"/>
    <rect x="331.745" y="44.2257" width="64" height="64" fill="#1D1D1F"/>
    <rect x="405.745" y="44.2257" width="64" height="64" fill="#1D1D1F"/>
    <rect x="479.745" y="44.2257" width="64" height="64" fill="#1D1D1F"/>
    <rect x="553.745" y="44.2257" width="64" height="64" fill="#1D1D1F"/>
    <path d="M695.627 53.5982L681.282 107.135L642.09 67.9435L695.627 53.5982Z" fill="#1D1D1F"/>
    <rect x="728.255" y="44.2257" width="64" height="64" fill="#1D1D1F"/>
    <rect x="802.255" y="44.2257" width="64" height="64" fill="#1D1D1F"/>
    <rect x="876.255" y="44.2257" width="64" height="64" fill="#1D1D1F"/>
    <rect x="950.255" y="44.2257" width="64" height="64" fill="#1D1D1F"/>
</svg>
