<svg width="1050" height="550" viewBox="0 0 1050 550" fill="none" xmlns="http://www.w3.org/2000/svg">
    <rect x="22.4903" y="114.736" width="64" height="64" fill="#1D1D1F"/>
    <rect x="96.4903" y="114.736" width="64" height="64" fill="#1D1D1F"/>
    <rect x="170.49" y="114.736" width="64" height="64" fill="#1D1D1F"/>
    <rect x="244.49" y="114.736" width="64" height="64" fill="#1D1D1F"/>
    <rect x="318.49" y="146.736" width="64" height="64" transform="rotate(-45 318.49 146.736)" fill="#1D1D1F"/>
    <rect x="419" y="114.736" width="64" height="64" fill="#1D1D1F"/>
    <rect x="493" y="114.736" width="64" height="64" fill="#1D1D1F"/>
    <rect x="567" y="114.736" width="64" height="64" fill="#1D1D1F"/>
    <rect x="641" y="114.736" width="64" height="64" fill="#1D1D1F"/>
    <rect x="715" y="114.736" width="64" height="64" fill="#1D1D1F"/>
    <rect x="789" y="114.736" width="64" height="64" fill="#1D1D1F"/>
    <rect x="863" y="146.736" width="64" height="64" transform="rotate(-45 863 146.736)" fill="#1D1D1F"/>
    <rect x="963.51" y="114.736" width="64" height="64" fill="#1D1D1F"/>
    <rect x="22.4903" y="200.245" width="64" height="64" fill="#1D1D1F"/>
    <rect x="96.4903" y="200.245" width="64" height="64" fill="#1D1D1F"/>
    <rect x="170.49" y="200.245" width="64" height="64" fill="#1D1D1F"/>
    <rect x="244.49" y="232.245" width="64" height="64" transform="rotate(-45 244.49 232.245)" fill="#1D1D1F"/>
    <rect x="345" y="200.245" width="64" height="64" fill="#1D1D1F"/>
    <rect x="419" y="200.245" width="64" height="64" fill="#1D1D1F"/>
    <rect x="493" y="200.245" width="64" height="64" fill="#1D1D1F"/>
    <rect x="567" y="200.245" width="64" height="64" fill="#1D1D1F"/>
    <rect x="641" y="200.245" width="64" height="64" fill="#1D1D1F"/>
    <rect x="715" y="200.245" width="64" height="64" fill="#1D1D1F"/>
    <rect x="789" y="232.245" width="64" height="64" transform="rotate(-45 789 232.245)" fill="#1D1D1F"/>
    <rect x="889.51" y="200.245" width="64" height="64" fill="#1D1D1F"/>
    <rect x="963.51" y="200.245" width="64" height="64" fill="#1D1D1F"/>
    <rect x="22.4903" y="285.755" width="64" height="64" fill="#1D1D1F"/>
    <rect x="96.4903" y="285.755" width="64" height="64" fill="#1D1D1F"/>
    <rect x="170.49" y="317.755" width="64" height="64" transform="rotate(-45 170.49 317.755)" fill="#1D1D1F"/>
    <rect x="271" y="285.755" width="64" height="64" fill="#1D1D1F"/>
    <rect x="345" y="285.755" width="64" height="64" fill="#1D1D1F"/>
    <rect x="419" y="285.755" width="64" height="64" fill="#1D1D1F"/>
    <rect x="493" y="285.755" width="64" height="64" fill="#1D1D1F"/>
    <rect x="567" y="285.755" width="64" height="64" fill="#1D1D1F"/>
    <rect x="641" y="285.755" width="64" height="64" fill="#1D1D1F"/>
    <rect x="715" y="317.755" width="64" height="64" transform="rotate(-45 715 317.755)" fill="#1D1D1F"/>
    <rect x="815.51" y="285.755" width="64" height="64" fill="#1D1D1F"/>
    <rect x="889.51" y="285.755" width="64" height="64" fill="#1D1D1F"/>
    <rect x="963.51" y="285.755" width="64" height="64" fill="#1D1D1F"/>
    <rect x="22.4903" y="371.265" width="64" height="64" fill="#1D1D1F"/>
    <rect x="96.4903" y="403.265" width="64" height="64" transform="rotate(-45 96.4903 403.265)" fill="#1D1D1F"/>
    <rect x="197" y="371.265" width="64" height="64" fill="#1D1D1F"/>
    <rect x="271" y="371.265" width="64" height="64" fill="#1D1D1F"/>
    <rect x="345" y="371.265" width="64" height="64" fill="#1D1D1F"/>
    <rect x="419" y="371.265" width="64" height="64" fill="#1D1D1F"/>
    <rect x="493" y="371.265" width="64" height="64" fill="#1D1D1F"/>
    <rect x="567" y="371.265" width="64" height="64" fill="#1D1D1F"/>
    <rect x="641" y="403.265" width="64" height="64" transform="rotate(-45 641 403.265)" fill="#1D1D1F"/>
    <rect x="741.51" y="371.265" width="64" height="64" fill="#1D1D1F"/>
    <rect x="815.51" y="371.265" width="64" height="64" fill="#1D1D1F"/>
    <rect x="889.51" y="371.265" width="64" height="64" fill="#1D1D1F"/>
    <rect x="963.51" y="371.265" width="64" height="64" fill="#1D1D1F"/>
    <rect x="22.4903" y="488.774" width="64" height="64" transform="rotate(-45 22.4903 488.774)" fill="#1D1D1F"/>
    <g filter="url(#filter0_d_2_596)">
        <rect x="123" y="456.774" width="64" height="64" fill="#1D1D1F"/>
    </g>
    <rect x="197" y="456.774" width="64" height="64" fill="#1D1D1F"/>
    <rect x="271" y="456.774" width="64" height="64" fill="#1D1D1F"/>
    <rect x="345" y="456.774" width="64" height="64" fill="#1D1D1F"/>
    <rect x="419" y="456.774" width="64" height="64" fill="#1D1D1F"/>
    <rect x="493" y="456.774" width="64" height="64" fill="#1D1D1F"/>
    <rect x="567" y="488.774" width="64" height="64" transform="rotate(-45 567 488.774)" fill="#1D1D1F"/>
    <rect x="667.51" y="456.774" width="64" height="64" fill="#1D1D1F"/>
    <rect x="741.51" y="456.774" width="64" height="64" fill="#1D1D1F"/>
    <rect x="815.51" y="456.774" width="64" height="64" fill="#1D1D1F"/>
    <rect x="889.51" y="456.774" width="64" height="64" fill="#1D1D1F"/>
    <rect x="963.51" y="456.774" width="64" height="64" fill="#1D1D1F"/>
    <rect x="22.4903" y="29.226" width="64" height="64" fill="#1D1D1F"/>
    <rect x="96.4903" y="29.226" width="64" height="64" fill="#1D1D1F"/>
    <rect x="170.49" y="29.226" width="64" height="64" fill="#1D1D1F"/>
    <rect x="244.49" y="29.226" width="64" height="64" fill="#1D1D1F"/>
    <rect x="318.49" y="29.226" width="64" height="64" fill="#1D1D1F"/>
    <rect x="392.49" y="61.226" width="64" height="64" transform="rotate(-45 392.49 61.226)" fill="#1D1D1F"/>
    <rect x="493" y="29.226" width="64" height="64" fill="#1D1D1F"/>
    <rect x="567" y="29.226" width="64" height="64" fill="#1D1D1F"/>
    <rect x="641" y="29.226" width="64" height="64" fill="#1D1D1F"/>
    <rect x="715" y="29.226" width="64" height="64" fill="#1D1D1F"/>
    <rect x="789" y="29.226" width="64" height="64" fill="#1D1D1F"/>
    <rect x="863" y="29.226" width="64" height="64" fill="#1D1D1F"/>
    <rect x="937" y="61.226" width="64" height="64" transform="rotate(-45 937 61.226)" fill="#1D1D1F"/>
    <defs>
        <filter id="filter0_d_2_596" x="119" y="456.774" width="72" height="72" filterUnits="userSpaceOnUse"
                color-interpolation-filters="sRGB">
            <feFlood flood-opacity="0" result="BackgroundImageFix"/>
            <feColorMatrix in="SourceAlpha" type="matrix" values="0 0 0 0 0 0 0 0 0 0 0 0 0 0 0 0 0 0 127 0"
                           result="hardAlpha"/>
            <feOffset dy="4"/>
            <feGaussianBlur stdDeviation="2"/>
            <feComposite in2="hardAlpha" operator="out"/>
            <feColorMatrix type="matrix" values="0 0 0 0 0 0 0 0 0 0 0 0 0 0 0 0 0 0 0.25 0"/>
            <feBlend mode="normal" in2="BackgroundImageFix" result="effect1_dropShadow_2_596"/>
            <feBlend mode="normal" in="SourceGraphic" in2="effect1_dropShadow_2_596" result="shape"/>
        </filter>
    </defs>
</svg>
