<svg width="1050" height="530" viewBox="0 0 1050 530" fill="none" xmlns="http://www.w3.org/2000/svg">
    <rect x="49" y="48" width="64" height="64" fill="#CDCDCD"/>
    <rect x="123" y="48" width="64" height="64" fill="#CDCDCD"/>
    <rect x="197" y="48" width="64" height="64" fill="#CDCDCD"/>
    <rect x="271" y="48" width="64" height="64" fill="#CDCDCD"/>
    <rect x="345" y="48" width="64" height="64" fill="#CDCDCD"/>
    <rect x="419" y="48" width="64" height="64" fill="#CDCDCD"/>
    <rect x="493" y="48" width="64" height="64" fill="#1D1D1F"/>
    <rect x="567" y="48" width="64" height="64" fill="#CDCDCD"/>
    <rect x="641" y="48" width="64" height="64" fill="#CDCDCD"/>
    <rect x="715" y="48" width="64" height="64" fill="#CDCDCD"/>
    <rect x="789" y="48" width="64" height="64" fill="#CDCDCD"/>
    <rect x="863" y="48" width="64" height="64" fill="#CDCDCD"/>
    <rect x="937" y="48" width="64" height="64" fill="#1D1D1F"/>
    <rect x="49" y="122" width="64" height="64" fill="#CDCDCD"/>
    <rect x="123" y="122" width="64" height="64" fill="#1D1D1F"/>
    <rect x="197" y="122" width="64" height="64" fill="#CDCDCD"/>
    <rect x="271" y="122" width="64" height="64" fill="#CDCDCD"/>
    <rect x="345" y="122" width="64" height="64" fill="#CDCDCD"/>
    <rect x="419" y="122" width="64" height="64" fill="#CDCDCD"/>
    <rect x="493" y="122" width="64" height="64" fill="#CDCDCD"/>
    <rect x="567" y="122" width="64" height="64" fill="#CDCDCD"/>
    <rect x="641" y="122" width="64" height="64" fill="#1D1D1F"/>
    <rect x="715" y="122" width="64" height="64" fill="#CDCDCD"/>
    <rect x="789" y="122" width="64" height="64" fill="#CDCDCD"/>
    <rect x="863" y="122" width="64" height="64" fill="#CDCDCD"/>
    <rect x="937" y="122" width="64" height="64" fill="#CDCDCD"/>
    <rect x="49" y="196" width="64" height="64" fill="#CDCDCD"/>
    <rect x="123" y="196" width="64" height="64" fill="#CDCDCD"/>
    <rect x="197" y="196" width="64" height="64" fill="#CDCDCD"/>
    <rect x="271" y="196" width="64" height="64" fill="#1D1D1F"/>
    <rect x="345" y="196" width="64" height="64" fill="#CDCDCD"/>
    <rect x="419" y="196" width="64" height="64" fill="#CDCDCD"/>
    <rect x="493" y="196" width="64" height="64" fill="#CDCDCD"/>
    <rect x="567" y="196" width="64" height="64" fill="#CDCDCD"/>
    <rect x="641" y="196" width="64" height="64" fill="#CDCDCD"/>
    <rect x="715" y="196" width="64" height="64" fill="#CDCDCD"/>
    <rect x="789" y="196" width="64" height="64" fill="#CDCDCD"/>
    <rect x="863" y="196" width="64" height="64" fill="#CDCDCD"/>
    <rect x="937" y="196" width="64" height="64" fill="#CDCDCD"/>
    <rect x="49" y="270" width="64" height="64" fill="#CDCDCD"/>
    <rect x="123" y="270" width="64" height="64" fill="#CDCDCD"/>
    <rect x="197" y="270" width="64" height="64" fill="#CDCDCD"/>
    <rect x="271" y="270" width="64" height="64" fill="#CDCDCD"/>
    <rect x="345" y="270" width="64" height="64" fill="#CDCDCD"/>
    <rect x="419" y="270" width="64" height="64" fill="#CDCDCD"/>
    <rect x="493" y="270" width="64" height="64" fill="#CDCDCD"/>
    <rect x="567" y="270" width="64" height="64" fill="#CDCDCD"/>
    <rect x="641" y="270" width="64" height="64" fill="#CDCDCD"/>
    <rect x="715" y="270" width="64" height="64" fill="#1D1D1F"/>
    <rect x="789" y="270" width="64" height="64" fill="#CDCDCD"/>
    <rect x="863" y="270" width="64" height="64" fill="#CDCDCD"/>
    <rect x="937" y="270" width="64" height="64" fill="#CDCDCD"/>
    <rect x="49" y="344" width="64" height="64" fill="#CDCDCD"/>
    <rect x="123" y="344" width="64" height="64" fill="#CDCDCD"/>
    <rect x="197" y="344" width="64" height="64" fill="#CDCDCD"/>
    <rect x="271" y="344" width="64" height="64" fill="#CDCDCD"/>
    <rect x="345" y="344" width="64" height="64" fill="#1D1D1F"/>
    <rect x="419" y="344" width="64" height="64" fill="#CDCDCD"/>
    <rect x="493" y="344" width="64" height="64" fill="#CDCDCD"/>
    <rect x="567" y="344" width="64" height="64" fill="#CDCDCD"/>
    <rect x="641" y="344" width="64" height="64" fill="#CDCDCD"/>
    <rect x="715" y="344" width="64" height="64" fill="#CDCDCD"/>
    <rect x="789" y="344" width="64" height="64" fill="#CDCDCD"/>
    <rect x="863" y="344" width="64" height="64" fill="#CDCDCD"/>
    <rect x="937" y="344" width="64" height="64" fill="#CDCDCD"/>
    <rect x="49" y="418" width="64" height="64" fill="#CDCDCD"/>
    <rect x="123" y="418" width="64" height="64" fill="#CDCDCD"/>
    <rect x="197" y="418" width="64" height="64" fill="#1D1D1F"/>
    <rect x="271" y="418" width="64" height="64" fill="#CDCDCD"/>
    <rect x="345" y="418" width="64" height="64" fill="#CDCDCD"/>
    <rect x="419" y="418" width="64" height="64" fill="#CDCDCD"/>
    <rect x="493" y="418" width="64" height="64" fill="#CDCDCD"/>
    <rect x="567" y="418" width="64" height="64" fill="#1D1D1F"/>
    <rect x="641" y="418" width="64" height="64" fill="#CDCDCD"/>
    <rect x="715" y="418" width="64" height="64" fill="#CDCDCD"/>
    <rect x="789" y="418" width="64" height="64" fill="#CDCDCD"/>
    <rect x="863" y="418" width="64" height="64" fill="#1D1D1F"/>
    <rect x="937" y="418" width="64" height="64" fill="#CDCDCD"/>
</svg>
