<?xml version="1.0" encoding="UTF-8"?>
<svg
        version="1.1"
        id="svg1"
        width="627.47333"
        height="275.552"
        viewBox="0 0 627.47333 275.552"
        xmlns="http://www.w3.org/2000/svg"
>
    <g id="g1">
        <path
                id="path1"
                d="M 0,0 H 180.42781"
                style="fill:none;stroke:#000000;stroke-width:0.79701;stroke-linecap:butt;stroke-linejoin:miter;stroke-miterlimit:10;stroke-dasharray:none;stroke-opacity:1"
                transform="matrix(1.3333333,0,0,-1.3333333,31.849333,220.33867)"/>
        <path
                id="path2"
                d="M 5.44046,0 1.28699,1.5706 2.66432,0 1.28699,-1.5706 Z"
                style="fill:#000000;fill-opacity:1;fill-rule:nonzero;stroke:#000000;stroke-width:0.79701;stroke-linecap:butt;stroke-linejoin:miter;stroke-miterlimit:10;stroke-dasharray:none;stroke-opacity:1"
                transform="matrix(1.3333333,0,0,-1.3333333,269.13296,220.33867)"/>
        <path
                id="path3"
                d="m 3.3287266,-3.0113047 c 0.058594,-0.2578125 0.2929687,-1.171875 0.984375,-1.171875 0.046875,0 0.2929687,0 0.5039062,0.1289063 -0.28125,0.046875 -0.4804687,0.3046875 -0.4804687,0.5390625 0,0.1640625 0.1054687,0.3515625 0.375,0.3515625 0.2226562,0 0.5390625,-0.1875 0.5390625,-0.5859375 0,-0.515625 -0.5859375,-0.65625 -0.9257813,-0.65625 -0.5742187,0 -0.9257812,0.5273437 -1.0429687,0.7617187 -0.2578125,-0.65625 -0.7851563,-0.7617187 -1.078125,-0.7617187 -1.0429688,0 -1.60546879,1.2890625 -1.60546879,1.5351562 0,0.1054688 0.10546875,0.1054688 0.1171875,0.1054688 0.0820313,0 0.1171875,-0.023437 0.12890625,-0.1171875 0.33984374,-1.0546875 0.99609374,-1.3007813 1.33593754,-1.3007813 0.1875,0 0.5390625,0.09375 0.5390625,0.6679688 0,0.3046875 -0.1640625,0.9726562 -0.5390625,2.3671875 -0.1523438,0.62109371 -0.5039063,1.04296871 -0.9492188,1.04296871 -0.058594,0 -0.28124999,0 -0.49218749,-0.12890625 0.24609375,-0.0585938 0.46874999,-0.26953125 0.46874999,-0.5390625 0,-0.26953126 -0.22265624,-0.35156246 -0.37499999,-0.35156246 -0.29296875,0 -0.5390625,0.25781246 -0.5390625,0.57421871 0,0.45703125 0.4921875,0.65625 0.93749999,0.65625 0.65625,0 1.0078125,-0.69140625 1.0429688,-0.75 0.1171875,0.36328125 0.4804687,0.75 1.078125,0.75 1.0195312,0 1.59375,-1.27734371 1.59375,-1.53515621 0,-0.09375 -0.09375,-0.09375 -0.1289063,-0.09375 -0.082031,0 -0.1054687,0.035156 -0.1289062,0.1054687 -0.328125,1.06640626 -0.9960938,1.31250001 -1.3242188,1.31250001 -0.3867187,0 -0.5390625,-0.328125 -0.5390625,-0.65625 0,-0.22265625 0.058594,-0.44531251 0.1640625,-0.87890621 z m 0,0"
                style="fill:#000000;fill-opacity:1;fill-rule:nonzero;stroke:none"
                aria-label="x"
                transform="matrix(1.3333333,0,0,1.3333333,282.85467,223.19867)"/>
        <path
                id="path4"
                d="M 0,0 V 132.80528"
                style="fill:none;stroke:#000000;stroke-width:0.79701;stroke-linecap:butt;stroke-linejoin:miter;stroke-miterlimit:10;stroke-dasharray:none;stroke-opacity:1"
                transform="matrix(1.3333333,0,0,-1.3333333,31.849333,220.33867)"/>
        <path
                id="path5"
                d="M 5.44046,0 1.28699,1.5706 2.66432,0 1.28699,-1.5706 Z"
                style="fill:#000000;fill-opacity:1;fill-rule:nonzero;stroke:#000000;stroke-width:0.79701;stroke-linecap:butt;stroke-linejoin:miter;stroke-miterlimit:10;stroke-dasharray:none;stroke-opacity:1"
                transform="matrix(0,-1.3333333,-1.3333333,0,31.849333,46.55172)"/>
        <g
                id="g5"
                aria-label="p(x)"
                transform="matrix(1.3333333,0,0,1.3333333,19.545333,29.508)">
            <path
                    id="path6"
                    d="m 0.44646875,1.2186094 c -0.0820313,0.3398437 -0.09375,0.4101562 -0.5390625,0.4101562 -0.1171875,0 -0.22265625,0 -0.22265625,0.1875 0,0.082031 0.046875,0.1171875 0.12890625,0.1171875 0.26953125,0 0.55078125,-0.035156 0.83203125,-0.035156 0.328125,0 0.6679687,0.035156 0.984375,0.035156 0.058594,0 0.1875,0 0.1875,-0.1992187 0,-0.1054688 -0.1054688,-0.1054688 -0.2460938,-0.1054688 -0.4921875,0 -0.4921875,-0.070312 -0.4921875,-0.1640625 0,-0.1171875 0.421875,-1.74609373 0.4804688,-1.99218748 0.140625,0.29296875 0.4101562,0.6328125 0.9257812,0.6328125 1.1484375,0 2.4023438,-1.45312502 2.4023438,-2.91796872 0,-0.9375 -0.5742188,-1.59375 -1.3359375,-1.59375 -0.4921875,0 -0.9726563,0.3632812 -1.3007813,0.75 -0.09375,-0.5390625 -0.5273437,-0.75 -0.890625,-0.75 -0.4570312,0 -0.65624995,0.3867187 -0.7382812,0.5742187 -0.1875,0.3398438 -0.31640625,0.9375 -0.31640625,0.9609375 0,0.1054688 0.10546875,0.1054688 0.12890625,0.1054688 0.09375,0 0.10546875,-0.011719 0.1640625,-0.234375 0.1640625,-0.703125 0.36328125,-1.1835938 0.7265625,-1.1835938 0.1757812,0 0.3046875,0.082031 0.3046875,0.4570313 0,0.234375 -0.023437,0.3398437 -0.070312,0.5039062 z M 2.2042812,-3.1056094 c 0.070312,-0.2695312 0.3398438,-0.5507812 0.515625,-0.703125 0.3515625,-0.3046875 0.6328125,-0.375 0.8085938,-0.375 0.3984375,0 0.6328125,0.3515625 0.6328125,0.9375 0,0.5859375 -0.328125,1.734375 -0.5039063,2.109375 -0.3398437,0.70312502 -0.8203125,1.03125002 -1.1835937,1.03125002 -0.65625,0 -0.7851563,-0.83203125 -0.7851563,-0.890625 0,-0.0234375 0,-0.0351562 0.023437,-0.16406252 z m 0,0"
                    style="fill:#000000;fill-opacity:1;fill-rule:nonzero;stroke:none"/>
            <path
                    id="path7"
                    d="m 8.3038906,2.3904844 c 0,-0.035156 0,-0.046875 -0.1640625,-0.2226563 -1.2421875,-1.25390623 -1.5703125,-3.12890623 -1.5703125,-4.6640625 0,-1.7226562 0.3867188,-3.4570312 1.6054688,-4.7109375 0.1289062,-0.1171875 0.1289062,-0.1289062 0.1289062,-0.1640625 0,-0.070312 -0.035156,-0.1054687 -0.09375,-0.1054687 -0.1054687,0 -0.9960937,0.6796875 -1.5820312,1.9453125 -0.515625,1.1015625 -0.6328125,2.203125 -0.6328125,3.0351562 0,0.7851563 0.1171875,1.99218752 0.65625,3.11718752 0.5976562,1.21874998 1.453125,1.87499998 1.5585937,1.87499998 0.058594,0 0.09375,-0.035156 0.09375,-0.1054687 z m 0,0"
                    style="fill:#000000;fill-opacity:1;fill-rule:nonzero;stroke:none"/>
            <path
                    id="path8"
                    d="m 12.215023,-3.0118594 c 0.05859,-0.2578125 0.292969,-1.171875 0.984375,-1.171875 0.04687,0 0.292969,0 0.503907,0.1289063 -0.28125,0.046875 -0.480469,0.3046875 -0.480469,0.5390625 0,0.1640625 0.105469,0.3515625 0.375,0.3515625 0.222656,0 0.539062,-0.1875 0.539062,-0.5859375 0,-0.515625 -0.585937,-0.65625 -0.925781,-0.65625 -0.574219,0 -0.925781,0.5273437 -1.042969,0.7617187 -0.257812,-0.65625 -0.785156,-0.7617187 -1.078125,-0.7617187 -1.042968,0 -1.6054683,1.2890625 -1.6054683,1.5351562 0,0.1054688 0.1054687,0.1054688 0.1171875,0.1054688 0.082031,0 0.1171875,-0.023437 0.1289062,-0.1171875 0.3398436,-1.0546875 0.9960936,-1.3007813 1.3359376,-1.3007813 0.1875,0 0.539062,0.09375 0.539062,0.6679688 0,0.3046875 -0.164062,0.9726562 -0.539062,2.3671875 -0.152344,0.62109372 -0.503906,1.04296872 -0.949219,1.04296872 -0.05859,0 -0.2812498,0 -0.4921873,-0.12890625 0.2460937,-0.0585937 0.4687503,-0.26953125 0.4687503,-0.5390625 0,-0.26953127 -0.2226566,-0.35156247 -0.3750003,-0.35156247 -0.2929688,0 -0.5390625,0.25781247 -0.5390625,0.57421872 0,0.45703125 0.4921875,0.65625 0.9374998,0.65625 0.65625,0 1.007813,-0.69140625 1.042969,-0.75 0.117187,0.36328125 0.480469,0.75 1.078125,0.75 1.019531,0 1.59375,-1.27734372 1.59375,-1.53515622 0,-0.09375 -0.09375,-0.09375 -0.128906,-0.09375 -0.08203,0 -0.105469,0.035156 -0.128907,0.1054687 -0.328125,1.06640627 -0.996093,1.31250002 -1.324218,1.31250002 -0.386719,0 -0.539063,-0.328125 -0.539063,-0.65625 0,-0.22265625 0.05859,-0.44531252 0.164063,-0.87890622 z m 0,0"
                    style="fill:#000000;fill-opacity:1;fill-rule:nonzero;stroke:none"/>
            <path
                    id="path9"
                    d="m 17.462094,-2.4962344 c 0,-0.7734375 -0.117188,-1.9804687 -0.65625,-3.1054687 -0.597657,-1.21875 -1.464844,-1.875 -1.558594,-1.875 -0.05859,0 -0.105469,0.046875 -0.105469,0.1054687 0,0.035156 0,0.046875 0.199219,0.234375 0.972656,0.984375 1.535156,2.5664063 1.535156,4.640625 0,1.71093752 -0.363281,3.45703127 -1.59375,4.7226563 -0.140625,0.1171875 -0.140625,0.1289062 -0.140625,0.1640625 0,0.058594 0.04687,0.1054687 0.105469,0.1054687 0.09375,0 0.996094,-0.6796875 1.582031,-1.94531248 0.503906,-1.1015625 0.632813,-2.20312502 0.632813,-3.04687502 z m 0,0"
                    style="fill:#000000;fill-opacity:1;fill-rule:nonzero;stroke:none"/>
        </g>
        <path
                id="path10"
                d="m 101.19821,0 v 16.49211 l 0.90379,-0.16623 0.90378,-0.16212 0.9038,-0.16033 0.90379,-0.15623 0.90379,-0.15534 0.90378,-0.15124 0.90378,-0.1494 0.90379,-0.1467 0.90381,-0.14488 0.90378,-0.14261 0.9038,-0.13898 0.90379,-0.1376 0.90379,-0.13535 0.90379,-0.13261 0.9038,-0.1317 0.90377,-0.12898 0.9038,-0.12628 0.90381,-0.1258 0.90377,-0.12309 0.9038,-0.12216 0.90379,-0.11855 0.90379,-0.11808 0.9038,-0.11579 0.90378,-0.11356 0.90379,-0.11263 0.90379,-0.11037 0.9038,-0.1099 0.90379,-0.10719 0.90379,-0.10627 0.90378,-0.10445 0.90379,-0.10263 0.90379,-0.10129 0.90378,-0.10037 0.9038,-0.099 0.90379,-0.09764 0.90379,-0.0954 0.9038,-0.09399 0.90379,-0.09403 0.90378,-0.09219 0.90381,-0.09082 0.90379,-0.0895 0.90378,-0.08808 0.90379,-0.08811 0.9038,-0.08584 0.90379,-0.08492 0.90379,-0.08404 0.90378,-0.0831 0.90379,-0.0813 0.90381,-0.08039 0.90378,-0.07948 0.90379,-0.07902 0.9038,-0.07721 0.90377,-0.07676 0.90381,-0.07585 0.90379,-0.07448 0.90377,-0.07402 0.90379,-0.07269 0.9038,-0.07264 0.90379,-0.0704 0.90379,-0.0704 0.9038,-0.06949 0.90378,-0.06767 0.9038,-0.06903 0.9038,-0.06677 0.90378,-0.06539 0.90379,-0.06631 0.90378,-0.06449 0.90381,-0.06314 0.90379,-0.06358 0.90378,-0.06223 0.90379,-0.06222 0.90381,-0.06039 0.90378,-0.0604 0.90379,-0.05997 0.90379,-0.05812 0.90378,-0.05905 0.90381,-0.05722 0.9038,-0.05676 0.90377,-0.05678 L 172.63264,0 Z"
                style="fill:#d9d9ff;fill-opacity:1;fill-rule:nonzero;stroke:none"
                transform="matrix(1.3333333,0,0,-1.3333333,31.849333,220.33867)"/>
        <path
                id="path11"
                d="m 7.44102,123.18166 1.38794,-7.93837 1.38793,-7.06501 1.38794,-6.35468 1.38794,-5.73887 1.38792,-5.19973 1.38794,-4.7356 1.38793,-4.31275 1.38794,-3.95852 1.38793,-3.64014 1.38793,-3.34857 1.38794,-3.09833 1.38792,-2.86941 1.38793,-2.66097 1.38792,-2.48201 1.38794,-2.31308 1.38794,-2.16365 1.38792,-2.02421 1.38796,-1.90476 1.38791,-1.7817 1.38794,-1.67634 1.38794,-1.58685 1.38792,-1.49013 1.38794,-1.42517 1.38792,-1.33707 1.38794,-1.26803 1.38791,-1.20261 1.38794,-1.14451 1.38794,-1.08817 1.38793,-1.03233 1.38794,-0.98783 1.38793,-0.94146 1.38793,-0.89609 1.38794,-0.85793 1.38792,-0.82066 1.38794,-0.7857 1.38793,-0.74758 1.38794,-0.72574 1.3879,-0.6908 1.38794,-0.66488 1.38794,-0.63856 1.38793,-0.61268 1.38794,-0.59086 1.38792,-0.56816 1.38796,-0.54909 1.38792,-0.52457 1.38792,-0.50956 1.38794,-0.49097 1.38793,-0.47369 1.38793,-0.45871 1.38793,-0.4419 1.38793,-0.42783 1.38794,-0.41194 1.38792,-0.40056 1.38794,-0.38876 1.38792,-0.37651 1.38796,-0.36153 1.38794,-0.35333 1.38791,-0.34289 1.38794,-0.32972 1.38792,-0.32019 1.38794,-0.31382 1.38792,-0.30341 1.38794,-0.29475 1.38793,-0.28838 1.38792,-0.27887 1.38794,-0.27251 1.38792,-0.26431 1.38794,-0.25615 1.38796,-0.24933 1.38791,-0.24389 1.38793,-0.23618 1.38793,-0.23115 1.38794,-0.22573 1.38793,-0.21936 1.38793,-0.21483 1.38794,-0.208 1.38791,-0.20394 1.38794,-0.19891 1.38793,-0.19348 1.38794,-0.18984 1.38794,-0.18576 1.38793,-0.18074 1.38793,-0.17667 1.38792,-0.17214 1.38794,-0.16939 1.38793,-0.16487 1.38794,-0.16124 1.38794,-0.15806 1.38792,-0.15394 1.38792,-0.15124 1.38793,-0.14806 1.38794,-0.14441 1.38793,-0.14264 1.38795,-0.13896 1.38794,-0.13625 1.38791,-0.13171 1.38793,-0.13171 1.38794,-0.12806 1.38793,-0.12492 1.38794,-0.12352 1.38792,-0.12036 1.38794,-0.11809 1.38791,-0.1149 1.38794,-0.1149 1.38794,-0.1117 1.38792,-0.10947 1.38796,-0.10718 1.38792,-0.10538 1.38793,-0.10308 1.38794,-0.10219 1.38792,-0.09947 1.38794,-0.099 1.38792,-0.09629 1.38794,-0.09448 1.38791,-0.09308 1.38794,-0.09039 1.38794,-0.09084 1.38793,-0.0881 1.38795,-0.08675"
                style="fill:none;stroke:#0000ff;stroke-width:1.19553;stroke-linecap:butt;stroke-linejoin:miter;stroke-miterlimit:10;stroke-dasharray:none;stroke-opacity:1"
                transform="matrix(1.3333333,0,0,-1.3333333,31.849333,220.33867)"/>
        <path
                id="path12"
                d="M 101.19821,0 V 16.49211"
                style="fill:none;stroke:#000000;stroke-width:0.3985;stroke-linecap:butt;stroke-linejoin:miter;stroke-miterlimit:10;stroke-dasharray:2.98883, 2.98883;stroke-dashoffset:0;stroke-opacity:1"
                transform="matrix(1.3333333,0,0,-1.3333333,31.849333,220.33867)"/>
        <path
                id="path13"
                d="m 2.2618437,-3.152875 h 1.6875 c 1.1953125,0 2.2617188,-0.796875 2.2617188,-1.7929687 0,-0.984375 -0.984375,-1.8632813 -2.34375,-1.8632813 h -3.515625 v 0.3164063 h 0.234375 c 0.7734375,0 0.7851562,0.1054687 0.7851562,0.46875 v 5.24999995 c 0,0.3515625 -0.011719,0.46875 -0.7851562,0.46875 h -0.234375 v 0.3046875 C 0.70325,-0.0356875 1.4298125,-0.0356875 1.8165312,-0.0356875 c 0.375,0 1.125,0 1.4765625,0.03515625 v -0.3046875 H 3.047 c -0.7617188,0 -0.7851563,-0.1171875 -0.7851563,-0.46875 z m -0.035156,-0.2578125 v -2.6835937 c 0,-0.328125 0.023437,-0.3984375 0.4921875,-0.3984375 H 3.6095 c 1.5820312,0 1.5820312,1.0546875 1.5820312,1.546875 0,0.4570312 0,1.5351562 -1.5820312,1.5351562 z m 8.9619143,1.2773438 c 0,-1.2773438 -0.996094,-2.3320313 -2.1914065,-2.3320313 -1.2539062,0 -2.2148437,1.0898438 -2.2148437,2.3320313 0,1.28906245 1.03125,2.2382812 2.203125,2.2382812 1.2070312,0 2.2031252,-0.97265625 2.2031252,-2.2382812 z m -2.1914065,1.99218745 c -0.4335937,0 -0.8671875,-0.2109375 -1.1367187,-0.66796875 -0.2578125,-0.4335937 -0.2578125,-1.0429687 -0.2578125,-1.40625 0,-0.3867187 0,-0.9257812 0.2460937,-1.359375 0.2695313,-0.4570312 0.7382813,-0.6679687 1.1367188,-0.6679687 0.4335937,0 0.8671875,0.2226562 1.1250002,0.6445312 0.257812,0.4335938 0.257812,1.0078125 0.257812,1.3828125 0,0.3632813 0,0.9023438 -0.222656,1.3359375 -0.2226562,0.4453125 -0.65625,0.73828125 -1.1484375,0.73828125 z M 17.367312,-3.3520937 c 0.175782,-0.4921875 0.492188,-0.6210938 0.84375,-0.6328125 v -0.3046875 c -0.222656,0.011719 -0.515625,0.023437 -0.726562,0.023437 -0.292969,0 -0.738281,-0.023437 -0.9375,-0.023437 v 0.3046875 c 0.363281,0.011719 0.585937,0.1875 0.585937,0.4804687 0,0.058594 0,0.082031 -0.04687,0.2109375 L 16.172,-0.75053125 15.187625,-3.527875 c -0.03516,-0.1171875 -0.04687,-0.140625 -0.04687,-0.1875 0,-0.2695312 0.386719,-0.2695312 0.585937,-0.2695312 v -0.3046875 c -0.292968,0 -0.796875,0.023437 -1.03125,0.023437 -0.304687,0 -0.597656,-0.011719 -0.890625,-0.023437 v 0.3046875 c 0.363282,0 0.527344,0.023437 0.621094,0.1523437 0.05859,0.058594 0.164063,0.3515625 0.234375,0.5390625 l -0.855469,2.4140625 -0.949218,-2.6601562 c -0.04687,-0.1171875 -0.04687,-0.140625 -0.04687,-0.1757813 0,-0.2695312 0.386718,-0.2695312 0.585937,-0.2695312 v -0.3046875 c -0.292969,0 -0.855469,0.023437 -1.089844,0.023437 -0.03516,0 -0.5625,-0.011719 -0.925781,-0.023437 v 0.3046875 c 0.503906,0 0.621094,0.035156 0.738281,0.3515625 L 13.371219,-0.106 c 0.05859,0.140625 0.08203,0.2109375 0.210937,0.2109375 0.128906,0 0.152344,-0.05859375 0.199219,-0.19921875 l 1.007812,-2.81249995 1.019532,2.8242187 c 0.03516,0.1171875 0.07031,0.1875 0.199218,0.1875 0.128907,0 0.152344,-0.08203125 0.199219,-0.1875 z m 1.875,0.84375 c 0.05859,-1.4882813 0.902344,-1.734375 1.242188,-1.734375 1.019531,0 1.125,1.3476562 1.125,1.734375 z m -0.01172,0.2109375 h 2.789062 c 0.210938,0 0.246094,0 0.246094,-0.2109375 0,-0.984375 -0.539063,-1.9570313 -1.78125,-1.9570313 -1.160156,0 -2.074219,1.03125 -2.074219,2.2734375 0,1.3359375 1.042969,2.296875 2.191406,2.296875 1.21875,0 1.664063,-1.1015625 1.664063,-1.2890625 0,-0.1054687 -0.08203,-0.1171875 -0.128906,-0.1171875 -0.09375,0 -0.117188,0.058594 -0.128907,0.140625 -0.351562,1.01953125 -1.253906,1.01953125 -1.347656,1.01953125 -0.503906,0 -0.902344,-0.29296875 -1.125,-0.66796875 -0.304687,-0.4804687 -0.304687,-1.1367187 -0.304687,-1.4882812 z m 4.992187,-1.0078125 v -1.1015625 l -1.382812,0.1171875 v 0.3046875 c 0.691406,0 0.773437,0.070312 0.773437,0.5625 V -0.76225 c 0,0.45703125 -0.105469,0.45703125 -0.773437,0.45703125 v 0.3046875 c 0.386718,-0.01171875 0.855468,-0.03515625 1.136718,-0.03515625 0.398438,0 0.867188,0 1.265625,0.03515625 v -0.3046875 h -0.210937 c -0.738281,0 -0.761719,-0.1171875 -0.761719,-0.46875 V -2.309125 c 0,-0.984375 0.421875,-1.875 1.183594,-1.875 0.05859,0 0.08203,0 0.105469,0.011719 -0.03516,0.011719 -0.234375,0.1289062 -0.234375,0.3867187 0,0.28125 0.210937,0.4335938 0.433593,0.4335938 0.175782,0 0.421875,-0.1289063 0.421875,-0.4453125 0,-0.3164063 -0.304687,-0.609375 -0.726562,-0.609375 -0.738281,0 -1.089844,0.6679687 -1.230469,1.1015623 z m 11.355469,0.7382812 h -0.257813 c -0.105468,1.0078125 -0.246093,2.26171875 -1.992187,2.26171875 h -0.820313 c -0.46875,0 -0.492187,-0.0703125 -0.492187,-0.3984375 V -6.01225 c 0,-0.3398437 0,-0.4804687 0.949219,-0.4804687 h 0.328125 V -6.809125 c -0.363282,0.035156 -1.265625,0.035156 -1.675782,0.035156 -0.386718,0 -1.160156,0 -1.511718,-0.035156 v 0.3164063 h 0.234375 c 0.773437,0 0.796875,0.1054687 0.796875,0.46875 v 5.24999995 c 0,0.3515625 -0.02344,0.46875 -0.796875,0.46875 h -0.234375 v 0.3046875 H 35.297 Z m 3.741211,1.8046875 c 0.03516,0.3984375 0.304687,0.8203125 0.773437,0.8203125 0.210938,0 0.820313,-0.140625 0.820313,-0.94921875 V -1.4419375 h -0.246094 v 0.55078125 c 0,0.5859375 -0.246094,0.64453125 -0.363281,0.64453125 -0.328125,0 -0.363281,-0.45703125 -0.363281,-0.50390625 V -2.7427187 c 0,-0.4101563 0,-0.8085938 -0.363282,-1.171875 -0.386718,-0.3867188 -0.878906,-0.5507813 -1.359375,-0.5507813 -0.820312,0 -1.511718,0.46875 -1.511718,1.125 0,0.3046875 0.199218,0.46875 0.457031,0.46875 0.28125,0 0.46875,-0.1992187 0.46875,-0.4570312 0,-0.1171875 -0.05859,-0.4453125 -0.515625,-0.4570313 0.269531,-0.3515625 0.761719,-0.4570312 1.078125,-0.4570312 0.492187,0 1.054687,0.3867187 1.054687,1.2773437 v 0.3632813 c -0.503906,0.035156 -1.207031,0.058594 -1.828125,0.3632812 -0.75,0.3398438 -0.996093,0.8554688 -0.996093,1.2890625 0,0.80859375 0.960937,1.0546875 1.59375,1.0546875 0.65625,0 1.113281,-0.3984375 1.300781,-0.8671875 z m -0.07031,-1.6289062 v 0.9960937 c 0,0.94921875 -0.714843,1.2890625 -1.160156,1.2890625 -0.492187,0 -0.902344,-0.3515625 -0.902344,-0.85546875 0,-0.53906245 0.421875,-1.37109375 2.0625,-1.42968745 z m 7.620118,-0.9609375 c 0.175781,-0.4921875 0.492187,-0.6210938 0.84375,-0.6328125 v -0.3046875 c -0.222657,0.011719 -0.515625,0.023437 -0.726563,0.023437 -0.292969,0 -0.738281,-0.023437 -0.9375,-0.023437 v 0.3046875 c 0.363281,0.011719 0.585938,0.1875 0.585938,0.4804687 0,0.058594 0,0.082031 -0.04687,0.2109375 L 45.673953,-0.75053125 44.689578,-3.527875 c -0.03516,-0.1171875 -0.04687,-0.140625 -0.04687,-0.1875 0,-0.2695312 0.386719,-0.2695312 0.585938,-0.2695312 v -0.3046875 c -0.292969,0 -0.796875,0.023437 -1.03125,0.023437 -0.304688,0 -0.597657,-0.011719 -0.890625,-0.023437 v 0.3046875 c 0.363281,0 0.527343,0.023437 0.621093,0.1523437 0.05859,0.058594 0.164063,0.3515625 0.234375,0.5390625 l -0.855468,2.4140625 -0.949219,-2.6601562 c -0.04687,-0.1171875 -0.04687,-0.140625 -0.04687,-0.1757813 0,-0.2695312 0.386719,-0.2695312 0.585937,-0.2695312 v -0.3046875 c -0.292968,0 -0.855468,0.023437 -1.089843,0.023437 -0.03516,0 -0.5625,-0.011719 -0.925782,-0.023437 v 0.3046875 c 0.503907,0 0.621094,0.035156 0.738282,0.3515625 L 42.873172,-0.106 c 0.05859,0.140625 0.08203,0.2109375 0.210937,0.2109375 0.128907,0 0.152344,-0.05859375 0.199219,-0.19921875 l 1.007813,-2.81249995 1.019531,2.8242187 c 0.03516,0.1171875 0.07031,0.1875 0.199219,0.1875 0.128906,0 0.152343,-0.08203125 0.199218,-0.1875 z m 0,0"
                style="fill:#000000;fill-opacity:1;fill-rule:nonzero;stroke:none"
                aria-label="PowerLaw"
                transform="matrix(1.3333333,0,0,1.3333333,122.93733,254.64133)"/>
        <path
                id="path14"
                d="M 238.11398,0 H 418.5418"
                style="fill:none;stroke:#000000;stroke-width:0.79701;stroke-linecap:butt;stroke-linejoin:miter;stroke-miterlimit:10;stroke-dasharray:none;stroke-opacity:1"
                transform="matrix(1.3333333,0,0,-1.3333333,31.849333,220.33867)"/>
        <path
                id="path15"
                d="M 5.44046,0 1.28699,1.5706 2.66432,0 1.28699,-1.5706 Z"
                style="fill:#000000;fill-opacity:1;fill-rule:nonzero;stroke:#000000;stroke-width:0.79701;stroke-linecap:butt;stroke-linejoin:miter;stroke-miterlimit:10;stroke-dasharray:none;stroke-opacity:1"
                transform="matrix(1.3333333,0,0,-1.3333333,586.61827,220.33867)"/>
        <path
                id="path16"
                d="m 3.3280781,-3.0113047 c 0.058594,-0.2578125 0.2929688,-1.171875 0.984375,-1.171875 0.046875,0 0.2929688,0 0.5039063,0.1289063 -0.28125,0.046875 -0.4804688,0.3046875 -0.4804688,0.5390625 0,0.1640625 0.1054688,0.3515625 0.375,0.3515625 0.2226563,0 0.5390625,-0.1875 0.5390625,-0.5859375 0,-0.515625 -0.5859375,-0.65625 -0.9257812,-0.65625 -0.5742188,0 -0.9257813,0.5273437 -1.0429688,0.7617187 -0.2578125,-0.65625 -0.7851562,-0.7617187 -1.078125,-0.7617187 -1.0429687,0 -1.60546873,1.2890625 -1.60546873,1.5351562 0,0.1054688 0.10546875,0.1054688 0.1171875,0.1054688 0.0820313,0 0.1171875,-0.023437 0.12890625,-0.1171875 0.33984378,-1.0546875 0.99609378,-1.3007813 1.33593748,-1.3007813 0.1875,0 0.5390625,0.09375 0.5390625,0.6679688 0,0.3046875 -0.1640625,0.9726562 -0.5390625,2.3671875 -0.1523437,0.62109371 -0.5039062,1.04296871 -0.9492187,1.04296871 -0.058594,0 -0.28125003,0 -0.49218753,-0.12890625 0.24609375,-0.0585938 0.46875003,-0.26953125 0.46875003,-0.5390625 0,-0.26953126 -0.22265628,-0.35156246 -0.37500003,-0.35156246 -0.29296875,0 -0.5390625,0.25781246 -0.5390625,0.57421871 0,0.45703125 0.4921875,0.65625 0.93750003,0.65625 0.65625,0 1.0078125,-0.69140625 1.0429687,-0.75 0.1171875,0.36328125 0.4804688,0.75 1.078125,0.75 1.0195313,0 1.59375,-1.27734371 1.59375,-1.53515621 0,-0.09375 -0.09375,-0.09375 -0.1289062,-0.09375 -0.082031,0 -0.1054688,0.035156 -0.1289063,0.1054687 -0.328125,1.06640626 -0.9960937,1.31250001 -1.3242187,1.31250001 -0.3867188,0 -0.5390625,-0.328125 -0.5390625,-0.65625 0,-0.22265625 0.058594,-0.44531251 0.1640625,-0.87890621 z m 0,0"
                style="fill:#000000;fill-opacity:1;fill-rule:nonzero;stroke:none"
                aria-label="x"
                transform="matrix(1.3333333,0,0,1.3333333,600.336,223.19867)"/>
        <path
                id="path17"
                d="M 238.11398,0 V 132.80528"
                style="fill:none;stroke:#000000;stroke-width:0.79701;stroke-linecap:butt;stroke-linejoin:miter;stroke-miterlimit:10;stroke-dasharray:none;stroke-opacity:1"
                transform="matrix(1.3333333,0,0,-1.3333333,31.849333,220.33867)"/>
        <path
                id="path18"
                d="M 5.44046,0 1.28699,1.5706 2.66432,0 1.28699,-1.5706 Z"
                style="fill:#000000;fill-opacity:1;fill-rule:nonzero;stroke:#000000;stroke-width:0.79701;stroke-linecap:butt;stroke-linejoin:miter;stroke-miterlimit:10;stroke-dasharray:none;stroke-opacity:1"
                transform="matrix(0,-1.3333333,-1.3333333,0,349.33464,46.55172)"/>
        <g
                id="g18"
                aria-label="p(x)"
                transform="matrix(1.3333333,0,0,1.3333333,337.02667,29.508)">
            <path
                    id="path19"
                    d="m 0.44582031,1.2186094 c -0.0820313,0.3398437 -0.09375,0.4101562 -0.5390625,0.4101562 -0.1171875,0 -0.22265625,0 -0.22265625,0.1875 0,0.082031 0.046875,0.1171875 0.12890625,0.1171875 0.26953125,0 0.55078125,-0.035156 0.83203125,-0.035156 0.328125,0 0.66796874,0.035156 0.98437504,0.035156 0.058594,0 0.1875,0 0.1875,-0.1992187 0,-0.1054688 -0.1054688,-0.1054688 -0.2460938,-0.1054688 -0.4921875,0 -0.4921875,-0.070312 -0.4921875,-0.1640625 0,-0.1171875 0.421875,-1.74609373 0.4804688,-1.99218748 0.140625,0.29296875 0.4101562,0.6328125 0.9257812,0.6328125 1.1484375,0 2.4023438,-1.45312502 2.4023438,-2.91796872 0,-0.9375 -0.5742188,-1.59375 -1.3359375,-1.59375 -0.4921875,0 -0.9726563,0.3632812 -1.3007813,0.75 -0.09375,-0.5390625 -0.5273437,-0.75 -0.890625,-0.75 -0.45703124,0 -0.65624999,0.3867187 -0.73828124,0.5742187 -0.1875,0.3398438 -0.31640625,0.9375 -0.31640625,0.9609375 0,0.1054688 0.10546875,0.1054688 0.12890625,0.1054688 0.09375,0 0.10546875,-0.011719 0.1640625,-0.234375 0.1640625,-0.703125 0.36328125,-1.1835938 0.72656254,-1.1835938 0.1757812,0 0.3046875,0.082031 0.3046875,0.4570313 0,0.234375 -0.023437,0.3398437 -0.070312,0.5039062 z M 2.2036328,-3.1056094 c 0.070312,-0.2695312 0.3398438,-0.5507812 0.515625,-0.703125 0.3515625,-0.3046875 0.6328125,-0.375 0.8085938,-0.375 0.3984375,0 0.6328125,0.3515625 0.6328125,0.9375 0,0.5859375 -0.328125,1.734375 -0.5039063,2.109375 -0.3398437,0.70312502 -0.8203125,1.03125002 -1.1835937,1.03125002 -0.65625,0 -0.7851563,-0.83203125 -0.7851563,-0.890625 0,-0.0234375 0,-0.0351562 0.023437,-0.16406252 z m 0,0"
                    style="fill:#000000;fill-opacity:1;fill-rule:nonzero;stroke:none"/>
            <path
                    id="path20"
                    d="m 8.3061719,2.3904844 c 0,-0.035156 0,-0.046875 -0.1640625,-0.2226563 -1.2421875,-1.25390623 -1.5703125,-3.12890623 -1.5703125,-4.6640625 0,-1.7226562 0.3867187,-3.4570312 1.6054687,-4.7109375 0.1289063,-0.1171875 0.1289063,-0.1289062 0.1289063,-0.1640625 0,-0.070312 -0.035156,-0.1054687 -0.09375,-0.1054687 -0.1054688,0 -0.9960938,0.6796875 -1.5820313,1.9453125 -0.515625,1.1015625 -0.6328125,2.203125 -0.6328125,3.0351562 0,0.7851563 0.1171875,1.99218752 0.65625,3.11718752 0.5976563,1.21874998 1.453125,1.87499998 1.5585938,1.87499998 0.058594,0 0.09375,-0.035156 0.09375,-0.1054687 z m 0,0"
                    style="fill:#000000;fill-opacity:1;fill-rule:nonzero;stroke:none"/>
            <path
                    id="path21"
                    d="m 12.214375,-3.0118594 c 0.05859,-0.2578125 0.292969,-1.171875 0.984375,-1.171875 0.04687,0 0.292969,0 0.503906,0.1289063 -0.28125,0.046875 -0.480468,0.3046875 -0.480468,0.5390625 0,0.1640625 0.105468,0.3515625 0.375,0.3515625 0.222656,0 0.539062,-0.1875 0.539062,-0.5859375 0,-0.515625 -0.585937,-0.65625 -0.925781,-0.65625 -0.574219,0 -0.925781,0.5273437 -1.042969,0.7617187 -0.257812,-0.65625 -0.785156,-0.7617187 -1.078125,-0.7617187 -1.042969,0 -1.6054687,1.2890625 -1.6054687,1.5351562 0,0.1054688 0.1054687,0.1054688 0.1171875,0.1054688 0.082031,0 0.1171875,-0.023437 0.1289062,-0.1171875 0.339844,-1.0546875 0.996094,-1.3007813 1.335938,-1.3007813 0.1875,0 0.539062,0.09375 0.539062,0.6679688 0,0.3046875 -0.164062,0.9726562 -0.539062,2.3671875 -0.152344,0.62109372 -0.503907,1.04296872 -0.949219,1.04296872 -0.05859,0 -0.2812502,0 -0.4921877,-0.12890625 0.2460937,-0.0585937 0.4687497,-0.26953125 0.4687497,-0.5390625 0,-0.26953127 -0.222656,-0.35156247 -0.3749997,-0.35156247 -0.2929688,0 -0.5390625,0.25781247 -0.5390625,0.57421872 0,0.45703125 0.4921875,0.65625 0.9375002,0.65625 0.65625,0 1.007812,-0.69140625 1.042969,-0.75 0.117187,0.36328125 0.480468,0.75 1.078125,0.75 1.019531,0 1.59375,-1.27734372 1.59375,-1.53515622 0,-0.09375 -0.09375,-0.09375 -0.128907,-0.09375 -0.08203,0 -0.105468,0.035156 -0.128906,0.1054687 -0.328125,1.06640627 -0.996094,1.31250002 -1.324219,1.31250002 -0.386718,0 -0.539062,-0.328125 -0.539062,-0.65625 0,-0.22265625 0.05859,-0.44531252 0.164062,-0.87890622 z m 0,0"
                    style="fill:#000000;fill-opacity:1;fill-rule:nonzero;stroke:none"/>
            <path
                    id="path22"
                    d="m 17.464375,-2.4962344 c 0,-0.7734375 -0.117187,-1.9804687 -0.65625,-3.1054687 -0.597656,-1.21875 -1.464844,-1.875 -1.558594,-1.875 -0.05859,0 -0.105468,0.046875 -0.105468,0.1054687 0,0.035156 0,0.046875 0.199218,0.234375 0.972657,0.984375 1.535157,2.5664063 1.535157,4.640625 0,1.71093752 -0.363282,3.45703127 -1.59375,4.7226563 -0.140625,0.1171875 -0.140625,0.1289062 -0.140625,0.1640625 0,0.058594 0.04687,0.1054687 0.105468,0.1054687 0.09375,0 0.996094,-0.6796875 1.582032,-1.94531248 0.503906,-1.1015625 0.632812,-2.20312502 0.632812,-3.04687502 z m 0,0"
                    style="fill:#000000;fill-opacity:1;fill-rule:nonzero;stroke:none"/>
        </g>
        <path
                id="path23"
                d="m 367.5886,0 v 22.37674 l 0.54589,-0.96283 0.5459,-0.94922 0.54591,-0.90605 0.5459,-0.88199 0.54592,-0.84885 0.54591,-0.8252 0.5459,-0.80434 0.5459,-0.75754 0.54589,-0.74529 0.54595,-0.71304 0.5459,-0.67989 0.5459,-0.66625 0.54591,-0.63311 0.5459,-0.61129 0.5459,-0.58817 0.54592,-0.55589 0.5459,-0.54183 0.54592,-0.50911 0.5459,-0.4987 0.54591,-0.47459 0.54591,-0.4419 0.5459,-0.42962 0.54591,-0.41785 0.5459,-0.38468 0.5459,-0.37286 0.54593,-0.36243 0.54592,-0.34018 0.5459,-0.31564 0.54589,-0.30566 0.54591,-0.2952 0.54592,-0.27067 0.5459,-0.26072 0.54591,-0.24842 0.5459,-0.23843 0.5459,-0.22572 0.54594,-0.20393 0.5459,-0.20345 0.5459,-0.18122 0.5459,-0.18122 0.54591,-0.16942 0.54592,-0.15849 0.5459,-0.1467 0.5459,-0.13625 0.5459,-0.13488 0.54592,-0.12398 0.54593,-0.114 0.5459,-0.10174 0.54589,-0.10219 0.5459,-0.10173 0.54592,-0.08946 0.54591,-0.0763 0.5459,-0.07904 0.54593,-0.07264 0.5459,-0.06905 0.5459,-0.06403 0.54592,-0.06042 0.5459,-0.05495 0.5459,-0.05177 0.5459,-0.0486 0.54591,-0.04631 0.54592,-0.04135 0.54591,-0.03815 0.54591,-0.03633 0.5459,-0.0345 0.5459,-0.0309 0.54593,-0.02951 0.5459,-0.02588 0.5459,-0.02408 0.5459,-0.02406 0.54591,-0.0209 0.54593,-0.01908 0.5459,-0.01863 0.54591,-0.01726 0.5459,-0.0159 0.5459,-0.01361 0.54593,-0.01228 0.54589,-0.01179 0.5459,-0.01227 0.5459,-0.01044 L 410.74663,0 Z"
                style="fill:#ffe0e0;fill-opacity:1;fill-rule:nonzero;stroke:none"
                transform="matrix(1.3333333,0,0,-1.3333333,31.849333,220.33867)"/>
        <path
                id="path24"
                d="m 244.06673,0.10489 1.19899,0.02454 1.19898,0.02723 1.19901,0.03316 1.19901,0.04134 1.19898,0.04812 1.19901,0.05542 1.19899,0.06722 1.199,0.07948 1.19901,0.0931 1.19899,0.10853 1.199,0.12627 1.19901,0.14851 1.19899,0.16032 1.199,0.20348 1.199,0.22798 1.19899,0.25888 1.19901,0.30565 1.199,0.33972 1.19899,0.39513 1.199,0.44191 1.19901,0.4973 1.19899,0.56588 1.199,0.63358 1.19899,0.71257 1.19901,0.79205 1.199,0.87157 1.19899,0.97328 1.19899,1.08591 1.19902,1.17673 1.19899,1.30121 1.19901,1.41381 1.19899,1.54961 1.199,1.67406 1.19901,1.81031 1.19899,1.94701 1.19899,2.09144 1.19902,2.2404 1.19899,2.38664 1.19899,2.52334 1.199,2.68186 1.19901,2.80449 1.19899,2.95297 1.199,3.07698 1.19899,3.20142 1.19901,3.30314 1.199,3.41715 1.19899,3.49664 1.19901,3.57427 1.199,3.6206 1.19899,3.6656 1.19901,3.68827 1.19899,3.67603 1.19899,3.66556 1.19902,3.59838 1.19899,3.53976 1.19899,3.45168 1.199,3.32585 1.19901,3.17871 1.19899,3.00976 1.199,2.82717 1.19899,2.61465 1.19901,2.38663 1.199,2.12642 1.19899,1.86707 1.19899,1.57232 1.19902,1.27894 1.19899,0.96148 1.19901,0.65579 1.19899,0.32793 h 1.199 l 1.19901,-0.31612 1.19897,-0.65762 1.19899,-0.96102 1.19904,-1.26666 1.19897,-1.57232 1.19899,-1.85527 1.19901,-2.12822 1.199,-2.37438 1.19899,-2.61328 1.19901,-2.82854 1.19899,-3.00977 1.199,-3.17918 1.19901,-3.32539 1.19899,-3.43987 1.199,-3.54112 1.19901,-3.59654 1.19899,-3.66605 1.199,-3.67599 1.19899,-3.68784 1.199,-3.66557 1.19901,-3.62108 1.19899,-3.57428 1.199,-3.49619 1.199,-3.41712 1.199,-3.3136 1.199,-3.20323 1.199,-3.07743 1.19899,-2.95118 1.19901,-2.81809 1.199,-2.67006 1.19899,-2.53332 1.19899,-2.38667 1.19902,-2.2404 1.19899,-2.09324 1.19901,-1.9452 1.19898,-1.82256 1.19901,-1.67404 1.19901,-1.54964 1.19898,-1.41336 1.19899,-1.30118 1.19903,-1.18948 1.19898,-1.07318 1.19899,-0.97328 1.19901,-0.88199 1.199,-0.79209 1.19899,-0.71302 1.19901,-0.63311 1.19899,-0.56634 1.199,-0.49686 1.19901,-0.45416 1.19899,-0.38469 1.19899,-0.35016 1.199,-0.29338 1.19901,-0.27115 1.199,-0.22798 1.19899,-0.19121 1.19899,-0.17122 1.19902,-0.1467 1.19899,-0.12762 1.19899,-0.10855 1.19901,-0.09311 1.199,-0.07947 1.19899,-0.06721 1.19901,-0.05724 1.19899,-0.04812 1.199,-0.03998 1.19901,-0.03452 1.19899,-0.02723 1.19899,-0.02454"
                style="fill:none;stroke:#bf0000;stroke-width:1.19553;stroke-linecap:butt;stroke-linejoin:miter;stroke-miterlimit:10;stroke-dasharray:none;stroke-opacity:1"
                transform="matrix(1.3333333,0,0,-1.3333333,31.849333,220.33867)"/>
        <path
                id="path25"
                d="M 367.5886,0 V 22.37674"
                style="fill:none;stroke:#000000;stroke-width:0.3985;stroke-linecap:butt;stroke-linejoin:miter;stroke-miterlimit:10;stroke-dasharray:2.98883, 2.98883;stroke-dashoffset:0;stroke-opacity:1"
                transform="matrix(1.3333333,0,0,-1.3333333,31.849333,220.33867)"/>
        <path
                id="path26"
                d="m 2.3075078,-6.6783516 c -0.082031,-0.1171875 -0.09375,-0.1289062 -0.28125,-0.1289062 H 0.32703906 v 0.3164062 h 0.29296875 c 0.140625,0 0.33984375,0.011719 0.49218749,0.011719 0.234375,0.035156 0.2460938,0.046875 0.2460938,0.234375 v 5.203125 c 0,0.26953124 0,0.73828124 -1.03125004,0.73828124 v 0.3046875 c 0.3515625,-0.01171875 0.83203124,-0.03515625 1.17187504,-0.03515625 0.328125,0 0.8085937,0.0234375 1.1601562,0.03515625 v -0.3046875 c -1.03125,0 -1.03125,-0.46875 -1.03125,-0.73828124 v -5.1796875 c 0.058594,0.046875 0.070312,0.058594 0.1054688,0.1171875 l 4.0664062,5.97656249 c 0.082031,0.1171875 0.09375,0.12890625 0.1640625,0.12890625 0.140625,0 0.140625,-0.0703125 0.140625,-0.2578125 V -5.7525703 c 0,-0.2695313 0,-0.7382813 1.03125,-0.7382813 v -0.3164062 c -0.3515625,0.011719 -0.84375,0.035156 -1.171875,0.035156 -0.328125,0 -0.8203125,-0.023437 -1.1601562,-0.035156 v 0.3164062 c 1.0195312,0 1.0195312,0.46875 1.0195312,0.7382813 v 4.2539062 z m 9.8525392,4.546875 c 0,-1.2773437 -0.996094,-2.3320312 -2.1914064,-2.3320312 -1.2539062,0 -2.2148437,1.0898437 -2.2148437,2.3320312 0,1.28906254 1.03125,2.23828129 2.203125,2.23828129 1.2070311,0 2.2031251,-0.97265625 2.2031251,-2.23828129 z m -2.1914064,1.99218754 c -0.4335937,0 -0.8671875,-0.2109375 -1.1367187,-0.66796875 C 8.5741094,-1.2408516 8.5741094,-1.8502266 8.5741094,-2.2135078 c 0,-0.3867188 0,-0.9257813 0.2460937,-1.359375 0.2695313,-0.4570313 0.7382813,-0.6679688 1.1367188,-0.6679688 0.4335941,0 0.8671871,0.2226563 1.1250001,0.6445313 0.257812,0.4335937 0.257812,1.0078125 0.257812,1.3828125 0,0.3632812 0,0.9023437 -0.222656,1.33593749 -0.222656,0.4453125 -0.65625,0.73828125 -1.1484374,0.73828125 z M 14.117078,-3.3033516 v -1.1015625 l -1.382812,0.1171875 v 0.3046875 c 0.691406,0 0.773437,0.070312 0.773437,0.5625 v 2.66015629 c 0,0.45703125 -0.105469,0.45703125 -0.773437,0.45703125 v 0.3046875 c 0.386718,-0.01171875 0.855468,-0.03515625 1.136718,-0.03515625 0.398438,0 0.867188,0 1.265625,0.03515625 v -0.3046875 h -0.210937 c -0.738281,0 -0.761719,-0.1171875 -0.761719,-0.46875 V -2.3072578 c 0,-0.984375 0.421875,-1.875 1.183594,-1.875 0.05859,0 0.08203,0 0.105469,0.011719 -0.03516,0.011719 -0.234375,0.1289063 -0.234375,0.3867188 0,0.28125 0.210937,0.4335937 0.433593,0.4335937 0.175782,0 0.421875,-0.1289062 0.421875,-0.4453125 0,-0.3164062 -0.304687,-0.609375 -0.726562,-0.609375 -0.738281,0 -1.089844,0.6679688 -1.230469,1.1015622 z m 3.339844,-0.1171875 v 2.66015629 c 0,0.45703125 -0.117188,0.45703125 -0.785156,0.45703125 v 0.3046875 c 0.351562,-0.01171875 0.855468,-0.03515625 1.125,-0.03515625 0.257812,0 0.785156,0.0234375 1.113281,0.03515625 v -0.3046875 c -0.65625,0 -0.773438,0 -0.773438,-0.45703125 V -2.5885078 c 0,-1.03125 0.714844,-1.59375 1.347657,-1.59375 0.621093,0 0.738281,0.5390625 0.738281,1.1015625 v 2.32031249 c 0,0.45703125 -0.117188,0.45703125 -0.773438,0.45703125 v 0.3046875 c 0.339844,-0.01171875 0.855469,-0.03515625 1.125,-0.03515625 0.257813,0 0.773438,0.0234375 1.113282,0.03515625 v -0.3046875 c -0.667969,0 -0.785157,0 -0.785157,-0.45703125 V -2.5885078 c 0,-1.03125 0.714844,-1.59375 1.347657,-1.59375 0.632812,0 0.738281,0.5390625 0.738281,1.1015625 v 2.32031249 c 0,0.45703125 -0.105469,0.45703125 -0.773438,0.45703125 v 0.3046875 c 0.351563,-0.01171875 0.855469,-0.03515625 1.125,-0.03515625 0.257813,0 0.773438,0.0234375 1.113282,0.03515625 v -0.3046875 c -0.515625,0 -0.761719,0 -0.773438,-0.3046875 V -2.5064766 c 0,-0.8554687 0,-1.171875 -0.316406,-1.5234375 -0.128906,-0.1757812 -0.46875,-0.375 -1.042969,-0.375 -0.832031,0 -1.277344,0.5976563 -1.441406,0.984375 -0.140625,-0.8671875 -0.878906,-0.984375 -1.324219,-0.984375 -0.726562,0 -1.195312,0.4335938 -1.476562,1.0546875 v -1.0546875 l -1.40625,0.1171875 v 0.3046875 c 0.703125,0 0.785156,0.070312 0.785156,0.5625 z M 27.9745,-0.76038281 c 0.03516,0.3984375 0.304688,0.8203125 0.773438,0.8203125 0.210937,0 0.820312,-0.140625 0.820312,-0.94921875 V -1.4400703 h -0.246094 v 0.55078124 c 0,0.5859375 -0.246093,0.64453125 -0.363281,0.64453125 -0.328125,0 -0.363281,-0.45703125 -0.363281,-0.50390625 V -2.7408516 c 0,-0.4101562 0,-0.8085937 -0.363281,-1.171875 -0.386719,-0.3867187 -0.878907,-0.5507812 -1.359375,-0.5507812 -0.820313,0 -1.511719,0.46875 -1.511719,1.125 0,0.3046875 0.199219,0.46875 0.457031,0.46875 0.28125,0 0.46875,-0.1992188 0.46875,-0.4570313 0,-0.1171875 -0.05859,-0.4453125 -0.515625,-0.4570312 0.269531,-0.3515625 0.761719,-0.4570313 1.078125,-0.4570313 0.492188,0 1.054688,0.3867188 1.054688,1.2773438 v 0.3632812 c -0.503907,0.035156 -1.207032,0.058594 -1.828125,0.3632813 -0.75,0.3398437 -0.996094,0.8554687 -0.996094,1.28906249 0,0.80859375 0.960937,1.0546875 1.59375,1.0546875 0.65625,0 1.113281,-0.3984375 1.300781,-0.8671875 z M 27.90419,-2.3892891 v 0.9960938 c 0,0.94921874 -0.714844,1.28906249 -1.160157,1.28906249 -0.492187,0 -0.902343,-0.3515625 -0.902343,-0.85546875 0,-0.53906254 0.421875,-1.37109374 2.0625,-1.42968754 z m 3.492187,-4.5234375 -1.429687,0.1054688 v 0.3164062 c 0.703125,0 0.773437,0.070312 0.773437,0.5507813 v 5.17968749 c 0,0.45703125 -0.105469,0.45703125 -0.773437,0.45703125 v 0.3046875 c 0.328125,-0.01171875 0.855468,-0.03515625 1.101562,-0.03515625 0.257813,0 0.738281,0.0234375 1.113281,0.03515625 v -0.3046875 c -0.667968,0 -0.785156,0 -0.785156,-0.45703125 z m 5.15918,3.5976563 c 0.08203,-0.234375 0.257812,-0.65625 0.914062,-0.6679688 v -0.3046875 c -0.234375,0.011719 -0.515625,0.023437 -0.75,0.023437 -0.234375,0 -0.691406,-0.023437 -0.867187,-0.023437 v 0.3046875 c 0.375,0.011719 0.480468,0.234375 0.480468,0.4335938 0,0.082031 -0.02344,0.1289062 -0.05859,0.234375 l -1.019532,2.54296874 -1.113281,-2.77734374 c -0.05859,-0.140625 -0.05859,-0.1523438 -0.05859,-0.1757813 0,-0.2578125 0.386719,-0.2578125 0.5625,-0.2578125 v -0.3046875 c -0.292968,0 -0.855468,0.023437 -1.078125,0.023437 -0.269531,0 -0.667968,-0.011719 -0.972656,-0.023437 v 0.3046875 c 0.632813,0 0.667969,0.058594 0.796875,0.3632813 l 1.441406,3.53906249 c 0.05859,0.140625 0.07031,0.1875 0.199219,0.1875 0.128906,0 0.175781,-0.08203125 0.210938,-0.1875 z m 1.942383,0.8085937 c 0.05859,-1.4882812 0.902343,-1.734375 1.242187,-1.734375 1.019531,0 1.125,1.3476563 1.125,1.734375 z m -0.01172,0.2109375 h 2.789062 c 0.210938,0 0.246094,0 0.246094,-0.2109375 0,-0.984375 -0.539062,-1.9570312 -1.78125,-1.9570312 -1.160156,0 -2.074219,1.03125 -2.074219,2.2734375 0,1.33593749 1.042969,2.29687499 2.191407,2.29687499 1.21875,0 1.664062,-1.1015625 1.664062,-1.28906249 0,-0.1054688 -0.08203,-0.1171875 -0.128906,-0.1171875 -0.09375,0 -0.117188,0.058594 -0.128906,0.140625 -0.351563,1.01953124 -1.253907,1.01953124 -1.347657,1.01953124 -0.503906,0 -0.902343,-0.29296875 -1.125,-0.66796875 C 38.486219,-1.2877266 38.486219,-1.9439766 38.486219,-2.2955391 Z m 4.992187,-1.0078125 v -1.1015625 l -1.382812,0.1171875 v 0.3046875 c 0.691406,0 0.773437,0.070312 0.773437,0.5625 v 2.66015629 c 0,0.45703125 -0.105468,0.45703125 -0.773437,0.45703125 v 0.3046875 c 0.386719,-0.01171875 0.855469,-0.03515625 1.136719,-0.03515625 0.398437,0 0.867187,0 1.265625,0.03515625 v -0.3046875 H 44.287 c -0.738281,0 -0.761719,-0.1171875 -0.761719,-0.46875 V -2.3072578 c 0,-0.984375 0.421875,-1.875 1.183594,-1.875 0.05859,0 0.08203,0 0.105469,0.011719 -0.03516,0.011719 -0.234375,0.1289063 -0.234375,0.3867188 0,0.28125 0.210937,0.4335937 0.433594,0.4335937 0.175781,0 0.421875,-0.1289062 0.421875,-0.4453125 0,-0.3164062 -0.304688,-0.609375 -0.726563,-0.609375 -0.738281,0 -1.089844,0.6679688 -1.230469,1.1015625 z m 3.960938,-0.6796875 h 1.429687 V -4.2877266 H 47.439344 V -6.1275703 H 47.19325 c -0.01172,0.8203125 -0.316406,1.8867187 -1.289062,1.921875 v 0.2226562 h 0.84375 v 2.7539063 c 0,1.21874999 0.925781,1.33593749 1.289062,1.33593749 0.703125,0 0.984375,-0.703125 0.984375,-1.33593749 v -0.5742188 h -0.246094 v 0.5507813 c 0,0.73828124 -0.304687,1.11328124 -0.667968,1.11328124 -0.667969,0 -0.667969,-0.90234374 -0.667969,-1.07812504 z m 3.263672,1.4765625 c 0.05859,-1.4882812 0.902343,-1.734375 1.242187,-1.734375 1.019531,0 1.125,1.3476563 1.125,1.734375 z m -0.01172,0.2109375 h 2.789062 c 0.210938,0 0.246094,0 0.246094,-0.2109375 0,-0.984375 -0.539062,-1.9570312 -1.78125,-1.9570312 -1.160156,0 -2.074219,1.03125 -2.074219,2.2734375 0,1.33593749 1.042969,2.29687499 2.191407,2.29687499 1.21875,0 1.664062,-1.1015625 1.664062,-1.28906249 0,-0.1054688 -0.08203,-0.1171875 -0.128906,-0.1171875 -0.09375,0 -0.117188,0.058594 -0.128906,0.140625 -0.351563,1.01953124 -1.253907,1.01953124 -1.347657,1.01953124 -0.503906,0 -0.902343,-0.29296875 -1.125,-0.66796875 C 50.691297,-1.2877266 50.691297,-1.9439766 50.691297,-2.2955391 Z m 5.083008,-2.109375 -1.394532,0.1171875 v 0.3046875 c 0.65625,0 0.738282,0.058594 0.738282,0.5507813 v 2.67187499 c 0,0.45703125 -0.105469,0.45703125 -0.773438,0.45703125 v 0.3046875 c 0.316406,-0.01171875 0.855469,-0.03515625 1.101563,-0.03515625 0.339843,0 0.691406,0.0234375 1.03125,0.03515625 v -0.3046875 c -0.65625,0 -0.703125,-0.0585938 -0.703125,-0.4453125 z m 0.04687,-1.734375 c 0,-0.3164062 -0.246094,-0.5273437 -0.527344,-0.5273437 -0.316406,0 -0.527344,0.2695312 -0.527344,0.5273437 0,0.2695313 0.210938,0.5273438 0.527344,0.5273438 0.28125,0 0.527344,-0.1992188 0.527344,-0.5273438 z m 2.721679,-0.7734375 -1.429687,0.1054688 v 0.3164062 c 0.703125,0 0.773437,0.070312 0.773437,0.5507813 v 5.17968749 c 0,0.45703125 -0.105468,0.45703125 -0.773437,0.45703125 v 0.3046875 c 0.328125,-0.01171875 0.855469,-0.03515625 1.101562,-0.03515625 0.257813,0 0.738282,0.0234375 1.113282,0.03515625 v -0.3046875 c -0.667969,0 -0.785157,0 -0.785157,-0.45703125 z m 4.901368,6.12890629 v 0.890625 l 1.441406,-0.10546875 v -0.3046875 c -0.703125,0 -0.785156,-0.0703125 -0.785156,-0.5625 V -4.4049141 l -1.453125,0.1171875 v 0.3046875 c 0.691406,0 0.773437,0.070312 0.773437,0.5625 v 1.7695313 c 0,0.86718749 -0.480469,1.54687499 -1.207031,1.54687499 -0.832031,0 -0.878906,-0.46875 -0.878906,-0.99609379 v -3.3046875 l -1.464844,0.1171875 v 0.3046875 c 0.785156,0 0.785156,0.035156 0.785156,0.9140625 v 1.5 c 0,0.77343754 0,1.67578129 1.511719,1.67578129 0.550781,0 0.996094,-0.26953125 1.277344,-0.890625 z m 2.745117,-2.63671879 v 2.66015629 c 0,0.45703125 -0.117188,0.45703125 -0.785156,0.45703125 v 0.3046875 c 0.351562,-0.01171875 0.855468,-0.03515625 1.125,-0.03515625 0.257812,0 0.785156,0.0234375 1.113281,0.03515625 v -0.3046875 c -0.65625,0 -0.773438,0 -0.773438,-0.45703125 V -2.5885078 c 0,-1.03125 0.714844,-1.59375 1.347657,-1.59375 0.621093,0 0.738281,0.5390625 0.738281,1.1015625 v 2.32031249 c 0,0.45703125 -0.117188,0.45703125 -0.773438,0.45703125 v 0.3046875 c 0.339844,-0.01171875 0.855469,-0.03515625 1.125,-0.03515625 0.257813,0 0.773438,0.0234375 1.113282,0.03515625 v -0.3046875 c -0.515625,0 -0.773438,0 -0.785157,-0.3046875 V -2.5064766 c 0,-0.8554687 0,-1.171875 -0.304687,-1.5234375 -0.140625,-0.1757812 -0.46875,-0.375 -1.042969,-0.375 -0.726562,0 -1.195312,0.4335938 -1.476562,1.0546875 v -1.0546875 l -1.40625,0.1171875 v 0.3046875 c 0.703125,0 0.785156,0.070312 0.785156,0.5625 z m 6.647461,1.7109375 c -0.867188,0 -0.867188,-0.9960937 -0.867188,-1.2304687 0,-0.2695313 0.01172,-0.5859375 0.152344,-0.8320313 0.08203,-0.1171875 0.316406,-0.3984375 0.714844,-0.3984375 0.867187,0 0.867187,0.9960938 0.867187,1.21875 0,0.2695313 -0.01172,0.5976563 -0.164062,0.84375 -0.08203,0.1171875 -0.304688,0.3984375 -0.703125,0.3984375 z m -1.160157,0.3867188 c 0,-0.035156 0,-0.2695313 0.175782,-0.46875 0.386718,0.28125 0.796875,0.3046875 0.984375,0.3046875 0.925781,0 1.605468,-0.6796875 1.605468,-1.453125 0,-0.3632813 -0.152343,-0.7382813 -0.398437,-0.9609375 0.351562,-0.3398438 0.714844,-0.3867188 0.890625,-0.3867188 0.02344,0 0.07031,0 0.105469,0 -0.117188,0.046875 -0.164063,0.1523438 -0.164063,0.2695313 0,0.1757812 0.128906,0.2929687 0.292969,0.2929687 0.09375,0 0.28125,-0.070312 0.28125,-0.2929687 0,-0.1757813 -0.117188,-0.4921875 -0.503906,-0.4921875 -0.199219,0 -0.632813,0.058594 -1.054688,0.46875 -0.421875,-0.328125 -0.84375,-0.3632813 -1.054687,-0.3632813 -0.925782,0 -1.617188,0.6914063 -1.617188,1.453125 0,0.4453125 0.222656,0.8203125 0.46875,1.03125 -0.128906,0.1523438 -0.304687,0.4804688 -0.304687,0.8203125 0,0.31640629 0.128906,0.69140629 0.433593,0.89062504 -0.597656,0.17578125 -0.914062,0.59765625 -0.914062,0.99609375 0,0.71484371 0.984375,1.26562501 2.203125,1.26562501 1.171875,0 2.203125,-0.5039063 2.203125,-1.28906251 0,-0.33984375 -0.140625,-0.85546875 -0.644531,-1.125 -0.527344,-0.28125 -1.101563,-0.28125 -1.710938,-0.28125 -0.246094,0 -0.679687,0 -0.75,-0.0117188 -0.316406,-0.046875 -0.527344,-0.35156259 -0.527344,-0.66796869 z m 1.441407,3.1523437 c -1.007813,0 -1.699219,-0.515625 -1.699219,-1.04296871 0,-0.45703125 0.375,-0.8203125 0.820312,-0.85546875 h 0.585938 c 0.855469,0 1.96875,0 1.96875,0.85546875 0,0.53906251 -0.703125,1.04296871 -1.675781,1.04296871 z m 0,0"
                style="fill:#000000;fill-opacity:1;fill-rule:nonzero;stroke:none"
                aria-label="Normalverteilung"
                transform="matrix(1.3333333,0,0,1.3333333,421.95067,253.424)"/>
    </g>
</svg>
