<svg width="1050" height="530" viewBox="0 0 1050 530" fill="none" xmlns="http://www.w3.org/2000/svg">
    <rect x="49" y="48" width="64" height="64" fill="#1D1D1F"/>
    <rect x="123" y="48" width="64" height="64" fill="#1D1D1F"/>
    <rect x="197" y="48" width="64" height="64" fill="#1D1D1F"/>
    <rect x="271" y="48" width="64" height="64" fill="#1D1D1F"/>
    <rect x="345" y="48" width="64" height="64" fill="#1D1D1F"/>
    <rect x="419" y="48" width="64" height="64" fill="#1D1D1F"/>
    <rect x="568.5" y="49.5" width="61" height="61" stroke="#1D1D1F" stroke-width="3"/>
    <rect x="642.5" y="49.5" width="61" height="61" stroke="#1D1D1F" stroke-width="3"/>
    <rect x="716.5" y="49.5" width="61" height="61" stroke="#1D1D1F" stroke-width="3"/>
    <rect x="790.5" y="49.5" width="61" height="61" stroke="#1D1D1F" stroke-width="3"/>
    <rect x="864.5" y="49.5" width="61" height="61" stroke="#1D1D1F" stroke-width="3"/>
    <rect x="938.5" y="49.5" width="61" height="61" stroke="#1D1D1F" stroke-width="3"/>
    <rect x="49" y="122" width="64" height="64" fill="#1D1D1F"/>
    <rect x="123" y="122" width="64" height="64" fill="#1D1D1F"/>
    <rect x="197" y="122" width="64" height="64" fill="#1D1D1F"/>
    <rect x="271" y="122" width="64" height="64" fill="#1D1D1F"/>
    <rect x="345" y="122" width="64" height="64" fill="#1D1D1F"/>
    <rect x="419" y="122" width="64" height="64" fill="#1D1D1F"/>
    <rect x="568.5" y="123.5" width="61" height="61" stroke="#1D1D1F" stroke-width="3"/>
    <rect x="642.5" y="123.5" width="61" height="61" stroke="#1D1D1F" stroke-width="3"/>
    <rect x="716.5" y="123.5" width="61" height="61" stroke="#1D1D1F" stroke-width="3"/>
    <rect x="790.5" y="123.5" width="61" height="61" stroke="#1D1D1F" stroke-width="3"/>
    <rect x="864.5" y="123.5" width="61" height="61" stroke="#1D1D1F" stroke-width="3"/>
    <rect x="938.5" y="123.5" width="61" height="61" stroke="#1D1D1F" stroke-width="3"/>
    <rect x="49" y="196" width="64" height="64" fill="#1D1D1F"/>
    <rect x="123" y="196" width="64" height="64" fill="#1D1D1F"/>
    <rect x="197" y="196" width="64" height="64" fill="#1D1D1F"/>
    <rect x="271" y="196" width="64" height="64" fill="#1D1D1F"/>
    <rect x="345" y="196" width="64" height="64" fill="#1D1D1F"/>
    <rect x="419" y="196" width="64" height="64" fill="#1D1D1F"/>
    <rect x="568.5" y="197.5" width="61" height="61" stroke="#1D1D1F" stroke-width="3"/>
    <rect x="642.5" y="197.5" width="61" height="61" stroke="#1D1D1F" stroke-width="3"/>
    <rect x="716.5" y="197.5" width="61" height="61" stroke="#1D1D1F" stroke-width="3"/>
    <rect x="790.5" y="197.5" width="61" height="61" stroke="#1D1D1F" stroke-width="3"/>
    <rect x="864.5" y="197.5" width="61" height="61" stroke="#1D1D1F" stroke-width="3"/>
    <rect x="938.5" y="197.5" width="61" height="61" stroke="#1D1D1F" stroke-width="3"/>
    <rect x="49" y="270" width="64" height="64" fill="#1D1D1F"/>
    <rect x="123" y="270" width="64" height="64" fill="#1D1D1F"/>
    <rect x="197" y="270" width="64" height="64" fill="#1D1D1F"/>
    <rect x="271" y="270" width="64" height="64" fill="#1D1D1F"/>
    <rect x="345" y="270" width="64" height="64" fill="#1D1D1F"/>
    <rect x="419" y="270" width="64" height="64" fill="#1D1D1F"/>
    <rect x="568.5" y="271.5" width="61" height="61" stroke="#1D1D1F" stroke-width="3"/>
    <rect x="642.5" y="271.5" width="61" height="61" stroke="#1D1D1F" stroke-width="3"/>
    <rect x="716.5" y="271.5" width="61" height="61" stroke="#1D1D1F" stroke-width="3"/>
    <rect x="790.5" y="271.5" width="61" height="61" stroke="#1D1D1F" stroke-width="3"/>
    <rect x="864.5" y="271.5" width="61" height="61" stroke="#1D1D1F" stroke-width="3"/>
    <rect x="938.5" y="271.5" width="61" height="61" stroke="#1D1D1F" stroke-width="3"/>
    <rect x="49" y="344" width="64" height="64" fill="#1D1D1F"/>
    <rect x="123" y="344" width="64" height="64" fill="#1D1D1F"/>
    <rect x="197" y="344" width="64" height="64" fill="#1D1D1F"/>
    <rect x="271" y="344" width="64" height="64" fill="#1D1D1F"/>
    <rect x="345" y="344" width="64" height="64" fill="#1D1D1F"/>
    <rect x="419" y="344" width="64" height="64" fill="#1D1D1F"/>
    <rect x="568.5" y="345.5" width="61" height="61" stroke="#1D1D1F" stroke-width="3"/>
    <rect x="642.5" y="345.5" width="61" height="61" stroke="#1D1D1F" stroke-width="3"/>
    <rect x="716.5" y="345.5" width="61" height="61" stroke="#1D1D1F" stroke-width="3"/>
    <rect x="790.5" y="345.5" width="61" height="61" stroke="#1D1D1F" stroke-width="3"/>
    <rect x="864.5" y="345.5" width="61" height="61" stroke="#1D1D1F" stroke-width="3"/>
    <rect x="938.5" y="345.5" width="61" height="61" stroke="#1D1D1F" stroke-width="3"/>
    <rect x="49" y="418" width="64" height="64" fill="#1D1D1F"/>
    <rect x="123" y="418" width="64" height="64" fill="#1D1D1F"/>
    <rect x="197" y="418" width="64" height="64" fill="#1D1D1F"/>
    <rect x="271" y="418" width="64" height="64" fill="#1D1D1F"/>
    <rect x="345" y="418" width="64" height="64" fill="#1D1D1F"/>
    <rect x="419" y="418" width="64" height="64" fill="#1D1D1F"/>
    <rect x="568.5" y="419.5" width="61" height="61" stroke="#1D1D1F" stroke-width="3"/>
    <rect x="642.5" y="419.5" width="61" height="61" stroke="#1D1D1F" stroke-width="3"/>
    <rect x="716.5" y="419.5" width="61" height="61" stroke="#1D1D1F" stroke-width="3"/>
    <rect x="790.5" y="419.5" width="61" height="61" stroke="#1D1D1F" stroke-width="3"/>
    <rect x="864.5" y="419.5" width="61" height="61" stroke="#1D1D1F" stroke-width="3"/>
    <rect x="938.5" y="419.5" width="61" height="61" stroke="#1D1D1F" stroke-width="3"/>
</svg>
