<svg width="1050" height="530" viewBox="0 0 1050 530" fill="none" xmlns="http://www.w3.org/2000/svg">
    <rect x="49" y="48" width="64" height="64" fill="#1D1D1F"/>
    <rect x="123" y="48" width="64" height="64" fill="#1D1D1F"/>
    <rect x="197" y="48" width="64" height="64" fill="#1D1D1F"/>
    <rect x="271" y="48" width="64" height="64" fill="#1D1D1F"/>
    <rect x="345" y="48" width="64" height="64" fill="#1D1D1F"/>
    <rect x="419" y="48" width="64" height="64" fill="#1D1D1F"/>
    <rect x="49" y="122" width="64" height="64" fill="#1D1D1F"/>
    <rect x="123" y="122" width="64" height="64" fill="#1D1D1F"/>
    <rect x="197" y="122" width="64" height="64" fill="#1D1D1F"/>
    <rect x="271" y="122" width="64" height="64" fill="#1D1D1F"/>
    <rect x="345" y="122" width="64" height="64" fill="#1D1D1F"/>
    <rect x="419" y="122" width="64" height="64" fill="#1D1D1F"/>
    <rect x="49" y="196" width="64" height="64" fill="#1D1D1F"/>
    <rect x="123" y="196" width="64" height="64" fill="#1D1D1F"/>
    <rect x="197" y="196" width="64" height="64" fill="#1D1D1F"/>
    <rect x="271" y="196" width="64" height="64" fill="#1D1D1F"/>
    <rect x="345" y="196" width="64" height="64" fill="#1D1D1F"/>
    <rect x="419" y="196" width="64" height="64" fill="#1D1D1F"/>
    <rect x="49" y="270" width="64" height="64" fill="#1D1D1F"/>
    <rect x="123" y="270" width="64" height="64" fill="#1D1D1F"/>
    <rect x="197" y="270" width="64" height="64" fill="#1D1D1F"/>
    <rect x="271" y="270" width="64" height="64" fill="#1D1D1F"/>
    <rect x="345" y="270" width="64" height="64" fill="#1D1D1F"/>
    <rect x="419" y="270" width="64" height="64" fill="#1D1D1F"/>
    <rect x="49" y="344" width="64" height="64" fill="#1D1D1F"/>
    <rect x="123" y="344" width="64" height="64" fill="#1D1D1F"/>
    <rect x="197" y="344" width="64" height="64" fill="#1D1D1F"/>
    <rect x="271" y="344" width="64" height="64" fill="#1D1D1F"/>
    <rect x="345" y="344" width="64" height="64" fill="#1D1D1F"/>
    <rect x="419" y="344" width="64" height="64" fill="#1D1D1F"/>
    <rect x="49" y="418" width="64" height="64" fill="#1D1D1F"/>
    <rect x="123" y="418" width="64" height="64" fill="#1D1D1F"/>
    <rect x="197" y="418" width="64" height="64" fill="#1D1D1F"/>
    <rect x="271" y="418" width="64" height="64" fill="#1D1D1F"/>
    <rect x="345" y="418" width="64" height="64" fill="#1D1D1F"/>
    <rect x="419" y="418" width="64" height="64" fill="#1D1D1F"/>
    <rect x="594" y="439.477" width="64" height="64" transform="rotate(-73.8595 594 439.477)" fill="#1D1D1F"/>
    <rect x="692" y="264" width="64" height="64" fill="#1D1D1F"/>
    <rect x="791" y="200.41" width="64" height="64" transform="rotate(-7.55114 791 200.41)" fill="#1D1D1F"/>
    <path d="M848.039 437.766L887.077 387.051L937.792 426.09L898.753 476.804L848.039 437.766Z" fill="#1D1D1F"/>
    <rect x="704" y="418.278" width="64" height="64" transform="rotate(-76.6797 704 418.278)" fill="#1D1D1F"/>
    <rect x="615" y="60" width="64" height="64" fill="#1D1D1F"/>
    <rect x="743" y="99.5945" width="64" height="64" transform="rotate(-12.2639 743 99.5945)" fill="#1D1D1F"/>
    <path d="M889 258.649L946.861 286L919.51 343.861L861.649 316.51L889 258.649Z" fill="#1D1D1F"/>
    <rect x="889" y="76" width="64" height="64" fill="#1D1D1F"/>
    <rect x="621.491" y="179" width="64" height="64" transform="rotate(25.4386 621.491 179)" fill="#1D1D1F"/>
</svg>
