<svg width="1050" height="200" viewBox="0 0 1050 200" fill="none" xmlns="http://www.w3.org/2000/svg">
    <path d="M204.619 88.0511C204.392 85.7595 203.417 83.9792 201.693 82.7102C199.97 81.4413 197.631 80.8068 194.676 80.8068C192.669 80.8068 190.973 81.0909 189.591 81.6591C188.208 82.2083 187.148 82.9754 186.409 83.9602C185.689 84.9451 185.33 86.0625 185.33 87.3125C185.292 88.3542 185.509 89.2633 185.983 90.0398C186.475 90.8163 187.148 91.4886 188 92.0568C188.852 92.6061 189.837 93.089 190.955 93.5057C192.072 93.9034 193.265 94.2443 194.534 94.5284L199.761 95.7784C202.299 96.3466 204.629 97.1042 206.75 98.0511C208.871 98.9981 210.708 100.163 212.261 101.545C213.814 102.928 215.017 104.557 215.869 106.432C216.741 108.307 217.186 110.456 217.205 112.881C217.186 116.441 216.277 119.528 214.477 122.142C212.697 124.737 210.121 126.754 206.75 128.193C203.398 129.614 199.354 130.324 194.619 130.324C189.922 130.324 185.831 129.604 182.347 128.165C178.881 126.725 176.172 124.595 174.222 121.773C172.29 118.932 171.277 115.419 171.182 111.233H183.085C183.218 113.184 183.777 114.812 184.761 116.119C185.765 117.407 187.1 118.383 188.767 119.045C190.453 119.689 192.356 120.011 194.477 120.011C196.561 120.011 198.369 119.708 199.903 119.102C201.456 118.496 202.659 117.653 203.511 116.574C204.364 115.494 204.79 114.254 204.79 112.852C204.79 111.545 204.402 110.447 203.625 109.557C202.867 108.667 201.75 107.909 200.273 107.284C198.814 106.659 197.025 106.091 194.903 105.58L188.568 103.989C183.663 102.795 179.79 100.93 176.949 98.392C174.108 95.8542 172.697 92.4356 172.716 88.1364C172.697 84.6136 173.634 81.536 175.528 78.9034C177.441 76.2708 180.064 74.2159 183.398 72.7386C186.731 71.2614 190.519 70.5227 194.761 70.5227C199.08 70.5227 202.848 71.2614 206.068 72.7386C209.307 74.2159 211.826 76.2708 213.625 78.9034C215.424 81.536 216.352 84.5852 216.409 88.0511H204.619ZM237.695 130.324C234.911 130.324 232.429 129.841 230.251 128.875C228.073 127.89 226.35 126.441 225.081 124.528C223.831 122.597 223.206 120.191 223.206 117.312C223.206 114.888 223.651 112.852 224.541 111.205C225.431 109.557 226.643 108.231 228.178 107.227C229.712 106.223 231.454 105.466 233.405 104.955C235.375 104.443 237.439 104.083 239.598 103.875C242.136 103.61 244.181 103.364 245.734 103.136C247.287 102.89 248.414 102.53 249.115 102.057C249.816 101.583 250.166 100.883 250.166 99.9545V99.7841C250.166 97.9848 249.598 96.5928 248.462 95.608C247.344 94.6231 245.753 94.1307 243.689 94.1307C241.511 94.1307 239.778 94.6136 238.49 95.5795C237.202 96.5265 236.35 97.7197 235.933 99.1591L224.74 98.25C225.308 95.5985 226.426 93.3068 228.092 91.375C229.759 89.4242 231.909 87.928 234.541 86.8864C237.193 85.8258 240.261 85.2955 243.746 85.2955C246.17 85.2955 248.49 85.5795 250.706 86.1477C252.941 86.7159 254.92 87.5966 256.643 88.7898C258.386 89.983 259.759 91.517 260.763 93.392C261.767 95.2481 262.268 97.4735 262.268 100.068V129.5H250.791V123.449H250.45C249.75 124.812 248.812 126.015 247.638 127.057C246.464 128.08 245.053 128.884 243.405 129.472C241.757 130.04 239.854 130.324 237.695 130.324ZM241.161 121.972C242.941 121.972 244.513 121.621 245.876 120.92C247.24 120.201 248.31 119.235 249.087 118.023C249.863 116.811 250.251 115.437 250.251 113.903V109.273C249.873 109.519 249.352 109.746 248.689 109.955C248.045 110.144 247.316 110.324 246.501 110.494C245.687 110.646 244.873 110.788 244.058 110.92C243.244 111.034 242.505 111.138 241.842 111.233C240.422 111.441 239.181 111.773 238.121 112.227C237.06 112.682 236.236 113.297 235.649 114.074C235.062 114.831 234.768 115.778 234.768 116.915C234.768 118.562 235.365 119.822 236.558 120.693C237.77 121.545 239.304 121.972 241.161 121.972ZM283.76 104.273V129.5H271.658V85.8636H283.192V93.5625H283.703C284.669 91.0246 286.288 89.017 288.561 87.5398C290.834 86.0436 293.589 85.2955 296.828 85.2955C299.858 85.2955 302.5 85.9583 304.754 87.2841C307.008 88.6098 308.76 90.5038 310.01 92.9659C311.26 95.4091 311.885 98.3258 311.885 101.716V129.5H299.783V103.875C299.802 101.205 299.12 99.1212 297.737 97.625C296.355 96.1098 294.451 95.3523 292.027 95.3523C290.398 95.3523 288.959 95.7027 287.709 96.4034C286.478 97.1042 285.512 98.1269 284.811 99.4716C284.129 100.797 283.779 102.398 283.76 104.273ZM357.73 98.3068L346.651 98.9886C346.461 98.0417 346.054 97.1894 345.429 96.4318C344.804 95.6553 343.98 95.0398 342.957 94.5852C341.954 94.1117 340.751 93.875 339.349 93.875C337.474 93.875 335.893 94.2727 334.605 95.0682C333.317 95.8447 332.673 96.8864 332.673 98.1932C332.673 99.2348 333.09 100.116 333.923 100.835C334.757 101.555 336.187 102.133 338.213 102.568L346.111 104.159C350.353 105.03 353.516 106.432 355.599 108.364C357.683 110.295 358.724 112.833 358.724 115.977C358.724 118.837 357.882 121.347 356.196 123.506C354.529 125.665 352.238 127.35 349.321 128.562C346.423 129.756 343.08 130.352 339.293 130.352C333.516 130.352 328.914 129.15 325.486 126.744C322.077 124.32 320.079 121.025 319.491 116.858L331.395 116.233C331.755 117.994 332.626 119.339 334.009 120.267C335.391 121.176 337.162 121.631 339.321 121.631C341.442 121.631 343.147 121.223 344.435 120.409C345.741 119.576 346.404 118.506 346.423 117.199C346.404 116.1 345.94 115.201 345.031 114.5C344.122 113.78 342.721 113.231 340.827 112.852L333.27 111.347C329.009 110.494 325.836 109.017 323.753 106.915C321.688 104.812 320.656 102.133 320.656 98.875C320.656 96.072 321.414 93.6572 322.929 91.6307C324.463 89.6042 326.613 88.0417 329.378 86.9432C332.162 85.8447 335.42 85.2955 339.151 85.2955C344.662 85.2955 348.999 86.4602 352.162 88.7898C355.344 91.1193 357.2 94.2917 357.73 98.3068ZM393.533 100.807V110.409H366.999V100.807H393.533ZM435.635 88.0511C435.408 85.7595 434.432 83.9792 432.709 82.7102C430.985 81.4413 428.646 80.8068 425.692 80.8068C423.684 80.8068 421.989 81.0909 420.607 81.6591C419.224 82.2083 418.163 82.9754 417.425 83.9602C416.705 84.9451 416.345 86.0625 416.345 87.3125C416.307 88.3542 416.525 89.2633 416.999 90.0398C417.491 90.8163 418.163 91.4886 419.016 92.0568C419.868 92.6061 420.853 93.089 421.97 93.5057C423.088 93.9034 424.281 94.2443 425.55 94.5284L430.777 95.7784C433.315 96.3466 435.644 97.1042 437.766 98.0511C439.887 98.9981 441.724 100.163 443.277 101.545C444.83 102.928 446.033 104.557 446.885 106.432C447.756 108.307 448.201 110.456 448.22 112.881C448.201 116.441 447.292 119.528 445.493 122.142C443.713 124.737 441.137 126.754 437.766 128.193C434.413 129.614 430.37 130.324 425.635 130.324C420.938 130.324 416.847 129.604 413.362 128.165C409.896 126.725 407.188 124.595 405.237 121.773C403.305 118.932 402.292 115.419 402.197 111.233H414.101C414.233 113.184 414.792 114.812 415.777 116.119C416.781 117.407 418.116 118.383 419.783 119.045C421.468 119.689 423.372 120.011 425.493 120.011C427.576 120.011 429.385 119.708 430.919 119.102C432.472 118.496 433.675 117.653 434.527 116.574C435.379 115.494 435.805 114.254 435.805 112.852C435.805 111.545 435.417 110.447 434.641 109.557C433.883 108.667 432.766 107.909 431.288 107.284C429.83 106.659 428.04 106.091 425.919 105.58L419.584 103.989C414.679 102.795 410.805 100.93 407.964 98.392C405.124 95.8542 403.713 92.4356 403.732 88.1364C403.713 84.6136 404.65 81.536 406.544 78.9034C408.457 76.2708 411.08 74.2159 414.413 72.7386C417.747 71.2614 421.535 70.5227 425.777 70.5227C430.095 70.5227 433.864 71.2614 437.084 72.7386C440.322 74.2159 442.841 76.2708 444.641 78.9034C446.44 81.536 447.368 84.5852 447.425 88.0511H435.635ZM476.153 130.352C471.665 130.352 467.801 129.443 464.562 127.625C461.343 125.788 458.862 123.193 457.119 119.841C455.377 116.47 454.506 112.483 454.506 107.881C454.506 103.392 455.377 99.4527 457.119 96.0625C458.862 92.6723 461.314 90.0303 464.477 88.1364C467.659 86.2424 471.39 85.2955 475.67 85.2955C478.549 85.2955 481.229 85.7595 483.71 86.6875C486.21 87.5966 488.388 88.9697 490.244 90.8068C492.119 92.6439 493.578 94.9545 494.619 97.7386C495.661 100.504 496.182 103.742 496.182 107.455V110.778H459.335V103.278H484.79C484.79 101.536 484.411 99.9924 483.653 98.6477C482.896 97.303 481.845 96.2519 480.5 95.4943C479.174 94.7178 477.631 94.3295 475.869 94.3295C474.032 94.3295 472.403 94.7557 470.983 95.608C469.581 96.4413 468.483 97.5682 467.688 98.9886C466.892 100.39 466.485 101.953 466.466 103.676V110.807C466.466 112.966 466.864 114.831 467.659 116.403C468.473 117.975 469.619 119.188 471.097 120.04C472.574 120.892 474.326 121.318 476.352 121.318C477.697 121.318 478.928 121.129 480.045 120.75C481.163 120.371 482.119 119.803 482.915 119.045C483.71 118.288 484.316 117.36 484.733 116.261L495.926 117C495.358 119.689 494.193 122.038 492.432 124.045C490.689 126.034 488.436 127.587 485.67 128.705C482.924 129.803 479.752 130.352 476.153 130.352ZM504.08 129.5V85.8636H515.812V93.4773H516.267C517.063 90.7689 518.398 88.7235 520.273 87.3409C522.148 85.9394 524.307 85.2386 526.75 85.2386C527.356 85.2386 528.009 85.2765 528.71 85.3523C529.411 85.428 530.027 85.5322 530.557 85.6648V96.4034C529.989 96.233 529.203 96.0814 528.199 95.9489C527.195 95.8163 526.277 95.75 525.443 95.75C523.663 95.75 522.072 96.1383 520.67 96.9148C519.288 97.6723 518.189 98.733 517.375 100.097C516.58 101.46 516.182 103.032 516.182 104.812V129.5H504.08ZM536.814 129.5V85.8636H548.916V129.5H536.814ZM542.893 80.2386C541.094 80.2386 539.551 79.642 538.263 78.4489C536.994 77.2367 536.359 75.7879 536.359 74.1023C536.359 72.4356 536.994 71.0057 538.263 69.8125C539.551 68.6004 541.094 67.9943 542.893 67.9943C544.693 67.9943 546.227 68.6004 547.496 69.8125C548.784 71.0057 549.428 72.4356 549.428 74.1023C549.428 75.7879 548.784 77.2367 547.496 78.4489C546.227 79.642 544.693 80.2386 542.893 80.2386ZM582.077 85.8636V94.9545H555.145V85.8636H582.077ZM561.31 129.5V82.7102C561.31 79.5473 561.925 76.9242 563.156 74.8409C564.406 72.7576 566.111 71.1951 568.27 70.1534C570.429 69.1117 572.882 68.5909 575.628 68.5909C577.484 68.5909 579.179 68.733 580.713 69.017C582.266 69.3011 583.421 69.5568 584.179 69.7841L582.02 78.875C581.546 78.7235 580.959 78.5814 580.259 78.4489C579.577 78.3163 578.876 78.25 578.156 78.25C576.376 78.25 575.135 78.6667 574.435 79.5C573.734 80.3144 573.384 81.4602 573.384 82.9375V129.5H561.31Z"
          fill="black"/>
    <path d="M168 145.409H584.634V150.864H168V145.409Z" fill="black"/>
    <path d="M729.841 65.7653V88.1619H728.074C727.501 83.8641 726.466 80.4417 724.97 77.8948C723.506 75.3479 721.404 73.3264 718.667 71.8301C715.929 70.3338 713.095 69.5856 710.166 69.5856C706.855 69.5856 704.117 70.6044 701.953 72.6419C699.788 74.6476 698.705 76.9397 698.705 79.5185C698.705 81.4923 699.39 83.291 700.759 84.9146C702.733 87.3023 707.428 90.4859 714.846 94.4654C720.895 97.7127 725.018 100.212 727.214 101.963C729.443 103.682 731.146 105.719 732.324 108.075C733.534 110.431 734.139 112.898 734.139 115.477C734.139 120.38 732.229 124.614 728.408 128.18C724.62 131.713 719.733 133.48 713.748 133.48C711.87 133.48 710.103 133.337 708.447 133.051C707.46 132.891 705.407 132.318 702.287 131.331C699.199 130.313 697.241 129.803 696.413 129.803C695.617 129.803 694.981 130.042 694.503 130.52C694.057 130.997 693.723 131.984 693.5 133.48H691.733V111.275H693.5C694.328 115.923 695.442 119.409 696.843 121.733C698.244 124.025 700.377 125.935 703.242 127.463C706.139 128.992 709.307 129.756 712.745 129.756C716.725 129.756 719.86 128.705 722.153 126.604C724.477 124.503 725.639 122.019 725.639 119.154C725.639 117.562 725.193 115.955 724.301 114.331C723.442 112.707 722.089 111.195 720.242 109.794C719.001 108.839 715.61 106.818 710.071 103.73C704.531 100.61 700.584 98.1266 698.228 96.2801C695.904 94.4336 694.137 92.3961 692.927 90.1676C691.717 87.9391 691.113 85.4877 691.113 82.8135C691.113 78.1654 692.895 74.17 696.461 70.8272C700.027 67.4526 704.563 65.7653 710.071 65.7653C713.509 65.7653 717.154 66.609 721.006 68.2963C722.789 69.0922 724.047 69.4901 724.779 69.4901C725.607 69.4901 726.275 69.2514 726.785 68.7738C727.326 68.2645 727.756 67.2616 728.074 65.7653H729.841ZM749.85 104.733C749.818 111.227 751.394 116.321 754.577 120.014C757.761 123.707 761.502 125.553 765.8 125.553C768.665 125.553 771.148 124.773 773.249 123.213C775.382 121.621 777.165 118.915 778.598 115.095L780.078 116.05C779.409 120.412 777.467 124.391 774.252 127.989C771.037 131.554 767.009 133.337 762.17 133.337C756.917 133.337 752.413 131.3 748.656 127.225C744.931 123.118 743.069 117.61 743.069 110.702C743.069 103.22 744.979 97.3943 748.799 93.2238C752.651 89.0215 757.475 86.9203 763.269 86.9203C768.171 86.9203 772.199 88.5439 775.35 91.7912C778.502 95.0066 780.078 99.3204 780.078 104.733H749.85ZM749.85 101.963H770.097C769.938 99.1612 769.604 97.1874 769.095 96.0413C768.299 94.2585 767.105 92.8577 765.513 91.839C763.953 90.8202 762.314 90.3108 760.594 90.3108C757.952 90.3108 755.58 91.3455 753.479 93.4148C751.41 95.4523 750.2 98.3017 749.85 101.963ZM798.75 86.9681V96.8054C802.411 90.2472 806.168 86.9681 810.02 86.9681C811.771 86.9681 813.219 87.5093 814.365 88.5917C815.511 89.6423 816.084 90.868 816.084 92.2687C816.084 93.5104 815.671 94.5609 814.843 95.4205C814.015 96.2801 813.028 96.7099 811.882 96.7099C810.768 96.7099 809.51 96.1687 808.11 95.0862C806.741 93.972 805.722 93.4148 805.053 93.4148C804.48 93.4148 803.859 93.7332 803.191 94.3699C801.758 95.6752 800.278 97.8241 798.75 100.817V121.781C798.75 124.2 799.052 126.031 799.657 127.272C800.071 128.132 800.803 128.848 801.854 129.421C802.904 129.994 804.417 130.281 806.39 130.281V132H783.994V130.281C786.222 130.281 787.878 129.931 788.96 129.23C789.756 128.721 790.313 127.909 790.632 126.795C790.791 126.254 790.87 124.71 790.87 122.163V105.21C790.87 100.116 790.759 97.0919 790.536 96.1368C790.345 95.1499 789.963 94.4336 789.39 93.9879C788.849 93.5422 788.164 93.3193 787.337 93.3193C786.35 93.3193 785.235 93.5581 783.994 94.0356L783.516 92.3165L796.744 86.9681H798.75ZM829.647 64.0939C830.984 64.0939 832.114 64.5715 833.037 65.5266C833.992 66.4498 834.47 67.58 834.47 68.9171C834.47 70.2542 833.992 71.4003 833.037 72.3554C832.114 73.3104 830.984 73.788 829.647 73.788C828.309 73.788 827.163 73.3104 826.208 72.3554C825.253 71.4003 824.776 70.2542 824.776 68.9171C824.776 67.58 825.237 66.4498 826.161 65.5266C827.116 64.5715 828.278 64.0939 829.647 64.0939ZM833.61 86.9681V122.115C833.61 124.853 833.801 126.683 834.183 127.607C834.597 128.498 835.186 129.167 835.95 129.612C836.746 130.058 838.179 130.281 840.248 130.281V132H818.997V130.281C821.13 130.281 822.563 130.074 823.295 129.66C824.028 129.246 824.601 128.562 825.014 127.607C825.46 126.652 825.683 124.821 825.683 122.115V105.258C825.683 100.514 825.54 97.4421 825.253 96.0413C825.03 95.0226 824.68 94.3222 824.203 93.9401C823.725 93.5263 823.072 93.3193 822.245 93.3193C821.353 93.3193 820.271 93.5581 818.997 94.0356L818.329 92.3165L831.509 86.9681H833.61ZM862.836 91.6957V120.444C862.836 124.519 863.281 127.097 864.173 128.18C865.351 129.58 866.926 130.281 868.9 130.281H872.864V132H846.742V130.281H848.7C849.974 130.281 851.136 129.962 852.186 129.326C853.237 128.689 853.953 127.829 854.335 126.747C854.749 125.665 854.956 123.563 854.956 120.444V91.6957H846.456V88.2574H854.956V85.3922C854.956 81.0307 855.657 77.3377 857.057 74.3133C858.458 71.2889 860.591 68.8534 863.456 67.0069C866.353 65.1286 869.601 64.1895 873.198 64.1895C876.541 64.1895 879.613 65.2719 882.415 67.4367C884.261 68.8693 885.184 70.477 885.184 72.2599C885.184 73.2149 884.771 74.1223 883.943 74.9818C883.115 75.8096 882.224 76.2234 881.269 76.2234C880.536 76.2234 879.756 75.9687 878.929 75.4594C878.133 74.9182 877.146 73.788 875.968 72.0688C874.79 70.3179 873.708 69.1399 872.721 68.5351C871.734 67.9302 870.635 67.6277 869.426 67.6277C867.961 67.6277 866.72 68.0257 865.701 68.8216C864.682 69.5856 863.95 70.7954 863.504 72.4509C863.058 74.0745 862.836 78.2928 862.836 85.1057V88.2574H874.105V91.6957H862.836Z"
          fill="black"/>
    <path d="M685 145.037H875.252V150.514H685V145.037Z" fill="black"/>
</svg>
